<svg id="Layer_1" data-name="Layer 1" xmlns="http://www.w3.org/2000/svg" viewBox="0 0 412.84 479.37"><defs><style>.cls-1{fill:#004a6f;fill-rule:evenodd;}</style></defs><title>anchor</title><path class="cls-1" d="M708.26,350.23a38,38,0,0,1,9.23,1.4c17,4.71,29.18,24.15,24.08,42.54-4.2,15.14-18.79,24.87-33.31,25.2V402.85a17.9,17.9,0,0,0,0-35.8V350.23h0Zm0,223.86,0.2-.09-0.2-.6v-34l71-14.59c-5.27,36.06-27.38,80.23-54.64,104.59,1.78-9.68.87-21.4-2.08-29.05q-7.2,4.47-14.33,8.5V574.1Zm-46-403.71c29.44,8.16,45.88,41.57,38.53,68.08s-27.4,39.34-50.58,40.49l-2.73,10.81V249.53a25.84,25.84,0,1,0,0-51.67V168.37a55.06,55.06,0,0,1,14.78,2h0ZM647.5,359.44l30.66,8.5c6.2-11,17.09-18,30.1-17.71V367a17.9,17.9,0,0,0,0,35.8v16.53a31.78,31.78,0,0,1-9.23-1.12c-17-4.71-25.75-18.72-25.33-34.23l-26.2-7.26V359.44h0Zm0,235.35c30.45-7.29,58.16-19.53,60.76-20.7v34.77a331.35,331.35,0,0,1-60.76,27.27V594.79h0Zm60.76-21.39c-3.92-11.21-15.51-20.68-27.11-28.42l27.11-5.57v34ZM647.5,289.77l-16.43,65.12,16.43,4.55v17.33l-20.22-5.61L574.94,583.35s-8.19,10.18,17.79,15.44c15.72,3.18,35.77.55,54.77-4v41.34c-48.55,15.78-93.86,15.46-134.49-.9V576.49c11.37,0.91,10.45-7.42,10.45-7.42l66.82-208.16-47.17-13.08A34.63,34.63,0,0,1,513,365.4V348.66A17.83,17.83,0,0,0,513,313V296.4a31.78,31.78,0,0,1,9.23,1.12c17,4.71,25.75,18.72,25.33,34.23L595.41,345l24.26-73.5A55.33,55.33,0,0,1,647.5,168.37v29.49a25.84,25.84,0,0,0,0,51.67v40.24ZM513,635.23c-47.62-19.16-88.8-60.34-121.21-123.41-8.39,5.17-12.73,10.35-17.08,19.58-11.77-36.56-11.32-85.76,3.66-117.72l74.08,64.54c-12.94,3.32-27.22,7.32-35.44,17.39,0,0,40.7,61.07,83.24,77.54A46.84,46.84,0,0,0,513,576.49v58.74h0Zm0-269.83a34.6,34.6,0,0,1-33.31-43.81c4.2-15.15,18.79-24.86,33.31-25.2V313a17.83,17.83,0,0,0,0,35.66V365.4Z" transform="translate(-366.47 -168.37)"/></svg>