<svg xmlns="http://www.w3.org/2000/svg" viewBox="0 0 831.35 686.1"><defs><style>.cls-1{isolation:isolate;}.cls-2{fill:#a27a55;}.cls-13,.cls-14,.cls-3{fill:#6c4621;}.cls-4{fill:#27282d;}.cls-5{fill:#1c1e21;}.cls-6{fill:#fcf7bb;}.cls-7{fill:#613b1c;}.cls-8{fill:#936c43;}.cls-9{fill:#8d633c;}.cls-10{opacity:0.2;}.cls-10,.cls-13,.cls-14{mix-blend-mode:multiply;}.cls-11{fill:none;}.cls-12{fill:#88633e;}.cls-13{opacity:0.1;}.cls-14{opacity:0.5;}.cls-15{fill:#e2e2e2;}.cls-16{fill:#c7c6c6;}</style></defs><title>SHIP 2</title><g class="cls-1"><g id="Layer_1" data-name="Layer 1"><path class="cls-2" d="M324.87,435.67l-1.29-6c0.76-.16,77-23.07,163.38-76.29,50.66-31.22,94.85-68.71,131.33-111.41,45.57-53.35,79.19-115.05,99.93-183.4l5.88,1.78C703.1,129.55,669,192,622.87,246.06c-36.92,43.2-81.63,81.1-132.88,112.66C402.75,412.44,325.64,435.51,324.87,435.67Z" transform="translate(-246.57 -30.67)"/><path class="cls-2" d="M1007.91,468.3c-41.27-6.64-81.73-23.63-120.25-50.51-30.73-21.44-60.31-49.19-87.9-82.47-46.93-56.61-72.24-110.44-72.49-111l5.57-2.6c0.25,0.53,25.29,53.76,71.74,109.77,27.23,32.83,56.39,60.18,86.65,81.28,37.73,26.31,77.31,42.94,117.64,49.43Z" transform="translate(-246.57 -30.67)"/><path class="cls-2" d="M470.9,478.09l-2.38-7C532.36,449.31,592.15,382.34,631.06,330a923.24,923.24,0,0,0,70.09-110l6.54,3.41A931.2,931.2,0,0,1,637,334.32C579.52,411.71,523.62,460.09,470.9,478.09Z" transform="translate(-246.57 -30.67)"/><path class="cls-3" d="M736.65,44.16A13.49,13.49,0,1,0,715.19,55L681.14,582.14l51.29-26.48L729.86,55.85A13.47,13.47,0,0,0,736.65,44.16Z" transform="translate(-246.57 -30.67)"/><path class="cls-4" d="M724.29,88.13c-0.31-6.37,1-14.17,5.77-23,0,0-20.08,27.1-53.39,6.78s-70,.39-70,0.39L619.1,87.16l-16.37,22.58,13.55,17.5-24.84,16.37,9.49,8.84c26.5-.7,52-6,75.89-20.22C694.21,121.9,712.24,106.41,724.29,88.13Z" transform="translate(-246.57 -30.67)"/><path class="cls-5" d="M730.27,106.06s-5.44-6.76-6-17.93c-12.05,18.29-30.08,33.78-47.47,44.1-23.88,14.18-49.38,19.51-75.89,20.22l6.88,6.41-7.34,12.42s27.66-21,49.11-9.09S708.69,181.44,730.5,151C730.5,151,701.46,131.16,730.27,106.06Z" transform="translate(-246.57 -30.67)"/><path class="cls-6" d="M682.26,134.1a2.82,2.82,0,0,0-3.89.85,2.85,2.85,0,0,0-.26.51c-3.1-1.73-6.4-3.69-9.74-5.76,3.9-.46,7.73-0.83,11.27-1.07a2.82,2.82,0,0,0,5.42,1.3,2.7,2.7,0,0,0,.18-1.48,4.16,4.16,0,0,0-.82-1.21,2.81,2.81,0,0,1-.34-1.64,5.83,5.83,0,0,1,.23-1.12,4,4,0,0,0,.21-1.58,2.82,2.82,0,1,0-5.45,1.32c-4.74.92-10,1.77-15.4,2.49-4.53-2.93-9-6-12.86-8.83a2.82,2.82,0,1,0-4.36-3.52,4,4,0,0,0-.48,1.51,5.85,5.85,0,0,1-.27,1.11,2.81,2.81,0,0,1-1,1.34,4.16,4.16,0,0,0-1.26.74,2.69,2.69,0,0,0-.47,1.41,2.82,2.82,0,0,0,5.45,1.14c3.1,1.73,6.4,3.7,9.73,5.78-3.9.45-7.73,0.81-11.27,1.05a2.82,2.82,0,1,0-5.61.16c0.16,1.21,1.06,2.15,1,3.42a11.14,11.14,0,0,0-.26,2.17,2.82,2.82,0,0,0,5.59-.73,2.85,2.85,0,0,0-.13-0.55c4.74-.93,10-1.79,15.39-2.52,4.52,2.94,9,6,12.84,8.85a2.82,2.82,0,1,0,4.39,3.49,11.15,11.15,0,0,0,.69-2.07c0.49-1.18,1.7-1.64,2.36-2.67A2.82,2.82,0,0,0,682.26,134.1Z" transform="translate(-246.57 -30.67)"/><path class="cls-6" d="M686.36,103.86c-0.6-7.32-7.07-10.16-14.91-11.92s-14.9-2-18.57,4.41c-2.25,3.91-2.33,7.8-.55,11.14-1.22,2-.2,5.42,2.62,8.22a13.23,13.23,0,0,0,3.36,2.43l0.19,3.74a16.71,16.71,0,0,0,2.07,1.12l0.57-.93,0.13,1.24a18.21,18.21,0,0,0,2.57.85l0.59-1,0.12,1.14a20.51,20.51,0,0,0,2.65.39l0.69-1.13,0.12,1.17a8.08,8.08,0,0,0,2.34-.21l1.77-3.3a13.23,13.23,0,0,0,4.08-.76c3.75-1.32,6.12-4,5.88-6.31C685.14,111.9,686.73,108.35,686.36,103.86Zm-23.08,5.87a8.43,8.43,0,0,1-5.22,1.58,4.42,4.42,0,0,1-3.12-1.17c-1.78-2,.66-4.36,2.2-5.59a8.08,8.08,0,0,1,5.18-2,4.39,4.39,0,0,1,2.38.74,3.09,3.09,0,0,1,1,1.08,2.59,2.59,0,0,1,.25.72C666.22,106.82,664.64,108.74,663.28,109.73Zm4.62,7.85a0.63,0.63,0,0,1-1,.1,3.57,3.57,0,0,1-.4-0.74,0.8,0.8,0,0,0-1.19-.27,3.57,3.57,0,0,1-.68.5,0.63,0.63,0,0,1-.88-0.53,3.94,3.94,0,0,1,.79-1.93,4.69,4.69,0,0,1,.85-0.93,2.09,2.09,0,0,1,.91-0.54,1,1,0,0,1,.4,0c0.81,0.19,1.19,1.41,1.33,2.24A3.94,3.94,0,0,1,667.9,117.58Zm10.72-2.13a4.42,4.42,0,0,1-3.32-.28,8.43,8.43,0,0,1-4-3.65c-0.81-1.48-1.42-3.88-.41-5.28a2.58,2.58,0,0,1,.54-0.55,3.1,3.1,0,0,1,1.32-.57,4.39,4.39,0,0,1,2.47.35,8.08,8.08,0,0,1,3.85,4C679.88,111.22,681.07,114.41,678.62,115.45Z" transform="translate(-246.57 -30.67)"/><path class="cls-3" d="M573.66,177.21" transform="translate(-246.57 -30.67)"/><circle class="cls-3" cx="306.4" cy="150.22" r="12.92"/><circle class="cls-3" cx="626.3" cy="213.16" r="12.92"/><rect class="cls-3" x="707.15" y="47.58" width="15.12" height="329.55" transform="translate(123.19 842.68) rotate(-78.99)"/><circle class="cls-3" cx="556.98" cy="422.02" r="12.92" transform="translate(-171.64 897.26) rotate(-83.53)"/><circle class="cls-3" cx="829.06" cy="508.73" r="12.92" transform="translate(-16.36 1244.55) rotate(-83.53)"/><polygon class="cls-3" points="578.43 485.06 308.14 398.56 312.69 384.13 582.98 470.64 578.43 485.06"/><path class="cls-4" d="M772,337.62c5-45.16,28-86.34,87.23-104.84L584.07,179.24s-149.58,93.66-11.57,254.7A289.71,289.71,0,0,0,772,337.62Z" transform="translate(-246.57 -30.67)"/><path class="cls-5" d="M772,337.62a289.71,289.71,0,0,1-199.49,96.32l1.16,1.36,237.14,75.9S763,418.08,772,337.62Z" transform="translate(-246.57 -30.67)"/><rect class="cls-7" x="524.5" y="478.61" width="12.06" height="65.35" transform="translate(-239.07 -38.33) rotate(0.83)"/><rect class="cls-7" x="555.18" y="483.06" width="12.06" height="65.35" transform="translate(-239.01 -38.78) rotate(0.83)"/><rect class="cls-7" x="585.87" y="487.52" width="12.06" height="65.35" transform="translate(-238.94 -39.23) rotate(0.83)"/><rect class="cls-7" x="616.56" y="491.97" width="12.06" height="65.35" transform="translate(-238.88 -39.66) rotate(0.83)"/><rect class="cls-7" x="647.25" y="496.42" width="12.06" height="65.35" transform="translate(-238.8 -40.12) rotate(0.83)"/><rect class="cls-7" x="677.93" y="497.18" width="12.06" height="65.35" transform="translate(-238.79 -40.56) rotate(0.83)"/><rect class="cls-7" x="708.62" y="500.4" width="12.06" height="65.35" transform="translate(-238.74 -41.01) rotate(0.83)"/><rect class="cls-7" x="739.31" y="503.62" width="12.06" height="65.35" transform="translate(-238.7 -41.44) rotate(0.83)"/><polygon class="cls-2" points="261.72 453.44 254.69 438.06 534.32 465.14 527.22 480.52 261.72 453.44"/><rect class="cls-3" x="856.9" y="431.39" width="14.14" height="65.35" transform="translate(-284.01 47.07) rotate(-5.04)"/><rect class="cls-3" x="891.32" y="427.02" width="14.14" height="65.35" transform="translate(-283.5 50.09) rotate(-5.04)"/><rect class="cls-3" x="925.74" y="422.64" width="14.14" height="65.35" transform="translate(-282.98 53.1) rotate(-5.04)"/><rect class="cls-3" x="960.16" y="418.27" width="14.14" height="65.35" transform="translate(-282.46 56.09) rotate(-5.04)"/><rect class="cls-3" x="994.57" y="413.9" width="14.14" height="65.35" transform="translate(-281.95 59.11) rotate(-5.04)"/><polygon class="cls-2" points="564.45 466.06 584.12 395.85 775.05 365.48 779.15 383.51 599.69 415.77 589.03 466.06 564.45 466.06"/><polygon class="cls-3" points="77.66 395.85 0 373.82 0.42 392.26 78.29 423.53 77.66 395.85"/><path class="cls-3" d="M664.5,411.58" transform="translate(-246.57 -30.67)"/><path class="cls-8" d="M1010.53,540.15h0c6.78-21.29,26.86-30.13,26.86-30.13l40.51-8.29-19.68-49.15C977.18,480,880.51,489.07,784.38,488.22L757.15,547.3,529.3,530.07l-31.21-68.26C395.19,445,324.23,426.52,324.23,426.52l0.63,27.68,62.71,35.47S388.41,575,474.7,641.1C858.27,776.6,1010.53,540.15,1010.53,540.15Z" transform="translate(-246.57 -30.67)"/><path class="cls-9" d="M1010.55,540.15h0S858.27,776.6,474.7,641.1c41.45,31.74,102.62,59,192.89,70.3C945.79,746.09,1015.53,602.73,1009.12,564A50.4,50.4,0,0,1,1010.55,540.15Z" transform="translate(-246.57 -30.67)"/><g class="cls-10"><path class="cls-11" d="M1038.75,487.69c-30.76-4.53-62.69-4.42-93.57-4.32-22.1.07-44.95,0.15-66.82,3.89-3.69.63-8,2.2-9.42,4.26a2.07,2.07,0,0,0-.37,1.61,124.94,124.94,0,0,0,20.95,1.68c0.51-2.78,4-4.83,10.14-5.93a237,237,0,0,1,41.49-3.21c13.62,0,27.67.77,40.07,1.46,30.39,1.68,64,3.55,95.18,10.8l-1.6-4c-5-.82-10-1.73-14.94-2.63C1052.95,490,1045.81,488.73,1038.75,487.69Z" transform="translate(-246.57 -30.67)"/><path class="cls-11" d="M456.94,473.41l0.47-.09a89.09,89.09,0,0,1,14.83-2,92.91,92.91,0,0,1,12.82.94c1.3,0.16,2.6.32,3.9,0.45,4.81,0.52,9.69.78,14.56,0.94l-3.44-7.52a105.56,105.56,0,0,0-21.2-.41c-8.11.82-15.92,3.1-23.48,5.31-4.89,1.43-10,2.91-15.1,4-11.24,2.39-23,3-34.43,3.54l-34.79,1.74,9,5.07c5.24-.62,10.35-1.28,15.3-1.95C415.83,480.7,436.56,477.31,456.94,473.41Z" transform="translate(-246.57 -30.67)"/><path class="cls-11" d="M968.9,488.54c-9-.45-18.49-0.81-27.75-0.81a234.37,234.37,0,0,0-41,3.16c-2.47.44-6.34,1.39-7.75,3.18,25.19-2.23,50.78-4.09,76.1-5.52Z" transform="translate(-246.57 -30.67)"/><path class="cls-11" d="M441,499.35c5.84-.74,11.66-2,17.29-3.15,3.39-.71,6.89-1.45,10.37-2.08,13.8-2.49,28.27-3.43,42.27-4.32L509.15,486l-34.56,1.38c-7.61.3-15.49,0.61-22.8,2.38-3.11.75-6.17,1.79-9.13,2.79-3.17,1.07-6.46,2.18-9.88,3a89.83,89.83,0,0,1-20,1.85c-2.72,0-5.45-.05-8.18-0.11-4.22-.08-8.45-0.17-12.64-0.05-1.27.13-2.53,0.21-3.78,0.27,0.07,0.59.14,1.19,0.22,1.84l16.51,0.63C416.76,500.39,429.05,500.85,441,499.35Z" transform="translate(-246.57 -30.67)"/><path class="cls-11" d="M816.51,627.21c-5.42,1-10.88,2.33-16.16,3.6-6.1,1.47-12.41,3-18.74,4.06-19.61,3.36-40.09,2.66-58.14,2-89.4-3-179.63-7.78-269-13.06l1.33,1.27c31.47,1.66,62.77,3.9,93.68,6.12,69.09,5,140.53,10.11,210.82,8.45,34.42-.81,69.31-3.27,103.06-5.65l123.2-8.68q3.62-4.86,6.61-9.63L859.92,623C845.59,623.73,830.78,624.54,816.51,627.21Z" transform="translate(-246.57 -30.67)"/><path class="cls-11" d="M420.95,487.91c7.67-2.49,15.6-5.07,23.82-6.57,10.62-1.93,21.65-2.05,32.31-2.17l28.8-.32-1.41-3.08c-5.27-.17-10.59-0.43-15.83-1-1.32-.14-2.63-0.3-3.94-0.46a90.91,90.91,0,0,0-12.39-.92A86.85,86.85,0,0,0,458,475.31l-0.47.09c-20.44,3.91-41.21,7.31-61.75,10.09-4.12.56-8.37,1.11-12.69,1.63l4.5,2.54s0,2,.37,5.67c1.22-.08,2.47-0.14,3.81-0.17C401.79,494.14,411.53,491,420.95,487.91Z" transform="translate(-246.57 -30.67)"/><path class="cls-11" d="M760.38,641.75c-70.42,1.66-141.95-3.48-211.11-8.46-30.06-2.16-60.5-4.34-91.09-6q3.62,3.3,7.5,6.55c1.33,0.17,2.67.32,4,.51,5.56,0.79,11.12,1.78,16.49,2.74,6.79,1.21,13.8,2.46,20.85,3.3,9.82,1.17,19.49,1.58,31.12,2,93.22,3.31,187.82,4.1,281.19,2.36,59.9-1.12,109.87-3.22,159-9.85l0.6-.08q3.16-3.64,6-7.28l-121.35,8.55C829.8,638.47,794.88,640.94,760.38,641.75Z" transform="translate(-246.57 -30.67)"/><path class="cls-11" d="M518.83,507.16c-25.41,5.24-51.39,10.06-77.72,12.62-16,1.55-32.08,2.27-48.19,2.45,0.8,3,1.72,6.16,2.77,9.45a850.88,850.88,0,0,0,125.55-19.25Z" transform="translate(-246.57 -30.67)"/><path class="cls-11" d="M514.51,497.71l-2.71-5.92-0.33,0c-14,.89-28.55,1.82-42.32,4.3-3.44.62-6.92,1.36-10.29,2.06-5.69,1.2-11.57,2.44-17.54,3.19a151.88,151.88,0,0,1-19,1.05c-5.91,0-11.79-.22-17.59-0.44l-16.12-.61c0.27,1.9.59,4,1,6.27C431.52,508,473.95,505.8,514.51,497.71Z" transform="translate(-246.57 -30.67)"/><path class="cls-11" d="M867.89,579.46L808.68,592c-9.29,2-18.89,4-28.73,5-16.78,1.67-33.89.21-50.44-1.21-6.12-.52-12.44-1.06-18.65-1.44-37.75-2.27-75.93,1.38-112.85,4.9-6,.57-12.18,1.16-17.53,3.24a54.11,54.11,0,0,0-6.68,3.32c-1.73,1-3.52,2-5.43,2.81-13.61,6.11-30.14,4.43-46.14,2.81-3.23-.33-6.45-0.65-9.61-0.91-21.33-1.74-43.2,0-64.33,1.69l-4.93.39q4.2,4.55,8.83,9.06c90.14,5.34,181.19,10.13,271.37,13.2,17.92,0.61,38.22,1.3,57.53-2,6.23-1.07,12.49-2.57,18.55-4,5.32-1.28,10.81-2.6,16.3-3.63,14.46-2.72,29.37-3.52,43.8-4.3l133.59-7.23,1.14-.06q3.12-5.16,5.54-10.12c-10.43.53-21.11,1.19-31.24,3.35-5,1.07-10,2.53-14.89,3.95-7.68,2.25-15.63,4.57-24,5.41-10.55,1.06-21.21-.26-31.52-1.54-4.65-.58-9.46-1.17-14.17-1.54-23.79-1.84-47.77,2-71,5.68-15.17,2.42-30.86,4.92-46.49,5.86-19.87,1.19-40-.1-59.47-1.35l-116.16-7.47c-6.69-.43-10.65-2.49-10.59-5.51l0-.86,1-.13a745.64,745.64,0,0,1,147.24-4.13l3.92,0.29c12.93,0.95,26.29,1.93,38.91-.27a146.81,146.81,0,0,0,17.17-4.44c5-1.51,10.14-3.06,15.45-4.13a178.47,178.47,0,0,1,19.79-2.45c4.32-.37,8.79-0.76,13.11-1.35,10-1.37,19.86-3.92,29.37-6.38,3.17-.82,6.34-1.64,9.52-2.42,43-10.55,88.44-13.83,133.44-13.85a33.47,33.47,0,0,0-.38-6.22c-0.23-1.41-.39-2.78-0.52-4.13-13.69.29-27.36,1-40.94,2.32C933.71,565.49,900.25,572.59,867.89,579.46Z" transform="translate(-246.57 -30.67)"/><path class="cls-11" d="M517.95,505.23l-2.55-5.59c-38,7.6-77.6,10.08-116.84,10.08-2.84,0-5.68,0-8.52-.05,0.62,3.2,1.39,6.72,2.35,10.51,16.19-.17,32.37-0.88,48.43-2.44C466.9,515.22,492.71,510.43,517.95,505.23Z" transform="translate(-246.57 -30.67)"/><path class="cls-11" d="M1020.17,493c2.88,0.82,5.87,1.67,8.84,2.39,9.81,2.37,20.26,3.53,30.37,4.65l17.32,1.91,1.22-.25-0.58-1.45c-20.64-4.94-42.46-7.45-63.74-9.07C1015.82,491.8,1018,492.42,1020.17,493Z" transform="translate(-246.57 -30.67)"/><path class="cls-11" d="M346.17,431.88q-10.86.86-21.79,1.24l0.07,3.11c10.3-.49,20.53-1.32,30.52-2.31Z" transform="translate(-246.57 -30.67)"/><path class="cls-11" d="M370.07,437.33l-8.87-2c-11.94,1.25-24.26,2.33-36.71,2.92l0.09,4c12-1,23.94-2.37,35.74-3.78Z" transform="translate(-246.57 -30.67)"/><path class="cls-11" d="M537,677.42c19.07,1.63,38.1,3.67,56.64,5.66,11,1.19,22.06,2.37,33.12,3.47,81.34,8.12,163.86,11.84,246.36,13.28q3.09-1,6.09-2h-2.14c-34,.11-69.12.2-103.28-3.09-11-1.06-22-2.48-32.61-3.86-11.12-1.44-22.61-2.92-34-4-18.19-1.7-37-2.42-55.24-3.11-31.64-1.2-64.35-2.45-94.55-8.89l-0.35-.07-0.25-.21a1.85,1.85,0,0,1-.62-2.38c1-1.85,5.58-2.76,8.76-2.76h0.47l141.89,4.31c8.83,0.27,17.93.54,26.81,1.31,5.95,0.51,11.92,1.25,17.69,2,4.59,0.57,9.33,1.16,14,1.63,15.95,1.59,32.13,1.9,47.78,2.19q51,1,102.35,1.73,6-3,11.48-6.18c-135.23-4.23-272.63-7.95-410.52-8.7Q526.48,672.78,537,677.42Z" transform="translate(-246.57 -30.67)"/><path class="cls-11" d="M538,644.44c-11.7-.42-21.43-0.83-31.37-2-7.13-.85-14.19-2.11-21-3.33-5.35-1-10.88-1.94-16.39-2.72l-0.62-.08c2,1.61,4,3.21,6.06,4.8l1.31,1c3,0.47,6,1,9,1.51,5.07,0.89,10.32,1.82,15.58,2.42,11.82,1.35,24.16,1.14,36.1.94,5.41-.09,11-0.2,16.5-0.14,6.65,0.06,10.61,1.27,11.75,3.6a2.7,2.7,0,0,1-.18,2.77c-1.8,2.79-8,4.08-9.8,4.41-16.39,2.92-33.75,3.21-50.83,3.15q4.32,2.52,8.87,5c140.35,0.72,280.18,4.52,417.77,8.84q5.12-3.05,9.86-6.23l-61.21-1.18c-93.13-1.8-189.35-3.66-283.78-7.67-8.24-.35-17.17-1.28-20.83-5.52l-1.34-1.56,83.37-2c16.25-.39,32.88-0.78,49.24-0.7,15.13,0.08,30.47.59,45.31,1.08,13.14,0.44,26.73.88,40.1,1,56.79,0.64,114-3.94,169.29-8.38,3.7-.3,7.45-0.61,11.21-0.94q2.58-2.64,5-5.29c-48.7,6.45-98.26,8.53-157.51,9.64C726,648.54,631.31,647.75,538,644.44Z" transform="translate(-246.57 -30.67)"/><path class="cls-11" d="M324.23,426.52l0.1,4.55q7.63-.26,15.23-0.76C329.62,427.93,324.23,426.52,324.23,426.52Z" transform="translate(-246.57 -30.67)"/><path class="cls-11" d="M659.51,676.19l-33.85-.36c-3.21,0-6.43-.07-9.64-0.07-5.88,0-10.72.12-15.1,0.38,4.83,1.38,10.78,2,18.31,2,4.52,0,9.19-.22,13.71-0.43,2.09-.1,4.17-0.2,6.21-0.27,3-.11,6.11-0.17,9.25-0.17,19.21,0,38.54,2.09,57.24,4.11,9.54,1,19.4,2.1,29.11,2.87a108.32,108.32,0,0,0,17.33.26l-48.61-5.67c-6.36-.74-12.93-1.51-19.49-2C675.89,676.36,667.56,676.27,659.51,676.19Z" transform="translate(-246.57 -30.67)"/><path class="cls-11" d="M591.9,674.82l4-.36c5.75-.52,12-0.75,20.16-0.75,3.23,0,6.45,0,9.67.07l18.53,0.2-78.91-2.4c-3.19-.14-6.41.91-6.84,1.49a371.84,371.84,0,0,0,49.24,6.5,43,43,0,0,1-12.3-3.2Z" transform="translate(-246.57 -30.67)"/><path class="cls-11" d="M439.68,473.09c5-1.07,10-2.53,14.89-3.95,7.68-2.25,15.63-4.57,24-5.41a104.79,104.79,0,0,1,20.52.28l-1-2.2-0.21,0-82.76,4.48c-20.45,1.11-41.25,2.26-62.06,3.91l14.69,8.31,38-1.9C417,476,428.67,475.43,439.68,473.09Z" transform="translate(-246.57 -30.67)"/><path class="cls-11" d="M488.53,460.23c-14.75-2.46-28.78-5-42-7.4l-110.36,7.78,13.7,7.75c21.83-1.78,43.65-3,65.09-4.14Z" transform="translate(-246.57 -30.67)"/><path class="cls-11" d="M445.31,483.34c-8,1.46-15.87,4-23.44,6.47-5.95,1.93-12,3.91-18.25,5.38l1,0c2.71,0.05,5.43.11,8.12,0.11a87.07,87.07,0,0,0,19.35-1.77c3.28-.76,6.5-1.85,9.61-2.9s6.14-2.08,9.37-2.86c7.6-1.84,15.63-2.16,23.39-2.46L508.23,484l-1.42-3.1-29.7.33C466.57,481.33,455.68,481.45,445.31,483.34Z" transform="translate(-246.57 -30.67)"/><path class="cls-11" d="M416.22,447l-8.71,1.29c-24.89,3.7-50.4,7.49-75.67,7.49-1.43,0-2.87,0-4.3-.05l5.41,3.06,105.62-7.45Q426.92,449.14,416.22,447Z" transform="translate(-246.57 -30.67)"/><path class="cls-11" d="M407.07,446.28l3.18-.47q-7-1.42-13.6-2.78l-5.84,1.11c-5.91,1.13-12,2.29-18.1,3.3-15.68,2.6-31.75,4.22-47.9,5.35l0,0.82C352.17,454.41,380,450.3,407.07,446.28Z" transform="translate(-246.57 -30.67)"/><path class="cls-11" d="M390.25,442.14l1.14-.22q-8-1.68-15.11-3.24c-5.24.59-10.46,1.2-15.6,1.81-11.9,1.42-24,2.83-36,3.79l0.15,6.45c16-1.12,31.93-2.74,47.45-5.31C378.27,444.43,384.36,443.27,390.25,442.14Z" transform="translate(-246.57 -30.67)"/><path class="cls-11" d="M1028.3,497.38c-3-.73-6-1.59-9-2.42-4.45-1.27-9.05-2.58-13.73-3.44a106.44,106.44,0,0,0-19.4-1.56c-5.83,0-11.61.3-17.52,0.63-17.55,1-35.22,2.2-52.81,3.59a539.73,539.73,0,0,1,121.7,10.32c3.75,0.76,7.52,1.56,11.31,2.36l1.9,0.4,19.34-4L1059,502.09C1048.84,501,1038.29,499.8,1028.3,497.38Z" transform="translate(-246.57 -30.67)"/><path class="cls-11" d="M859.65,512.08l-85-2.87-4,8.57c11.49,0.39,23.14.12,34.45-.13,3.8-.09,7.59-0.18,11.39-0.24,65.62-1.1,130.14,4.81,190.1,11.37l1,0.11c2.54,0.28,5.11.56,7.7,0.82a50,50,0,0,1,4.29-5.87c-4.36-.65-8.75-1.29-13.09-1.88C958.12,515.4,908.06,513.71,859.65,512.08Z" transform="translate(-246.57 -30.67)"/><path class="cls-11" d="M967.51,580.59c-5.84.74-11.66,2-17.29,3.15-3.39.71-6.89,1.45-10.37,2.08-13.93,2.51-28.54,3.45-42.66,4.35-19.06,1.22-38.78,2.47-56.69,7.67-4.34,1.26-8.65,2.77-12.81,4.24-5.36,1.89-10.91,3.84-16.66,5.29-18.61,4.71-38.69,4.14-58.1,3.59-14.89-.42-30.29-0.86-45,1.08-3.11.41-6.35,1.57-6.1,3.14s3.85,2.21,7.31,2.1l89.54-2.78a101.74,101.74,0,0,0,15.93-1.32,94.62,94.62,0,0,0,10.19-2.75c1.57-.49,3.14-1,4.73-1.43,21.09-6,44.85-5.5,65.8-5.06,8,0.17,16.33.35,24.46,1.22,1.32,0.14,2.63.3,3.94,0.46a91,91,0,0,0,12.39.92,86.83,86.83,0,0,0,14.33-1.92l0.47-.09c17.39-3.33,35-6.25,52.53-8.77a98.39,98.39,0,0,0,3.24-9.3c-6.54,1.47-13,3.54-19.21,5.57-7.67,2.49-15.6,5.07-23.82,6.57-10.62,1.93-21.65,2.05-32.31,2.17l-35.19.39c-2.38,0-4.78.05-7.17,0.05-7.95,0-17.25-.27-26-2.25l-4.69-1.06,4.73-.92c10.31-2,21.1-2.44,31.52-2.85l39.29-1.56c7.61-.3,15.48-0.61,22.8-2.38,3.11-.75,6.17-1.79,9.13-2.79,3.17-1.07,6.46-2.18,9.88-3a89.84,89.84,0,0,1,20-1.85c2.72,0,5.45.05,8.18,0.11l3.83,0.07q0.32-1.31.58-2.58l-4.71-.18C991.7,579.55,979.41,579.09,967.51,580.59Z" transform="translate(-246.57 -30.67)"/><path class="cls-11" d="M591.82,560.48l3.53-.07c-19.42-.19-38.89-2.47-57.73-4.68-14.12-1.66-28.72-3.37-43.18-4.18-6.87-.39-13.88-0.58-20.67-0.77-9.47-.26-19.26-0.53-28.85-1.33-12.56-1-25.23-3-37.48-4.94l-7.64-1.18q1.11,2.86,2.35,5.81C462,555.68,526.38,561.58,591.82,560.48Z" transform="translate(-246.57 -30.67)"/><path class="cls-11" d="M769.83,519.78L769,521.56c8.29-.63,16.73-1.25,25.21-1.64C786.13,520.06,778,520.08,769.83,519.78Z" transform="translate(-246.57 -30.67)"/><path class="cls-11" d="M876.77,586c-3.17.78-6.33,1.59-9.49,2.41-9.59,2.49-19.51,5.05-29.71,6.45-4.4.6-8.9,1-13.26,1.37a176.71,176.71,0,0,0-19.45,2.41c-5.18,1-10.26,2.58-15.18,4.07a149.07,149.07,0,0,1-17.51,4.52c-13,2.27-26.53,1.27-39.65.31l-3.91-.29a742.87,742.87,0,0,0-145.36,3.95c1,1.59,4.75,2.4,8.07,2.61l116.16,7.47c19.38,1.24,39.42,2.54,59.09,1.35,15.49-.93,31.1-3.42,46.2-5.83,23.36-3.73,47.52-7.58,71.67-5.71,4.79,0.37,9.63,1,14.31,1.55,10.14,1.26,20.63,2.56,30.84,1.53,8.11-.82,15.92-3.1,23.48-5.31,4.89-1.43,10-2.91,15.1-4,10.73-2.28,22-2.92,32.87-3.47q0.81-1.74,1.54-3.44c-17,2.47-34.16,5.33-51.06,8.56l-0.47.09a89.08,89.08,0,0,1-14.83,2,92.9,92.9,0,0,1-12.82-.94c-1.3-.16-2.6-0.32-3.9-0.45-8-.86-16.24-1-24.2-1.2-20.75-.44-44.26-0.94-64.92,4.94-1.57.45-3.11,0.93-4.66,1.41a97.27,97.27,0,0,1-10.5,2.83,104.66,104.66,0,0,1-16.4,1.38l-89.54,2.78c-5.79.19-9.45-1.27-9.87-3.89-0.5-3.13,3.89-4.86,8.17-5.42,14.91-2,30.43-1.53,45.44-1.11,19.21,0.54,39.06,1.11,57.28-3.5,5.62-1.42,11.11-3.35,16.41-5.22,4.2-1.48,8.54-3,13-4.29,18.22-5.29,38.1-6.55,57.32-7.78,14-.89,28.55-1.82,42.32-4.3,3.44-.62,6.92-1.36,10.29-2.06,5.69-1.2,11.57-2.44,17.54-3.19a151.85,151.85,0,0,1,19-1.05c5.91,0,11.79.22,17.59,0.44l5,0.19a57.6,57.6,0,0,0,.73-5.89C964.64,572.28,919.44,575.55,876.77,586Z" transform="translate(-246.57 -30.67)"/><path class="cls-11" d="M492.57,585.75A546.43,546.43,0,0,1,420.2,583q2.27,3.47,4.75,7c4.92-.07,9.82-0.32,14.81-0.6C457.31,588.34,475,587.13,492.57,585.75Z" transform="translate(-246.57 -30.67)"/><path class="cls-11" d="M407.9,542.49c12.2,1.91,24.81,3.88,37.27,4.92,9.51,0.79,19.26,1.06,28.69,1.32,6.8,0.19,13.84.38,20.75,0.77,14.54,0.82,29.19,2.54,43.36,4.2,18.91,2.22,38.45,4.51,57.86,4.67,15.18,0.12,30.51-1,45.37-2.18,12.76-1,26-2,39-2.17,5-.07,10,0,14.91,0,12.07,0.1,24.55.22,36.52-1.43a147.57,147.57,0,0,0,23.74-5.44l-70.11-5.3-2.64.47c-4.45.85-9,1.83-13.31,2.78-8.39,1.83-17.06,3.72-25.87,4.77-10.3,1.22-20.34,1.31-32.41,1.29-14.19,0-28.38-.12-42.57-0.23-20.23-.14-41.14-0.29-60.87-4.92-3.4-.79-6.78-1.73-10.06-2.64-2.8-.77-5.64-1.55-8.52-2.25h8.15l1.16,0.32c3.25,0.9,6.61,1.83,9.95,2.61,19.41,4.55,40.15,4.7,60.21,4.84,14.18,0.1,28.37.2,42.55,0.23,12,0,21.91-.06,32-1.27,8.67-1,17.27-2.9,25.59-4.72,2.88-.63,5.84-1.26,8.8-1.86l-40.11-3-1.51.57h-5.81l2.42-.94-29-2.19c-5.28,1.08-10.59,2.13-15.93,3.14H575.87c6.69-1.14,13.33-2.41,19.94-3.71L550,531.64l-35,7.18H504.77l37.74-7.75-13.21-1-2.76-6c-21.91,5.55-44.16,10.92-66.78,14.77H446.17c27-3.81,53.49-10.11,79.5-16.69l-3.55-7.76A854,854,0,0,1,396.35,533.7q1.2,3.62,2.62,7.43h0.14Zm146.34-1.36c22.15,2.13,41.92,2.15,59.56,0h13.27c-25.23,4.87-55.05,4.85-90.42,0h17.59Z" transform="translate(-246.57 -30.67)"/><path class="cls-11" d="M779,499.95l-3.34,7.25L859.76,510c48.49,1.63,98.62,3.32,147.24,9.92,4.76,0.65,9.56,1.35,14.33,2.06a56.67,56.67,0,0,1,7.08-6.4C966.72,506.45,903,504.23,841.25,502.1Z" transform="translate(-246.57 -30.67)"/><path class="cls-11" d="M848.93,577.36c-14.46,4-29.42,8.15-44.76,10.73-23,3.86-46.75,4.23-67.26,4.27-10.29,0-20.63-.1-31-0.27,1.71,0.08,3.42.16,5.13,0.26,6.24,0.38,12.59.92,18.72,1.44,16.41,1.4,33.38,2.85,49.88,1.21,9.67-1,19.19-3,28.4-4.94l59.2-12.57c32.44-6.89,66-14,100.09-17.32,13.63-1.33,27.35-2,41.08-2.33a51,51,0,0,1,.28-9.26A840.35,840.35,0,0,0,860.82,574.1C856.85,575.16,852.89,576.26,848.93,577.36Z" transform="translate(-246.57 -30.67)"/><path class="cls-11" d="M1000.56,537.45c-12.2-1.91-24.81-3.88-37.27-4.92-9.51-.79-19.26-1.06-28.69-1.32-6.8-.19-13.84-0.38-20.75-0.77-14.54-.82-29.19-2.54-43.36-4.2-18.91-2.22-38.45-4.51-57.86-4.67-14.92-.12-30,1-44.6,2.12L765.1,530c10.27-1.21,20.27-1.3,32.31-1.28,14.19,0,28.38.12,42.57,0.23,20.23,0.14,41.14.29,60.87,4.92,3.4,0.79,6.78,1.73,10.06,2.64,2.8,0.78,5.64,1.55,8.52,2.25h-8.15l-1.16-.32c-3.25-.9-6.61-1.83-9.95-2.61C880.76,531.33,860,531.18,840,531c-14.18-.1-28.37-0.2-42.55-0.23-12,0-21.91.06-32,1.27l-1.27.17-6.57,14.26c5-1.61,10-3.43,15.09-5.38h5.81c-15.6,6.19-30.29,11.29-46.35,13.5-12.19,1.68-24.78,1.56-37,1.46-4.87,0-9.9-.09-14.84,0-13,.19-26.12,1.19-38.84,2.16-8.92.68-18,1.37-27.18,1.79,9.34-.16,18.79-0.19,28.14.28,5.85,0.29,11.72.7,17.39,1.09,19.33,1.33,37.58,2.58,56.63,0,22.5-3.08,44.93-7.87,66.62-12.49,12.47-2.66,25.12-5.34,37.91-7.74H832.6c-16.55,2.83-32.9,6.3-48.94,9.72-21.74,4.64-44.23,9.44-66.83,12.53-19.36,2.65-37.76,1.39-57.25,0-5.66-.39-11.51-0.79-17.34-1.08-12.95-.65-26.18-0.34-39-0.05-3.8.09-7.59,0.18-11.39,0.24-65.14,1.1-129.19-4.73-188.78-11.23q1.56,3.58,3.33,7.26c47,6.08,95.49,7.72,142.39,9.3l110.81,3.74c14.82,0.5,30.15,1,45.05-.56,7.06-.74,14.14-2,21-3.17,4.2-.73,8.55-1.49,12.87-2.13,10.54-1.56,21.38-2.5,31.86-3.41,8.13-.7,16.54-1.43,24.73-2.45,17.44-2.16,34.77-5.72,51.53-9.16l46.78-9.6H903.7l-56.45,11.58c-16.82,3.45-34.2,7-51.76,9.19-8.25,1-16.68,1.75-24.84,2.46-10.44.9-21.23,1.84-31.68,3.39-4.28.64-8.61,1.39-12.79,2.12-6.9,1.2-14,2.44-21.18,3.2-15.12,1.6-30.55,1.08-45.47.58L548.71,569.9c-46.49-1.57-94.49-3.2-141.21-9.14q1.88,3.79,4,7.67c51.72,5.82,104.37,7.64,155.71,9.41L691,582.11c16.26,0.56,33.07,1.14,49.57.45,44.16-1.86,87.15-12.85,128.73-23.47,25.95-6.63,52.4-13.38,79.35-18H962.3c-31.39,4.43-62.13,12.24-92.21,19.92-41.72,10.66-84.86,21.68-129.34,23.56-16.61.7-33.49,0.12-49.8-.44l-123.84-4.27c-50.89-1.76-103.07-3.57-154.4-9.27q2.82,5,6.08,10.14a540.64,540.64,0,0,0,75.2,2.92l6.61-.23c13.45-.49,27.35-1,40.58,1.48l0.65,0.12,0.23,0.52a3.77,3.77,0,0,1-.36,3.82c-1.89,2.81-7.16,4.6-11.09,5.27-22.12,3.79-45.1,3.86-67.32,3.94-10.55,0-21.22.07-31.92-.08,1.08,1.38,2.19,2.77,3.33,4.15a1023.29,1023.29,0,0,0,102.47-3.93,178.89,178.89,0,0,0,23.23-3.18c3.24-.73,6.48-1.64,9.61-2.52,2.69-.76,5.47-1.54,8.26-2.21,21.82-5.24,45.35-4,68.11-2.85l4.13,0.21c28.64,1.46,57.71,2.17,86.41,2.1,20.38,0,44-.41,66.77-4.23,15.2-2.55,30.08-6.67,44.47-10.66,4-1.1,7.94-2.2,11.91-3.27a843.82,843.82,0,0,1,149-25.66,46.59,46.59,0,0,1,1.51-6.34c0.14-.46.3-0.9,0.46-1.34h-1.65Zm-146.34,1.36c-22.15-2.13-41.92-2.15-59.55,0H781.4c25.23-4.87,55.05-4.85,90.42,0H854.22Z" transform="translate(-246.57 -30.67)"/><path class="cls-11" d="M995.71,584.62a87.06,87.06,0,0,0-19.35,1.77c-3.28.76-6.5,1.85-9.61,2.9s-6.14,2.08-9.37,2.86c-7.6,1.84-15.63,2.16-23.39,2.46l-39.29,1.56c-8.4.34-17,.68-25.39,1.85A138.33,138.33,0,0,0,889,599.17c2.38,0,4.76,0,7.14-.05l35.19-.4c10.54-.12,21.43-0.24,31.8-2.12,8-1.46,15.87-4,23.44-6.47,5.95-1.93,12-3.91,18.25-5.38l-1,0C1001.12,584.68,998.41,584.62,995.71,584.62Z" transform="translate(-246.57 -30.67)"/><path class="cls-11" d="M1006.37,530.81c-59.86-6.55-124.26-12.46-189.72-11.36l-3.53.07c19.42,0.19,38.89,2.47,57.73,4.68,14.12,1.66,28.72,3.37,43.18,4.18,6.87,0.39,13.88.58,20.67,0.77,9.47,0.26,19.26.53,28.85,1.33,12.56,1,25.23,3,37.48,4.94q5.29,0.83,10.63,1.64a46.08,46.08,0,0,1,2.58-5.42l-6.88-.74Z" transform="translate(-246.57 -30.67)"/><path class="cls-11" d="M439.57,591.39c9,0.45,18.49.81,27.75,0.81a234.38,234.38,0,0,0,41-3.16c2.47-.44,6.34-1.39,7.75-3.18-25.19,2.23-50.78,4.09-76.1,5.52Z" transform="translate(-246.57 -30.67)"/><path class="cls-11" d="M914.48,496.26l-6.61.23c-13.45.49-27.35,1-40.58-1.48l-0.65-.12-0.23-.52a3.77,3.77,0,0,1,.36-3.82c1.55-2.3,5.34-3.91,8.83-4.79q-19.86,1.32-39.95,1.93c-1.79.5-3.61,1-5.44,1.43-15.42,3.71-31.7,4.18-48,3.72l-2.35,5.1,61.45,2.12c62.52,2.16,127,4.41,189.41,13.84a45.61,45.61,0,0,1,6.63-3.87l8.31-1.7c-2.91-.62-5.82-1.24-8.72-1.82A535.93,535.93,0,0,0,914.48,496.26Z" transform="translate(-246.57 -30.67)"/><path class="cls-11" d="M765.52,680.78c-4.73-.47-9.49-1.06-14.1-1.63-5.74-.71-11.68-1.45-17.58-2-8.8-.76-17.85-1-26.62-1.3l-17-.52c4.6,0.43,9.17,1,13.63,1.47l60.8,7.09-5.06,1.37a52.52,52.52,0,0,1-13.73,1.56c-4,0-8-.27-11.34-0.54-9.76-.78-19.64-1.85-29.2-2.88-18.62-2-37.87-4.09-56.92-4.09-3.1,0-6.17.06-9.13,0.16-2,.08-4.1.17-6.19,0.27-4.55.21-9.26,0.44-13.85,0.44-0.94,0-1.82,0-2.71,0,11.86,0.72,23.77,1.18,35.52,1.62,18.26,0.69,37.14,1.41,55.41,3.12,11.47,1.07,23,2.56,34.14,4,10.62,1.37,21.61,2.79,32.51,3.85,34,3.28,69.07,3.18,103,3.08l8.11,0q5.79-2.07,11.27-4.3l-109,.6c-5.44,0-11.65-.17-16.57-2.21l-0.87-.36,0.22-.78c0.83-2.93,5-4.71,8.7-5.39a39.6,39.6,0,0,1,7.32-.57c1.53,0,3.07,0,4.6.1l50.34,1.63q21.85,0.71,43.66,1.34,11.63,0.32,23.26.6,1.94-.9,3.83-1.81-49.31-.74-98.39-1.66C797.83,682.69,781.59,682.39,765.52,680.78Z" transform="translate(-246.57 -30.67)"/><path class="cls-11" d="M791.41,653.82c-13.4-.15-27-0.61-40.16-1-14.82-.49-30.15-1-45.23-1.08-16.32-.08-32.92.31-49,0.7l-78.31,1.9c3.94,2.26,11,2.87,17,3.12,94.4,4,190.6,5.87,283.64,7.67l64.15,1.24q1.56-1.08,3.07-2.17c-29.16-1.08-58.42-1.81-87.51-1.84-6.8,0-15-.52-17.85-4.43l-1-1.33,1.87-.21c12.47-1.42,25.38-1.34,37.85-1.27,8.19,0.05,16.65.1,24.9-.27,15.77-.71,31.43-3,46.58-5.24,5.09-.75,10.26-1.5,15.47-2.2q1.41-1.33,2.76-2.67l-8.71.72C905.6,649.87,848.34,654.47,791.41,653.82Z" transform="translate(-246.57 -30.67)"/><path class="cls-11" d="M1066.77,473.9q-4.81-.73-9.56-1.5c-11-1.77-22.39-3.6-33.7-4.45-5.83-.44-11.69-0.62-17.57-0.62q-19.13,4.44-39,7.84a1024.68,1024.68,0,0,1,102.6,5.65Z" transform="translate(-246.57 -30.67)"/><path class="cls-11" d="M1060.11,457.26q-8.45.13-16.9,0.14-5.77,1.75-11.64,3.38l30.72,1.91Z" transform="translate(-246.57 -30.67)"/><path class="cls-11" d="M1057.69,470.39l8.2,1.29-2.76-6.88-37.65-2.35q-5.72,1.53-11.52,3c3.26,0.1,6.52.26,9.77,0.5C1035.17,466.77,1046.62,468.61,1057.69,470.39Z" transform="translate(-246.57 -30.67)"/><path class="cls-11" d="M512.88,608.51c3.18,0.26,6.41.59,9.67,0.92,15.61,1.58,31.74,3.22,44.64-2.57,1.8-.81,3.54-1.77,5.23-2.71a57.22,57.22,0,0,1,7-3.47c5.72-2.22,12.41-2.86,18.31-3.43,29.09-2.78,59-5.61,88.86-5.6-12.12-.34-24.22-0.79-36.25-1.4l-4.14-.21c-22.54-1.16-45.85-2.37-67.25,2.77-2.74.66-5.49,1.44-8.15,2.19-3.17.89-6.44,1.81-9.76,2.56a181.78,181.78,0,0,1-23.62,3.24q-50.41,4.48-101,4,2.51,3,5.2,6l6.43-.51C469.32,608.5,491.31,606.74,512.88,608.51Z" transform="translate(-246.57 -30.67)"/><path class="cls-11" d="M554.41,655.6c4-.72,7.3-2.07,8.13-3.37a1,1,0,0,0,.07-1c-0.7-1.43-4.15-2.27-9.47-2.32s-11,0-16.42.14c-12,.2-24.47.42-36.49-1-5.35-.61-10.64-1.55-15.76-2.45l-4.88-.85q9.8,7.16,21,13.93C518.69,658.79,537.16,658.67,554.41,655.6Z" transform="translate(-246.57 -30.67)"/><path class="cls-11" d="M825.91,487.94q-20.73.47-41.53,0.29l-1.19,2.59C797.68,491.18,812.15,490.77,825.91,487.94Z" transform="translate(-246.57 -30.67)"/><path class="cls-11" d="M1058.24,452.58q-4.16,1.41-8.37,2.74,4.72,0,9.43-.1Z" transform="translate(-246.57 -30.67)"/><path class="cls-11" d="M463.28,596.56c22.1-.07,44.95-0.15,66.82-3.89,3.69-.63,8-2.2,9.42-4.26a2.07,2.07,0,0,0,.37-1.61,124.92,124.92,0,0,0-20.95-1.68c-0.51,2.78-4,4.83-10.14,5.93a237,237,0,0,1-41.49,3.21c-13.62,0-27.67-.77-40.07-1.46H427q1.35,1.84,2.76,3.68C441,596.63,452.21,596.6,463.28,596.56Z" transform="translate(-246.57 -30.67)"/><path class="cls-11" d="M1039.19,485.68c7.11,1,14.27,2.36,21.2,3.62,4.46,0.82,9,1.63,13.51,2.39l-3.5-8.74a1021.87,1021.87,0,0,0-116-5.74q-16,2.48-32.35,4.35c7.76-.18,15.49-0.21,23.13-0.23C976.17,481.23,1008.21,481.12,1039.19,485.68Z" transform="translate(-246.57 -30.67)"/><path class="cls-11" d="M905,656.86c-8.33.38-16.83,0.32-25.06,0.27-11.58-.07-23.53-0.15-35.08,1,3.73,2.14,11.41,2.15,14.2,2.15,30,0,60.14.8,90.17,1.94,5.44-4,10.45-8.2,15.06-12.4-4.17.58-8.32,1.18-12.41,1.78C936.67,653.82,920.94,656.13,905,656.86Z" transform="translate(-246.57 -30.67)"/><path class="cls-11" d="M593.33,685.11c-16.48-1.77-33.34-3.57-50.27-5.1q9.34,3.9,19.44,7.48c1.22,0.12,2.45.26,3.67,0.36,6.52,0.56,13.24.9,19.73,1.24,9,0.46,18.27.94,27.23,2,8.59,1,17,2.57,25.12,4.08,6.37,1.18,13,2.41,19.57,3.35,13.35,1.91,27.42,2.78,41,3.62l4,0.25c38.48,2.41,77,5.68,115.1,9.73q5.31-.77,10.44-1.65c-6.56-.75-13.14-1.49-19.7-2.18-2.22-.24-4.5-0.52-6.79-0.8-5.42-.67-11-1.36-16.34-1.48-3.7-.08-7.56,0-11.29,0-3.18,0-6.37.06-9.52,0-2.46,0-5-.07-7.48-0.32a70,70,0,0,1-8-1.41,11.64,11.64,0,0,1-3.13-1c-1.4-.79-1.87-2-1.15-3,0.9-1.24,3.1-1.45,4.92-1.5q2.24-.06,4.43-0.05c7.42,0,14.44.44,21.8,0.91,2.75,0.17,5.51.35,8.32,0.5l1.41,0.08c13,0.7,25.2,1.36,37.75,3,2.23,0.3,4.45.61,6.68,0.93,5.32,0.76,10.82,1.55,16.31,2,0.83,0.07,1.67.11,2.5,0.17q9.08-2.1,17.56-4.54c-80.44-1.52-160.89-5.25-240.23-13.18C615.41,687.48,604.37,686.29,593.33,685.11Z" transform="translate(-246.57 -30.67)"/><path class="cls-11" d="M722.84,713.13c-7.15-.13-14.54-0.26-21.78-0.65-11.78-.65-23.51-2-34.85-3.37-7.14-.84-14.52-1.71-21.83-2.39l-4.84-.43c-3.62-.31-7.32-0.65-11-1.07q18.55,3.6,39,6.18c19.25,2.4,37.49,3.94,54.78,4.73,6.76,0.09,13.6.2,20.34,0.59q12.86,0.15,25-.26a161.34,161.34,0,0,0-18.18-2.36C740.71,713.45,731.63,713.29,722.84,713.13Z" transform="translate(-246.57 -30.67)"/><path class="cls-11" d="M698.66,704.17c-13.66-.85-27.79-1.72-41.27-3.65-6.67-1-13.29-2.18-19.69-3.37-8.08-1.5-16.43-3.05-24.92-4.05-8.86-1-18.1-1.52-27-2-5-.26-10.13-0.52-15.22-0.88q4.33,1.43,8.81,2.8c13.32,1.28,26.84,2.67,40.18,4.35l7.7,1c24.6,3.13,50,6.36,75.64,7.85,4.91,0.29,9.83.51,14.75,0.73,6.24,0.28,12.68.57,19,1,19.58,1.3,38.71,3.9,57.46,6.92q7.81-.69,15.28-1.61c-35.37-3.64-71-6.6-106.67-8.83Z" transform="translate(-246.57 -30.67)"/><path class="cls-11" d="M823.27,705.2c-12.43-1.66-24.61-2.31-37.51-3l-1.41-.08c-2.82-.15-5.6-0.33-8.35-0.5-8.74-.55-17-1.09-26-0.85-2.47.06-2.82,0.45-2.85,0.5s0.14,0.15.42,0.31a9.6,9.6,0,0,0,2.37.74,67.69,67.69,0,0,0,7.62,1.35c2.35,0.24,4.82.27,7.2,0.31,3.14,0,6.3,0,9.46,0,3.75,0,7.64-.07,11.39,0,5.47,0.12,11.15.83,16.64,1.51,2.28,0.28,4.53.56,6.74,0.79,8.78,0.93,17.61,1.93,26.37,3q3.59-.68,7.09-1.42c-4.25-.47-8.47-1.06-12.57-1.65C827.7,705.81,825.49,705.49,823.27,705.2Z" transform="translate(-246.57 -30.67)"/><path class="cls-11" d="M841.11,686.56l-50.36-1.63c-1.49-.05-3-0.1-4.5-0.1a36.78,36.78,0,0,0-6.77.52c-3.06.57-5.49,1.77-6.45,3.11,4.28,1.47,9.66,1.6,14.42,1.6h1.8l112.16-.61,2.41-1q-9.53-.24-19.06-0.49Q862.92,687.31,841.11,686.56Z" transform="translate(-246.57 -30.67)"/><path class="cls-11" d="M717.47,709c-4.93-.22-9.87-0.45-14.79-0.73-25.71-1.5-51.19-4.74-75.84-7.87l-7.7-1c-9.68-1.22-19.45-2.28-29.18-3.27q6,1.67,12.19,3.22c2.67,0.23,5.35.5,8,.87s5,0.8,7.38,1.23c1.91,0.35,3.82.69,5.76,1,5.38,0.83,11.06,1.33,16.55,1.8l4.85,0.43c7.35,0.68,14.75,1.55,21.9,2.4,11.29,1.33,23,2.71,34.66,3.35,7.18,0.4,14.55.53,21.67,0.65,8.83,0.16,18,.32,26.86,1a146.57,146.57,0,0,1,25.8,4.06q4.88-.24,9.63-0.57c-16-2.43-32.23-4.47-48.78-5.58C730.12,709.57,723.69,709.28,717.47,709Z" transform="translate(-246.57 -30.67)"/><path class="cls-12" d="M593.66,683.08c-18.55-2-37.58-4-56.64-5.66q3,1.31,6.06,2.59c16.92,1.52,33.79,3.33,50.27,5.1,11,1.19,22.08,2.37,33.14,3.48,79.34,7.93,159.79,11.66,240.23,13.18q3.26-.94,6.43-1.93c-82.5-1.45-165-5.16-246.36-13.28C615.72,685.45,604.69,684.27,593.66,683.08Z" transform="translate(-246.57 -30.67)"/><path class="cls-12" d="M516.9,667.79c137.89,0.75,275.29,4.46,410.52,8.7q1.68-1,3.32-1.94c-137.59-4.32-277.41-8.12-417.77-8.84Q514.92,666.75,516.9,667.79Z" transform="translate(-246.57 -30.67)"/><path class="cls-12" d="M765.82,678.75c-4.69-.47-9.44-1.06-14-1.63-5.77-.72-11.74-1.46-17.69-2-8.88-.77-18-1-26.81-1.31L565.4,669.54h-0.47c-3.18,0-7.74.91-8.76,2.76a1.85,1.85,0,0,0,.62,2.38l0.25,0.21,0.35,0.07c30.2,6.44,62.91,7.68,94.55,8.89,18.22,0.69,37.06,1.41,55.24,3.11,11.42,1.06,22.92,2.55,34,4,10.65,1.38,21.66,2.8,32.61,3.86,34.16,3.29,69.3,3.2,103.28,3.09h2.14q3-1,6-2.06l-8.11,0c-33.91.11-69,.2-103-3.08-10.9-1.05-21.89-2.47-32.51-3.85-11.14-1.44-22.67-2.93-34.14-4-18.27-1.7-37.15-2.42-55.41-3.12-11.76-.45-23.66-0.9-35.52-1.62,0.89,0,1.77,0,2.71,0,4.59,0,9.3-.22,13.85-0.44,2.08-.1,4.15-0.2,6.19-0.27,3-.11,6-0.16,9.13-0.16,19,0,38.3,2.08,56.92,4.09,9.56,1,19.44,2.1,29.2,2.88,3.38,0.27,7.37.54,11.34,0.54a52.52,52.52,0,0,0,13.73-1.56l5.06-1.37-60.8-7.09c-4.46-.52-9-1-13.63-1.47l17,0.52c8.76,0.27,17.82.54,26.62,1.3,5.89,0.51,11.83,1.24,17.58,2,4.61,0.57,9.37,1.16,14.1,1.63,16.07,1.6,32.31,1.91,48,2.21q49,0.93,98.39,1.66,2-1,4-2-51.3-.76-102.35-1.73C797.95,680.65,781.77,680.34,765.82,678.75Zm-207.35-5.68c0.43-.59,3.65-1.64,6.84-1.49l78.91,2.4-18.53-.2c-3.22,0-6.45-.07-9.67-0.07-8.2,0-14.41.23-20.16,0.75l-4,.36,3.5,1.56a43,43,0,0,0,12.3,3.2A371.84,371.84,0,0,1,558.47,673.07Zm145,5.8,48.61,5.67a108.32,108.32,0,0,1-17.33-.26c-9.72-.77-19.58-1.84-29.11-2.87-18.7-2-38-4.11-57.24-4.11-3.14,0-6.25.06-9.25,0.17-2,.07-4.12.17-6.21,0.27-4.52.21-9.19,0.43-13.71,0.43-7.53,0-13.48-.65-18.31-2,4.38-.26,9.22-0.38,15.1-0.38,3.22,0,6.43,0,9.64.07l33.85,0.36c8,0.09,16.37.18,24.48,0.73C690.55,677.37,697.12,678.13,703.48,678.88Z" transform="translate(-246.57 -30.67)"/><path class="cls-12" d="M841.18,684.52l-50.34-1.63c-1.52,0-3.06-.1-4.6-0.1a39.6,39.6,0,0,0-7.32.57c-3.66.68-7.87,2.46-8.7,5.39l-0.22.78,0.87,0.36c4.92,2,11.13,2.21,16.57,2.21l109-.6q2.51-1,4.94-2.07l-112.16.61h-1.8c-4.76,0-10.14-.13-14.42-1.6,1-1.34,3.39-2.53,6.45-3.11a36.78,36.78,0,0,1,6.77-.52c1.5,0,3,0,4.5.1l50.36,1.63q21.82,0.71,43.65,1.34,9.53,0.26,19.06.49,2.17-1,4.29-1.94-11.63-.29-23.26-0.6Q863,685.26,841.18,684.52Z" transform="translate(-246.57 -30.67)"/><path class="cls-12" d="M742.72,716.72c-6.74-.38-13.59-0.5-20.34-0.59Q732.78,716.61,742.72,716.72Z" transform="translate(-246.57 -30.67)"/><path class="cls-12" d="M698.85,702.13c-13.6-.84-27.67-1.71-41-3.62-6.62-.95-13.2-2.17-19.57-3.35-8.13-1.51-16.53-3.07-25.12-4.08-9-1.06-18.25-1.53-27.23-2-6.49-.33-13.21-0.68-19.73-1.24-1.22-.1-2.44-0.24-3.67-0.36,2.64,0.93,5.3,1.85,8,2.75,5.09,0.36,10.22.63,15.22,0.88,8.93,0.46,18.17.93,27,2,8.49,1,16.85,2.55,24.92,4.05,6.4,1.19,13,2.42,19.69,3.37,13.47,1.93,27.6,2.8,41.27,3.65l4,0.25c35.65,2.23,71.3,5.19,106.67,8.83q4.37-.54,8.62-1.15c-38.13-4-76.62-7.31-115.1-9.73Z" transform="translate(-246.57 -30.67)"/><path class="cls-12" d="M717.6,707c-4.92-.22-9.84-0.45-14.75-0.73-25.6-1.49-51-4.72-75.64-7.85l-7.7-1c-13.34-1.69-26.86-3.07-40.18-4.35q5.21,1.6,10.62,3.11c9.73,1,19.5,2,29.18,3.27l7.7,1c24.65,3.13,50.13,6.38,75.84,7.87,4.92,0.29,9.86.51,14.79,0.73,6.22,0.28,12.65.57,18.94,1,16.55,1.1,32.8,3.14,48.78,5.58q4.49-.31,8.88-0.69c-18.74-3-37.88-5.62-57.46-6.92C730.29,707.53,723.84,707.24,717.6,707Z" transform="translate(-246.57 -30.67)"/><path class="cls-12" d="M722.9,711.09c-7.12-.13-14.49-0.25-21.67-0.65-11.69-.64-23.37-2-34.66-3.35-7.16-.84-14.56-1.72-21.9-2.4l-4.85-.43c-5.49-.48-11.16-1-16.55-1.8-1.94-.3-3.85-0.64-5.76-1-2.4-.43-4.87-0.88-7.38-1.23s-5.3-.63-8-0.87q12.7,3.18,26.41,5.85c3.66,0.42,7.36.76,11,1.07l4.84,0.43c7.31,0.68,14.69,1.55,21.83,2.39,11.34,1.34,23.06,2.72,34.85,3.37,7.24,0.4,14.63.53,21.78,0.65,8.79,0.15,17.87.31,26.68,1a161.34,161.34,0,0,1,18.18,2.36c2.65-.09,5.26-0.2,7.85-0.33a146.57,146.57,0,0,0-25.8-4.06C740.85,711.4,731.72,711.25,722.9,711.09Z" transform="translate(-246.57 -30.67)"/><path class="cls-12" d="M830.34,704.11c-2.22-.32-4.45-0.63-6.68-0.93-12.55-1.67-24.79-2.33-37.75-3l-1.41-.08c-2.81-.15-5.58-0.33-8.32-0.5-7.36-.47-14.38-0.91-21.8-0.91q-2.19,0-4.43.05c-1.82,0-4,.25-4.92,1.5-0.72,1-.24,2.24,1.15,3a11.64,11.64,0,0,0,3.13,1,70,70,0,0,0,8,1.41c2.48,0.26,5,.29,7.48.32,3.15,0,6.34,0,9.52,0,3.73,0,7.59-.07,11.29,0,5.32,0.12,10.92.81,16.34,1.48,2.29,0.28,4.57.56,6.79,0.8,6.56,0.69,13.14,1.43,19.7,2.18q3.53-.61,7-1.26c-8.76-1-17.58-2-26.37-3-2.21-.23-4.46-0.51-6.74-0.79-5.49-.68-11.17-1.38-16.64-1.51-3.75-.08-7.63,0-11.39,0-3.16,0-6.32.06-9.46,0-2.38,0-4.85-.06-7.2-0.31A67.69,67.69,0,0,1,750,702.3a9.6,9.6,0,0,1-2.37-.74c-0.29-.16-0.39-0.34-0.42-0.31s0.38-.44,2.85-0.5c9-.24,17.22.3,26,0.85,2.75,0.17,5.53.35,8.35,0.5l1.41,0.08c12.9,0.7,25.08,1.35,37.51,3,2.22,0.3,4.44.61,6.65,0.93,4.11,0.59,8.32,1.18,12.57,1.65q3.37-.71,6.66-1.47c-0.83-.06-1.67-0.1-2.5-0.17C841.16,705.66,835.66,704.87,830.34,704.11Z" transform="translate(-246.57 -30.67)"/><path class="cls-12" d="M554.94,657.59c1.85-.33,8-1.62,9.8-4.41a2.7,2.7,0,0,0,.18-2.77c-1.14-2.33-5.1-3.54-11.75-3.6-5.49-.06-11.09,0-16.5.14-11.93.2-24.27,0.42-36.1-.94-5.26-.6-10.51-1.53-15.58-2.42-2.94-.52-6-1-9-1.51q1.77,1.34,3.59,2.67l4.88,0.85c5.12,0.9,10.41,1.83,15.76,2.45,12,1.38,24.46,1.16,36.49,1,5.39-.09,11-0.19,16.42-0.14s8.77,0.89,9.47,2.32a1,1,0,0,1-.07,1c-0.84,1.3-4.1,2.65-8.13,3.37-17.25,3.07-35.72,3.2-53.79,3.09q1.72,1,3.49,2.06C521.18,660.81,538.55,660.51,554.94,657.59Z" transform="translate(-246.57 -30.67)"/><path class="cls-12" d="M819.34,644.75c-93.37,1.74-188,.95-281.19-2.36-11.63-.41-21.3-0.82-31.12-2-7-.84-14.06-2.09-20.85-3.3-5.37-1-10.93-1.95-16.49-2.74-1.33-.19-2.67-0.34-4-0.51q1.46,1.23,3,2.44l0.62,0.08c5.51,0.78,11,1.76,16.39,2.72,6.83,1.22,13.89,2.47,21,3.33,9.93,1.19,19.67,1.6,31.37,2,93.27,3.31,187.94,4.1,281.36,2.36,59.25-1.11,108.81-3.19,157.51-9.64Q978,636,979,634.82l-0.6.08C929.21,641.53,879.24,643.63,819.34,644.75Z" transform="translate(-246.57 -30.67)"/><path class="cls-12" d="M791.44,651.77c-13.37-.15-27-0.6-40.1-1-14.84-.49-30.19-1-45.31-1.08-16.36-.08-33,0.31-49.24.7l-83.37,2,1.34,1.56c3.66,4.24,12.59,5.18,20.83,5.52,94.43,4,190.65,5.87,283.78,7.67l61.21,1.18q1.48-1,2.92-2l-64.15-1.24c-93-1.8-189.24-3.66-283.64-7.67-6-.26-13-0.86-17-3.12L657,652.4c16.05-.39,32.65-0.78,49-0.7,15.08,0.08,30.41.59,45.23,1.08,13.15,0.44,26.76.89,40.16,1,56.94,0.65,114.19-3.94,169.57-8.39l8.71-.72q1.14-1.13,2.25-2.26c-3.76.33-7.51,0.64-11.21,0.94C905.43,647.83,848.23,652.41,791.44,651.77Z" transform="translate(-246.57 -30.67)"/><path class="cls-12" d="M904.88,654.81c-8.25.37-16.72,0.32-24.9,0.27-12.47-.08-25.38-0.16-37.85,1.27l-1.87.21,1,1.33c2.87,3.91,11,4.42,17.85,4.43,29.09,0,58.35.75,87.51,1.84q1.35-1,2.66-1.95c-30-1.14-60.19-1.91-90.17-1.94-2.79,0-10.47,0-14.2-2.15,11.55-1.14,23.5-1.06,35.08-1,8.22,0,16.73.1,25.06-.27,15.92-.72,31.66-3,46.88-5.26,4.09-.6,8.24-1.2,12.41-1.78q1.33-1.22,2.62-2.44c-5.21.7-10.39,1.46-15.47,2.2C936.31,651.8,920.65,654.1,904.88,654.81Z" transform="translate(-246.57 -30.67)"/><path class="cls-12" d="M760.31,639.7c-70.29,1.66-141.73-3.48-210.82-8.45-30.91-2.22-62.21-4.46-93.68-6.12,0.78,0.73,1.57,1.45,2.37,2.17,30.6,1.64,61,3.82,91.09,6,69.16,5,140.68,10.12,211.11,8.46,34.49-.81,69.42-3.28,103.2-5.66l121.35-8.55q0.84-1.09,1.64-2.17l-123.2,8.68C829.62,636.43,794.73,638.89,760.31,639.7Z" transform="translate(-246.57 -30.67)"/><path class="cls-12" d="M859.76,620.92c-14.42.78-29.34,1.59-43.8,4.3-5.49,1-11,2.35-16.3,3.63-6.05,1.46-12.32,3-18.55,4-19.31,3.3-39.62,2.61-57.53,2-90.19-3.07-181.23-7.86-271.37-13.2,0.75,0.73,1.52,1.46,2.28,2.19,89.36,5.28,179.59,10,269,13.06,18.06,0.61,38.53,1.31,58.14-2,6.33-1.08,12.64-2.6,18.74-4.06,5.28-1.27,10.74-2.58,16.16-3.6,14.27-2.68,29.08-3.48,43.4-4.26l133.26-7.22q0.67-1.06,1.31-2.12l-1.14.06Z" transform="translate(-246.57 -30.67)"/><path class="cls-12" d="M866.54,586.49c-9.51,2.46-19.34,5-29.37,6.38-4.32.59-8.79,1-13.11,1.35a178.47,178.47,0,0,0-19.79,2.45c-5.31,1.07-10.47,2.63-15.45,4.13a146.81,146.81,0,0,1-17.17,4.44c-12.62,2.21-26,1.22-38.91.27l-3.92-.29a745.64,745.64,0,0,0-147.24,4.13l-1,.13,0,0.86c-0.06,3,3.9,5.08,10.59,5.51l116.16,7.47c19.47,1.25,39.6,2.54,59.47,1.35,15.64-.94,31.32-3.44,46.49-5.86,23.19-3.7,47.17-7.53,71-5.68,4.72,0.37,9.52,1,14.17,1.54,10.31,1.28,21,2.6,31.52,1.54,8.38-.85,16.32-3.17,24-5.41,4.84-1.42,9.85-2.88,14.89-3.95,10.13-2.15,20.81-2.82,31.24-3.35q0.52-1.06,1-2.1c-10.91.55-22.14,1.19-32.87,3.47-5.15,1.09-10.21,2.57-15.1,4-7.56,2.21-15.37,4.49-23.48,5.31-10.22,1-20.7-.27-30.84-1.53-4.68-.58-9.52-1.18-14.31-1.55-24.14-1.87-48.3,2-71.67,5.71-15.1,2.41-30.71,4.9-46.2,5.83-19.68,1.19-39.71-.1-59.09-1.35l-116.16-7.47c-3.32-.21-7.11-1-8.07-2.61a742.87,742.87,0,0,1,145.36-3.95l3.91,0.29c13.11,1,26.67,2,39.65-.31a149.07,149.07,0,0,0,17.51-4.52c4.92-1.49,10-3,15.18-4.07a176.71,176.71,0,0,1,19.45-2.41c4.36-.38,8.86-0.76,13.26-1.37,10.2-1.39,20.12-4,29.71-6.45,3.16-.82,6.31-1.64,9.49-2.41,42.67-10.48,87.86-13.75,132.63-13.77q0.07-1,.1-2c-45,0-90.46,3.3-133.44,13.85C872.88,584.85,869.71,585.67,866.54,586.49Z" transform="translate(-246.57 -30.67)"/><path class="cls-12" d="M848.14,575.42c-14.39,4-29.27,8.1-44.47,10.66-22.73,3.82-46.38,4.19-66.77,4.23-28.69.06-57.77-.65-86.41-2.1l-4.13-.21c-22.76-1.18-46.29-2.4-68.11,2.85-2.8.67-5.57,1.46-8.26,2.21-3.13.88-6.37,1.79-9.61,2.52a178.89,178.89,0,0,1-23.23,3.18,1023.29,1023.29,0,0,1-102.47,3.93c0.57,0.69,1.15,1.38,1.73,2.07q50.51,0.5,101-4A181.78,181.78,0,0,0,561,597.54c3.32-.75,6.59-1.67,9.76-2.56,2.66-.75,5.41-1.53,8.15-2.19,21.4-5.14,44.71-3.93,67.25-2.77l4.14,0.21c12,0.61,24.13,1.06,36.25,1.4-29.89,0-59.76,2.83-88.86,5.6-5.9.57-12.59,1.2-18.31,3.43a57.22,57.22,0,0,0-7,3.47c-1.68.94-3.42,1.9-5.23,2.71-12.9,5.79-29,4.15-44.64,2.57-3.25-.33-6.49-0.66-9.67-0.92-21.58-1.77-43.56,0-64.82,1.69l-6.43.51c0.58,0.64,1.15,1.28,1.74,1.92l4.93-.39c21.14-1.69,43-3.43,64.33-1.69,3.16,0.26,6.37.59,9.61,0.91,16,1.63,32.53,3.3,46.14-2.81,1.91-.85,3.7-1.85,5.43-2.81a54.11,54.11,0,0,1,6.68-3.32c5.35-2.08,11.54-2.67,17.53-3.24,36.92-3.53,75.1-7.17,112.85-4.9,6.2,0.37,12.53.91,18.65,1.44,16.55,1.42,33.65,2.88,50.44,1.21,9.83-1,19.44-3,28.73-5l59.2-12.57c32.36-6.87,65.82-14,99.76-17.27,13.58-1.32,27.25-2,40.94-2.32-0.07-.69-0.12-1.37-0.16-2-13.73.29-27.44,1-41.08,2.33-34.11,3.31-67.65,10.43-100.09,17.32L808.06,590c-9.21,2-18.73,4-28.4,4.94-16.5,1.64-33.47.19-49.88-1.21-6.13-.53-12.48-1.07-18.72-1.44-1.71-.1-3.42-0.18-5.13-0.26,10.35,0.17,20.69.29,31,.27,20.51,0,44.31-.41,67.26-4.27,15.35-2.58,30.3-6.72,44.76-10.73,4-1.1,7.92-2.19,11.89-3.26a840.35,840.35,0,0,1,147.89-25.53c0.09-.7.2-1.39,0.31-2.07a843.82,843.82,0,0,0-149,25.66C856.07,573.22,852.11,574.32,848.14,575.42Z" transform="translate(-246.57 -30.67)"/><path class="cls-12" d="M463.29,598.61c22.22-.08,45.2-0.15,67.32-3.94,3.93-.67,9.2-2.46,11.09-5.27a3.77,3.77,0,0,0,.36-3.82l-0.23-.52-0.65-.12c-13.23-2.48-27.13-2-40.58-1.48l-6.61.23a540.64,540.64,0,0,1-75.2-2.92c0.47,0.73.93,1.46,1.41,2.2a546.43,546.43,0,0,0,72.37,2.79c-17.59,1.38-35.26,2.6-52.81,3.59-5,.28-9.89.53-14.81,0.6,0.67,0.95,1.35,1.89,2,2.84h0.25c12.4,0.68,26.45,1.46,40.07,1.46A237,237,0,0,0,508.81,591c6.16-1.09,9.63-3.14,10.14-5.93a124.92,124.92,0,0,1,20.95,1.68,2.07,2.07,0,0,1-.37,1.61c-1.39,2.06-5.73,3.63-9.42,4.26-21.87,3.74-44.72,3.82-66.82,3.89-11.07,0-22.28.07-33.52-.1l1.61,2.07C442.07,598.67,452.74,598.64,463.29,598.61Zm45-9.57a234.38,234.38,0,0,1-41,3.16c-9.26,0-18.73-.36-27.75-0.81l0.36,0c25.32-1.43,50.91-3.28,76.1-5.52C514.62,587.65,510.75,588.6,508.28,589Z" transform="translate(-246.57 -30.67)"/><path class="cls-12" d="M690.94,584.16c16.32,0.56,33.19,1.14,49.8.44,44.48-1.87,87.62-12.9,129.34-23.56,30.08-7.68,60.82-15.49,92.21-19.92H948.71c-27,4.59-53.41,11.34-79.35,18-41.57,10.62-84.57,21.61-128.73,23.47-16.5.69-33.31,0.12-49.57-.45l-123.84-4.27c-51.34-1.77-104-3.59-155.71-9.41,0.4,0.73.8,1.46,1.21,2.19,51.33,5.7,103.5,7.51,154.4,9.27Z" transform="translate(-246.57 -30.67)"/><path class="cls-12" d="M659.52,573.64c14.92,0.5,30.36,1,45.47-.58,7.16-.76,14.29-2,21.18-3.2,4.19-.73,8.52-1.48,12.79-2.12,10.45-1.55,21.24-2.48,31.68-3.39,8.16-.71,16.59-1.44,24.84-2.46,17.56-2.17,34.95-5.74,51.76-9.19l56.45-11.58H893.43l-46.78,9.6c-16.76,3.44-34.09,7-51.53,9.16-8.19,1-16.6,1.74-24.73,2.45-10.48.91-21.32,1.85-31.86,3.41-4.31.64-8.66,1.4-12.87,2.13-6.85,1.19-13.93,2.43-21,3.17-14.9,1.58-30.23,1.06-45.05.56l-110.81-3.74c-46.9-1.58-95.35-3.23-142.39-9.3q0.53,1.1,1.08,2.21c46.73,5.94,94.73,7.57,141.21,9.14Z" transform="translate(-246.57 -30.67)"/><path class="cls-12" d="M591.87,562.53c3.8-.06,7.59-0.15,11.39-0.24,12.8-.29,26-0.6,39,0.05,5.83,0.29,11.68.7,17.34,1.08,19.48,1.34,37.89,2.61,57.25,0,22.61-3.1,45.09-7.89,66.83-12.53,16-3.42,32.39-6.89,48.94-9.72H820.94c-12.79,2.4-25.44,5.08-37.91,7.74-21.69,4.63-44.12,9.41-66.62,12.49-19.05,2.61-37.31,1.36-56.63,0-5.67-.39-11.54-0.79-17.39-1.09-9.35-.47-18.81-0.44-28.14-0.28,9.14-.42,18.26-1.11,27.18-1.79,12.72-1,25.87-2,38.84-2.16,4.93-.07,10,0,14.84,0,12.18,0.11,24.77.22,37-1.46,16.06-2.21,30.75-7.31,46.35-13.5H772.6c-5.08,2-10.08,3.77-15.09,5.38l-0.36.79-1.76-.13a147.57,147.57,0,0,1-23.74,5.44c-12,1.65-24.45,1.53-36.52,1.43-4.89,0-9.94-.09-14.91,0-13.06.19-26.26,1.2-39,2.17-14.86,1.13-30.19,2.31-45.37,2.18-19.41-.16-39-2.45-57.86-4.67-14.17-1.66-28.81-3.38-43.36-4.2-6.91-.39-13.95-0.58-20.75-0.77-9.43-.26-19.18-0.53-28.69-1.32-12.46-1-25.07-3-37.27-4.92l-8.79-1.36H399c0.27,0.73.55,1.45,0.83,2.19l7.64,1.18c12.25,1.92,24.92,3.9,37.48,4.94,9.59,0.8,19.39,1.07,28.85,1.33,6.78,0.19,13.8.38,20.67,0.77,14.45,0.81,29.05,2.53,43.18,4.18,18.84,2.21,38.31,4.49,57.73,4.68l-3.53.07c-65.44,1.1-129.82-4.8-189.66-11.35,0.3,0.72.62,1.44,0.93,2.16C462.68,557.8,526.73,563.62,591.87,562.53Z" transform="translate(-246.57 -30.67)"/><path class="cls-12" d="M643.11,547.86c-10.14,1.2-20.08,1.3-32,1.27-14.19,0-28.37-.12-42.55-0.23-20.06-.14-40.8-0.29-60.21-4.84-3.34-.78-6.7-1.71-9.95-2.61l-1.16-.32H489c2.88,0.71,5.72,1.48,8.52,2.25,3.28,0.91,6.66,1.85,10.06,2.64,19.73,4.63,40.65,4.78,60.87,4.92,14.19,0.1,28.38.2,42.57,0.23,12.07,0,22.1-.06,32.41-1.29,8.81-1,17.49-2.94,25.87-4.77,4.35-1,8.85-1.93,13.31-2.78l2.64-.47-7.78-.59c-3,.61-5.92,1.24-8.8,1.86C660.38,545,651.78,546.83,643.11,547.86Z" transform="translate(-246.57 -30.67)"/><path class="cls-12" d="M627.07,541.13H613.79c-17.64,2.15-37.4,2.13-59.56,0H536.64C572,546,601.84,546,627.07,541.13Z" transform="translate(-246.57 -30.67)"/><path class="cls-12" d="M986.12,577.52a151.85,151.85,0,0,0-19,1.05c-6,.75-11.84,2-17.54,3.19-3.36.71-6.84,1.44-10.29,2.06-13.76,2.48-28.28,3.41-42.32,4.3-19.22,1.23-39.1,2.5-57.32,7.78-4.42,1.28-8.76,2.81-13,4.29-5.3,1.86-10.79,3.79-16.41,5.22-18.22,4.61-38.07,4-57.28,3.5-15-.42-30.53-0.86-45.44,1.11-4.28.57-8.67,2.29-8.17,5.42,0.41,2.61,4.08,4.07,9.87,3.89l89.54-2.78a104.66,104.66,0,0,0,16.4-1.38,97.27,97.27,0,0,0,10.5-2.83c1.55-.48,3.1-1,4.66-1.41,20.66-5.88,44.17-5.39,64.92-4.94,8,0.17,16.2.34,24.2,1.2,1.3,0.14,2.6.3,3.9,0.45a92.9,92.9,0,0,0,12.82.94,89.08,89.08,0,0,0,14.83-2l0.47-.09c16.9-3.24,34-6.09,51.06-8.56q0.48-1.11.91-2.2c-17.52,2.52-35.15,5.45-52.53,8.77l-0.47.09a86.83,86.83,0,0,1-14.33,1.92,91,91,0,0,1-12.39-.92c-1.32-.16-2.63-0.32-3.94-0.46-8.13-.87-16.43-1-24.46-1.22-21-.44-44.71-0.95-65.8,5.06-1.59.45-3.16,0.94-4.73,1.43a94.62,94.62,0,0,1-10.19,2.75,101.74,101.74,0,0,1-15.93,1.32l-89.54,2.78c-3.46.11-7.05-.5-7.31-2.1s3-2.73,6.1-3.14c14.67-1.94,30.07-1.5,45-1.08,19.41,0.55,39.48,1.12,58.1-3.59,5.75-1.45,11.29-3.4,16.66-5.29,4.16-1.46,8.47-3,12.81-4.24,17.91-5.2,37.63-6.46,56.69-7.67,14.12-.9,28.73-1.83,42.66-4.35,3.49-.63,7-1.37,10.37-2.08,5.63-1.19,11.45-2.42,17.29-3.15,11.9-1.5,24.19-1,36.08-.59l4.71,0.18c0.14-.69.27-1.36,0.38-2l-5-.19C997.91,577.74,992,577.52,986.12,577.52Z" transform="translate(-246.57 -30.67)"/><path class="cls-12" d="M995.71,582.58a89.84,89.84,0,0,0-20,1.85c-3.42.79-6.7,1.9-9.88,3-3,1-6,2-9.13,2.79-7.32,1.77-15.19,2.08-22.8,2.38l-39.29,1.56c-10.43.42-21.21,0.84-31.52,2.85l-4.73.92L863,599c8.76,2,18.06,2.25,26,2.25,2.39,0,4.79,0,7.17-.05l35.19-.39c10.66-.12,21.68-0.24,32.31-2.17,8.22-1.49,16.15-4.07,23.82-6.57,6.26-2,12.67-4.11,19.21-5.57q0.55-1.89,1-3.7l-3.83-.07C1001.16,582.63,998.43,582.58,995.71,582.58Zm-9.11,7.55c-7.58,2.47-15.42,5-23.44,6.47-10.37,1.88-21.27,2-31.8,2.12l-35.19.4c-2.37,0-4.75.05-7.14,0.05A138.33,138.33,0,0,1,869.32,598c8.36-1.18,17-1.52,25.39-1.85L934,594.62c7.76-.31,15.78-0.63,23.39-2.46,3.24-.78,6.36-1.84,9.37-2.86s6.32-2.14,9.61-2.9a87.06,87.06,0,0,1,19.35-1.77c2.7,0,5.41.05,8.12,0.11l1,0C998.62,586.22,992.55,588.2,986.6,590.13Z" transform="translate(-246.57 -30.67)"/><path class="cls-12" d="M390.81,444.13l5.84-1.11-5.26-1.1-1.14.22c-5.89,1.12-12,2.29-18,3.29-15.52,2.57-31.44,4.19-47.45,5.31l0,2c16.15-1.13,32.21-2.76,47.9-5.35C378.8,446.43,384.91,445.26,390.81,444.13Z" transform="translate(-246.57 -30.67)"/><path class="cls-12" d="M407.51,448.29l8.71-1.29-6-1.2-3.18.47c-27.08,4-54.89,8.13-82.23,7.32v0.6l2.69,1.52c1.43,0,2.87.05,4.3,0.05C357.12,455.78,382.62,452,407.51,448.29Z" transform="translate(-246.57 -30.67)"/><path class="cls-12" d="M376.28,438.69l-6.21-1.36-9.75,1.15c-11.8,1.4-23.76,2.82-35.74,3.78l0,2c12.09-1,24.15-2.37,36-3.79C365.82,439.89,371,439.27,376.28,438.69Z" transform="translate(-246.57 -30.67)"/><path class="cls-12" d="M339.56,430.31q-7.6.5-15.23,0.76l0,2q10.92-.37,21.79-1.24Z" transform="translate(-246.57 -30.67)"/><path class="cls-12" d="M355,433.93c-10,1-20.22,1.81-30.52,2.31l0,2c12.45-.59,24.77-1.67,36.71-2.92Z" transform="translate(-246.57 -30.67)"/><path class="cls-12" d="M1059.3,455.22q-4.72.07-9.43,0.1-3.31,1.06-6.65,2.07,8.45,0,16.9-.14Z" transform="translate(-246.57 -30.67)"/><path class="cls-12" d="M438.57,451.34l-105.62,7.45,3.23,1.82,110.36-7.78Z" transform="translate(-246.57 -30.67)"/><path class="cls-12" d="M1062.29,462.69l-30.72-1.91q-3,.85-6.09,1.67l37.65,2.35Z" transform="translate(-246.57 -30.67)"/><path class="cls-12" d="M497.88,461.77l-9.35-1.54-73.57,4c-21.44,1.16-43.26,2.36-65.09,4.14l3.19,1.81c20.81-1.65,41.61-2.8,62.06-3.91Z" transform="translate(-246.57 -30.67)"/><path class="cls-12" d="M440.3,475.07c5.15-1.09,10.21-2.57,15.1-4,7.56-2.21,15.37-4.49,23.48-5.31a105.56,105.56,0,0,1,21.2.41l-1-2.16a104.79,104.79,0,0,0-20.52-.28c-8.38.85-16.32,3.17-24,5.41-4.84,1.42-9.85,2.88-14.89,3.95-11,2.34-22.68,2.92-34,3.48l-38,1.9,3.33,1.88,34.79-1.74C417.27,478,429.06,477.46,440.3,475.07Z" transform="translate(-246.57 -30.67)"/><path class="cls-12" d="M515.39,499.65l-0.89-1.94c-40.56,8.08-83,10.31-124.86,9.93,0.12,0.66.25,1.35,0.38,2,2.84,0,5.68.05,8.52,0.05C437.79,509.73,477.39,507.25,515.39,499.65Z" transform="translate(-246.57 -30.67)"/><path class="cls-12" d="M1070.4,483l-0.86-2.15a1024.68,1024.68,0,0,0-102.6-5.65q-6.24,1.07-12.55,2.05A1021.87,1021.87,0,0,1,1070.4,483Z" transform="translate(-246.57 -30.67)"/><path class="cls-12" d="M1023.51,467.95c11.31,0.85,22.69,2.68,33.7,4.45q4.75,0.76,9.56,1.5l-0.89-2.22-8.2-1.29c-11.07-1.78-22.52-3.62-34-4.48-3.25-.24-6.51-0.4-9.77-0.5q-4,1-8,1.92C1011.82,467.33,1017.68,467.51,1023.51,467.95Z" transform="translate(-246.57 -30.67)"/><path class="cls-12" d="M518.83,507.16l-0.88-1.93c-25.24,5.2-51,10-77.13,12.52-16.06,1.56-32.23,2.27-48.43,2.44,0.17,0.67.35,1.35,0.53,2,16.1-.18,32.2-0.89,48.19-2.45C467.43,517.22,493.42,512.4,518.83,507.16Z" transform="translate(-246.57 -30.67)"/><path class="cls-12" d="M521.24,512.43a850.88,850.88,0,0,1-125.55,19.25q0.32,1,.66,2a854,854,0,0,0,125.77-19.33Z" transform="translate(-246.57 -30.67)"/><path class="cls-12" d="M830.21,489.1c1.83-.44,3.64-0.93,5.44-1.43q-4.86.15-9.73,0.26c-13.76,2.84-28.23,3.25-42.72,2.87l-0.93,2C798.51,493.28,814.79,492.81,830.21,489.1Z" transform="translate(-246.57 -30.67)"/><path class="cls-12" d="M1060.39,489.31c-6.93-1.27-14.09-2.58-21.2-3.62-31-4.56-63-4.46-94-4.35-7.64,0-15.37.06-23.13,0.23q-23,2.64-46.45,4.19c-3.48.88-7.28,2.49-8.83,4.79a3.77,3.77,0,0,0-.36,3.82l0.23,0.52,0.65,0.12c13.23,2.48,27.13,2,40.58,1.48l6.61-.23A535.93,535.93,0,0,1,1037,506.5c2.89,0.59,5.81,1.2,8.72,1.82l5.09-1-1.9-.4c-3.78-.8-7.55-1.6-11.31-2.36a539.73,539.73,0,0,0-121.7-10.32c17.59-1.38,35.26-2.6,52.81-3.59,5.9-.33,11.69-0.63,17.52-0.63a106.44,106.44,0,0,1,19.4,1.56c4.67,0.86,9.28,2.17,13.73,3.44,2.91,0.83,5.92,1.68,9,2.42,10,2.42,20.54,3.58,30.74,4.71l11.11,1.23,6.54-1.34-17.32-1.91c-10.11-1.12-20.56-2.28-30.37-4.65-3-.72-6-1.57-8.84-2.39-2.16-.61-4.35-1.24-6.58-1.82,21.28,1.62,43.1,4.13,63.74,9.07l-0.94-2.34c-31.17-7.25-64.79-9.12-95.18-10.8-12.4-.68-26.45-1.46-40.07-1.46a237,237,0,0,0-41.49,3.21C893.5,490,890,492,889.52,494.83a124.94,124.94,0,0,1-20.95-1.68,2.07,2.07,0,0,1,.37-1.61c1.39-2.06,5.73-3.63,9.42-4.26,21.87-3.74,44.72-3.82,66.82-3.89,30.88-.1,62.81-0.21,93.57,4.32,7.06,1,14.19,2.34,21.1,3.61,4.93,0.9,9.91,1.81,14.94,2.63l-0.9-2.24C1069.36,490.94,1064.85,490.12,1060.39,489.31ZM900.18,490.9a234.37,234.37,0,0,1,41-3.16c9.26,0,18.73.36,27.75,0.81l-0.36,0c-25.32,1.43-50.91,3.28-76.1,5.52C893.84,492.29,897.72,491.34,900.18,490.9Z" transform="translate(-246.57 -30.67)"/><path class="cls-12" d="M779.91,497.93l-0.93,2,62.28,2.15c61.79,2.13,125.46,4.35,187.14,13.52,0.82-.63,1.62-1.2,2.38-1.72-62.44-9.43-126.89-11.68-189.41-13.84Z" transform="translate(-246.57 -30.67)"/><path class="cls-12" d="M459.76,538.81c22.62-3.85,44.88-9.23,66.78-14.77l-0.88-1.92c-26,6.58-52.52,12.88-79.5,16.69h13.59Z" transform="translate(-246.57 -30.67)"/><polygon class="cls-12" points="268.47 508.14 303.45 500.96 295.94 500.39 258.2 508.14 268.47 508.14"/><path class="cls-12" d="M859.76,510l-84.12-2.84-0.93,2,85,2.87c48.41,1.63,98.47,3.32,146.93,9.89,4.35,0.59,8.73,1.23,13.09,1.88,0.54-.64,1.09-1.24,1.64-1.83-4.76-.71-9.56-1.41-14.33-2.06C958.38,513.36,908.24,511.67,859.76,510Z" transform="translate(-246.57 -30.67)"/><path class="cls-12" d="M1006.69,528.79c-60-6.56-124.48-12.48-190.1-11.37-3.8.06-7.59,0.15-11.39,0.24-11.31.26-23,.53-34.45,0.13l-0.92,2c8.12,0.3,16.3.28,24.39,0.14-8.47.39-16.91,1-25.21,1.64l-1,2.13c14.62-1.12,29.69-2.25,44.6-2.12,19.41,0.16,39,2.45,57.86,4.67,14.17,1.66,28.81,3.38,43.36,4.2,6.91,0.39,13.95.58,20.75,0.77,9.43,0.26,19.18.53,28.69,1.32,12.46,1,25.07,3,37.27,4.92l8.79,1.36H1011q0.31-.88.65-1.74-5.34-.8-10.63-1.64c-12.25-1.92-24.92-3.9-37.48-4.94-9.59-.8-19.39-1.07-28.85-1.33-6.78-.19-13.8-0.38-20.67-0.77-14.45-.81-29.05-2.53-43.18-4.18-18.84-2.21-38.31-4.49-57.73-4.68l3.53-.07c65.46-1.1,129.86,4.8,189.72,11.36l1,0.11,6.88,0.74c0.37-.66.75-1.31,1.15-1.94-2.58-.26-5.15-0.54-7.7-0.82Z" transform="translate(-246.57 -30.67)"/><path class="cls-12" d="M635.87,538.81l1.51-.57-4.91-.37-2.42.94h5.81Z" transform="translate(-246.57 -30.67)"/><path class="cls-12" d="M587.53,538.81c5.34-1,10.64-2.06,15.93-3.14l-7.64-.58c-6.61,1.31-13.25,2.57-19.94,3.71h11.66Z" transform="translate(-246.57 -30.67)"/><path class="cls-12" d="M797.4,530.82c14.19,0,28.37.12,42.55,0.23,20.06,0.14,40.8.29,60.21,4.84,3.34,0.78,6.7,1.71,9.95,2.61l1.16,0.32h8.15c-2.88-.71-5.72-1.48-8.52-2.25-3.28-.91-6.66-1.85-10.06-2.64-19.73-4.63-40.64-4.78-60.87-4.92-14.19-.1-28.38-0.2-42.57-0.23-12,0-22,.06-32.31,1.28l-1,2.2,1.27-.17C775.49,530.88,785.44,530.78,797.4,530.82Z" transform="translate(-246.57 -30.67)"/><path class="cls-12" d="M781.4,538.81h13.27c17.64-2.15,37.4-2.13,59.55,0h17.59C836.45,534,806.63,533.94,781.4,538.81Z" transform="translate(-246.57 -30.67)"/><path class="cls-12" d="M422.35,502.42a151.88,151.88,0,0,0,19-1.05c6-.75,11.85-2,17.54-3.19,3.36-.71,6.84-1.44,10.29-2.06,13.76-2.48,28.28-3.41,42.32-4.3l0.33,0-0.91-2c-14,.89-28.46,1.83-42.27,4.32-3.49.63-7,1.37-10.37,2.08-5.63,1.19-11.45,2.42-17.29,3.15-11.9,1.5-24.19,1-36.08.59l-16.51-.63c0.08,0.65.18,1.34,0.28,2.06L404.76,502C410.55,502.2,416.44,502.42,422.35,502.42Z" transform="translate(-246.57 -30.67)"/><path class="cls-12" d="M457.51,475.4l0.47-.09a86.85,86.85,0,0,1,14.33-1.92,90.91,90.91,0,0,1,12.39.92c1.32,0.16,2.63.32,3.94,0.46,5.25,0.56,10.56.83,15.83,1l-1-2.08c-4.87-.17-9.75-0.43-14.56-0.94-1.3-.14-2.6-0.3-3.9-0.45a92.91,92.91,0,0,0-12.82-.94,89.09,89.09,0,0,0-14.83,2l-0.47.09c-20.39,3.9-41.11,7.29-61.59,10.06-5,.67-10.06,1.33-15.3,1.95l3,1.7c4.33-.53,8.57-1.07,12.69-1.63C416.29,482.71,437.07,479.31,457.51,475.4Z" transform="translate(-246.57 -30.67)"/><path class="cls-12" d="M404.57,497.25c2.73,0.05,5.47.11,8.18,0.11a89.83,89.83,0,0,0,20-1.85c3.42-.79,6.7-1.9,9.88-3,3-1,6-2,9.13-2.79,7.32-1.77,15.19-2.08,22.8-2.38L509.15,486l-0.92-2-33.76,1.34c-7.76.31-15.78,0.63-23.39,2.46-3.24.78-6.36,1.84-9.37,2.86s-6.32,2.14-9.61,2.9a87.07,87.07,0,0,1-19.35,1.77c-2.7,0-5.41-.05-8.12-0.11l-1,0c6.24-1.47,12.31-3.45,18.25-5.38,7.58-2.47,15.42-5,23.44-6.47,10.37-1.88,21.27-2,31.8-2.12l29.7-.33-0.93-2-28.8.32c-10.66.12-21.68,0.24-32.31,2.17-8.22,1.49-16.15,4.07-23.82,6.57-9.42,3.06-19.16,6.23-29.21,7.26-1.33,0-2.59.1-3.81,0.17,0.06,0.66.14,1.37,0.22,2.13,1.25-.06,2.51-0.14,3.78-0.27C396.12,497.08,400.35,497.17,404.57,497.25Z" transform="translate(-246.57 -30.67)"/></g><circle class="cls-13" cx="479.96" cy="567.14" r="26.94" transform="translate(-275.95 -4.44) rotate(-3.04)"/><circle class="cls-2" cx="475.25" cy="562.91" r="26.94" transform="translate(-275.74 -4.69) rotate(-3.04)"/><circle class="cls-3" cx="475.25" cy="562.91" r="16.54" transform="translate(-275.73 -4.69) rotate(-3.04)"/><path class="cls-14" d="M461.51,569.12a16.53,16.53,0,0,1,29.54-11.06,16.53,16.53,0,1,0-28.82,15A16.51,16.51,0,0,1,461.51,569.12Z" transform="translate(-246.57 -30.67)"/><circle class="cls-13" cx="577.64" cy="586.7" r="26.94" transform="translate(-276.85 0.77) rotate(-3.04)"/><circle class="cls-2" cx="572.93" cy="582.47" r="26.94" transform="translate(-276.63 0.51) rotate(-3.04)"/><circle class="cls-3" cx="572.93" cy="582.47" r="16.54" transform="translate(-276.64 0.52) rotate(-3.04)"/><path class="cls-14" d="M559.18,588.68a16.53,16.53,0,0,1,29.54-11.06,16.53,16.53,0,1,0-28.82,15A16.52,16.52,0,0,1,559.18,588.68Z" transform="translate(-246.57 -30.67)"/><circle class="cls-13" cx="677.67" cy="595.71" r="26.94" transform="translate(-277.19 6.09) rotate(-3.04)"/><circle class="cls-2" cx="672.96" cy="591.48" r="26.94" transform="translate(-276.97 5.83) rotate(-3.04)"/><circle class="cls-3" cx="672.96" cy="591.48" r="16.54" transform="translate(-276.97 5.83) rotate(-3.04)"/><path class="cls-14" d="M659.22,597.69a16.53,16.53,0,0,1,29.54-11.06,16.53,16.53,0,1,0-28.82,15A16.52,16.52,0,0,1,659.22,597.69Z" transform="translate(-246.57 -30.67)"/><circle class="cls-13" cx="783.51" cy="592.34" r="26.94" transform="translate(-276.86 11.69) rotate(-3.04)"/><circle class="cls-2" cx="778.8" cy="588.1" r="26.94" transform="translate(-276.64 11.44) rotate(-3.04)"/><circle class="cls-3" cx="778.8" cy="588.1" r="16.54" transform="translate(-276.64 11.44) rotate(-3.04)"/><path class="cls-14" d="M765.06,594.31a16.53,16.53,0,0,1,29.54-11.06,16.53,16.53,0,1,0-28.82,15A16.52,16.52,0,0,1,765.06,594.31Z" transform="translate(-246.57 -30.67)"/><circle class="cls-13" cx="896.6" cy="580.56" r="26.94" transform="translate(-276.08 17.67) rotate(-3.04)"/><circle class="cls-2" cx="891.89" cy="576.32" r="26.94" transform="translate(-275.86 17.41) rotate(-3.04)"/><circle class="cls-3" cx="891.89" cy="576.32" r="16.54" transform="translate(-275.86 17.41) rotate(-3.04)"/><path class="cls-14" d="M878.15,582.53a16.53,16.53,0,0,1,29.54-11.06,16.53,16.53,0,1,0-28.82,15A16.51,16.51,0,0,1,878.15,582.53Z" transform="translate(-246.57 -30.67)"/><path class="cls-15" d="M959,481.28a5.35,5.35,0,0,1,3.56-6.67L961,469.21a11,11,0,0,0,.31,21.1l4,17.29-13.6,5.59a6,6,0,1,0,1.66,5.08l13.82-2.46,19,83c-20.39-.22-40.33-19.4-40.33-19.4l2.71-7.28-17-2.24,7.28,24.27,3-6.19c30,43.67,66.62,37.3,66.62,37.3l-42.68-140.4A5.35,5.35,0,0,1,959,481.28Z" transform="translate(-246.57 -30.67)"/><path class="cls-16" d="M981.8,511.34l12.85-5.65a5.95,5.95,0,1,0-1.45-5.15l-14.42,2.92-6.34-16.56A11,11,0,0,0,961,469.21l1.64,5.39a5.35,5.35,0,1,1,3.11,10.24l19.36,63.68,7-10.39Z" transform="translate(-246.57 -30.67)"/><polygon class="cls-15" points="745.49 507.45 738.51 517.84 743.76 535.11 751.6 523.43 745.49 507.45"/><path class="cls-16" d="M1041.5,536.42l-12.87,11.31,6.3,4.54s-5.89,27-22.71,38.57l-8.71-22.76-8.6,12.81,13.48,44.36s34-15.08,34.59-68.06l6,3.45Z" transform="translate(-246.57 -30.67)"/><polygon class="cls-15" points="754.37 530.65 746.13 542.92 748.35 550.21 756.95 537.4 754.37 530.65"/><polygon class="cls-16" points="751.6 523.43 743.76 535.11 746.13 542.92 754.37 530.65 751.6 523.43"/></g></g></svg>