<svg id="Objects" xmlns="http://www.w3.org/2000/svg" viewBox="0 0 478.49 404.5"><defs><style>.cls-1{fill:#004a6f;fill-rule:evenodd;}</style></defs><title>eeee</title><path class="cls-1" d="M446.31,603.74c51.21-.89,96.62-1.65,101.15-1.65,9.12,0-1.62-40.32,17.16-49.94l56.24-19.27a1.5,1.5,0,1,0-1-2.85l-61.16,21c-18.34,2.74-65.34,13.47-99.45,20.21L452.41,552c17,0.57,81.37.33,96.26-4.73l157-53.79a1.51,1.51,0,0,0-1-2.85l-157,53.79-0.23.1C540,530.57,528.81,511.38,516,490c34.56,6.1,78.05,16.52,96.91,28-15.9-17-41.53-46.78-69.45-79.2,48.59,9.59,120.26,32.59,149.34,50C647.12,435.42,511.33,323.61,446.31,271v30.35c13,23.71,27.23,51.21,38.2,76.78-7.42-11.94-23.13-31.18-38.2-48.18V551.8l2.32,0.1,7.16,20c-3.32.65-6.5,1.25-9.49,1.79v30.07Zm-44.17.78,44.17-.78V573.67c-3.43.62-6.61,1.17-9.49,1.63v-24c3,0.2,6.18.37,9.49,0.52V329.91c-13.7-15.45-26.86-29.06-32.76-33.67L402.13,243.1v7.32l9.64,45.18A470.44,470.44,0,0,1,441.58,371c1.65,5.68-6.32-9.72-9.28-14.23-7.16-10.91-13.48-20.35-18.52-27.66l-11.64-70.67v9.25l9.65,58.53c-3.16-4.53-5.72-8.05-7.53-10.34h0c-0.7-7.4-1.41-14.59-2.11-21.51V554.07c5.6,0.66,11,1.11,16,1.27v22c-7.2.49-12.35,0.63-16,.59v26.62h0ZM446.31,271v30.35C434,278.88,422.68,259.84,416.15,249c-0.24-.31-0.52-0.81-0.73-1.13l-13.28-20.1v-4.61l2.69,3.74h-1.46l13.31,20.14,1.71,1.37C424.54,253.39,434.2,261.15,446.31,271Zm-52.79-59.72L390,226.89h1.73l-0.88,5.76c-1.7,1-3.51,2.14-5.4,3.37V551.59l1.36,0.24,0,7.34h-1.34v45.65l16.72-.3V577.9c-7.57-.07-8.9-0.87-8.9-0.87V559.17h-4.38l0-7c4.48,0.74,8.93,1.38,13.26,1.89V294.4c-2.69-26.23-5.42-48.56-8-63.63l-1.63.92,0.73-4.78h2.19l6.72,40.81v-9.25l-5.2-31.55h0.21a0.84,0.84,0,0,0,0,.18l5,23.32V243.1l-3.47-16.18h2.89l0.58,0.88v-4.61ZM385.41,236c-1.63,1.06-3.33,2.2-5.07,3.41V550.67L382,551l0,8.2h-1.6v45.74l5.07-.09V559.17H384l0-7.82,1.34,0.24V236Zm-5.07,3.41A336.61,336.61,0,0,0,351.46,262v282.1c7.82,2,16.42,4.06,25.18,5.8l0,9.22H351.46v46.28l28.88-.53V559.17h-1.62l0-8.81,1.6,0.31V239.44ZM351.46,262c-6.77,5.91-13.27,12.06-18.83,18l-11.21-33.7v4.76l10,30.2a126.46,126.46,0,0,0-8.52,10.2l-1.53-8.6v8.61l0.3,1.69-0.3.43V547.34q2.08,0.22,4.26.4l-1.51,11.44h-2.75V606l30-.58V559.17H326.27l1.49-11.28c3.87,0.27,8,.45,12.47.53,0.05-2.22.06-4.77,0-7.57,0.11,0.09.22,0.21,0.33,0.29,3.39,1,7,2,10.87,3V262Zm-30-15.69-6.88-20.68v4.76l6.88,20.68v-4.76h0Zm-6.88,359.81,6.88-.14V559.17h-0.73l-3.53.49L318.82,547l2.6,0.29V293.65a55.58,55.58,0,0,0-3.06,4.93h0c-1.3-10.41-2.58-20.26-3.82-29.36V546.47l2.21,0.31L315,560l-0.47.06v46.14h0Zm6.88-323.25v8.61l-6.88-38.72v-8.61Zm-6.88-57.25-4-12.1H312l-5.3-11.75-4.4,11.72h3.65l-0.07,9.78c-1,4.34-2.66,12.4-4.85,23.24V543.84l2.57,0.6-1.1,17.24-1.47.2v44.39c2.64,0.06,5.4.06,8.29,0l5.25-.11V560l-9.94,1.37,1.05-16.5c2.83,0.59,5.77,1.12,8.88,1.58V269.22c-2.65-19.42-5.12-35.35-7.18-45.71l0.07-10h0.14l7,39.25v-8.61l-5.25-29.56,5.25,15.79v-4.76ZM301,246.56c-12.22,60.46-39.9,207.89-41.93,284.1,14.88,4.53,25.81,8.89,38,12.17l-0.64,16.47-2.71-3.55-17.4.82a122,122,0,0,0-8.05-11.46l-12.83,1.63L243.36,520a0.56,0.56,0,0,0-1,.46l1,2.27c-1.8,8.69-14.1,6-14.52,14.93l-0.63,13.41c0.13-9,18.61-6.22,21.16-15l4.89,10.84-9.93,1.26,0.17,9.91-15.36.72,12.54,11s-0.38,10.25,1.52,13.67c1.8,3.24,10.75,21.79,57.81,22.79V561.88l-2.35.32-0.22-.29,0.72-18.55,1.85,0.46V246.56Z" transform="translate(-228.21 -201.82)"/></svg>