<svg id="Layer_1" data-name="Layer 1" xmlns="http://www.w3.org/2000/svg" viewBox="0 0 177.34 698.59"><defs><style>.cls-1,.cls-3{fill:#004a6f;}.cls-1,.cls-2{fill-rule:evenodd;}.cls-2{fill:#ecf7fe;}</style></defs><title>liGHT house</title><polygon class="cls-1" points="0 698.59 177.34 698.59 148.39 167.83 28.95 167.83 0 698.59"/><polygon class="cls-2" points="18.1 685.37 159.25 685.37 143.34 308.16 34 308.16 18.1 685.37"/><path class="cls-1" d="M536.64,332.74h0a61.12,61.12,0,0,0,60.94-60.94V142.24a61.11,61.11,0,0,0-60.94-60.93h0a61.11,61.11,0,0,0-60.93,60.93V271.81A61.11,61.11,0,0,0,536.64,332.74Z" transform="translate(-446.75 -31.92)"/><path class="cls-2" d="M531.26,232.88V165.6c0-32.91-46.15-33.4-46.15,0v67.29h46.15Z" transform="translate(-446.75 -31.92)"/><path class="cls-2" d="M587.93,232.88V165.6c0-32.91-46.15-33.4-46.15,0v67.29h46.15Z" transform="translate(-446.75 -31.92)"/><polygon class="cls-1" points="3.27 318.28 174.08 318.28 173.43 298.03 3.92 298.03 3.27 318.28"/><polygon class="cls-1" points="5.24 256.85 172.11 256.85 171.85 248.83 5.5 248.83 5.24 256.85"/><polygon class="cls-1" points="5.24 273.87 172.11 273.87 171.85 265.85 5.5 265.85 5.24 273.87"/><polygon class="cls-1" points="5.24 289.57 172.11 289.57 171.85 281.56 5.5 281.56 5.24 289.57"/><polygon class="cls-1" points="18.55 207.22 158.79 207.22 158.26 190.59 19.09 190.59 18.55 207.22"/><polygon class="cls-1" points="20.17 156.78 157.18 156.78 156.96 150.2 20.39 150.2 20.17 156.78"/><polygon class="cls-1" points="20.17 169.96 157.18 169.96 156.96 163.38 20.39 163.38 20.17 169.96"/><polygon class="cls-1" points="20.17 183.38 157.18 183.38 156.96 176.8 20.39 176.8 20.17 183.38"/><path class="cls-1" d="M596.67,131.83a61.16,61.16,0,0,0-60-50.52h0a61.16,61.16,0,0,0-60,50.52H596.67Z" transform="translate(-446.75 -31.92)"/><path class="cls-1" d="M541.46,82.59l-3.21-35.13c-1.89-20.72-1.34-20.72-3.23,0l-3.21,35.13C529.7,105.81,543.58,105.81,541.46,82.59Z" transform="translate(-446.75 -31.92)"/><rect class="cls-3" x="20.73" y="431.04" width="136.72" height="131.45"/><path class="cls-1" d="M536.64,87.88a11,11,0,1,0-11-11A11,11,0,0,0,536.64,87.88Z" transform="translate(-446.75 -31.92)"/><path class="cls-1" d="M518.84,450.88l1-51.34c0.51-25.12-34.7-25.48-35.21,0l-1,51.34h35.21Z" transform="translate(-446.75 -31.92)"/><path class="cls-2" d="M562.05,580.75l-1-51.34c-0.51-25.12,34.7-25.48,35.21,0l1,51.34H562.05Z" transform="translate(-446.75 -31.92)"/><path class="cls-1" d="M509.3,708.11l1-51.34c0.51-25.11-34.7-25.48-35.21,0l-1,51.34H509.3Z" transform="translate(-446.75 -31.92)"/></svg>