<svg id="Layer_1" data-name="Layer 1" xmlns="http://www.w3.org/2000/svg" viewBox="0 0 437.9 492.39"><defs><style>.cls-1{fill:#004a6f;}.cls-1,.cls-2{fill-rule:evenodd;}.cls-2{fill:#c4e3f7;}</style></defs><title>octopus</title><path class="cls-1" d="M611.16,211C546,211,544,279.51,567.74,321.59c-13.3,6.63-24.61,10.68-34.48,13-87.21,11.25-102.7-161,14.62-182.38,55.58-10.14,74.5,50.37,8.42,38.41h0c7.06,5,9.22,6.59,18.39,7.29,59.21,4.48,33.44-83.27-51.14-53.42-87.62,30.92-97.35,133.8-56.77,184.94a68.11,68.11,0,0,0-33,3.23c-76.08,25.91-34.27,117.2,18.18,96.21,16.81-6.73,16.27-25.48,13.74-40.29h0C463,398.88,461.21,417,449,420.28c-45.14,12.32-63.14-64.57-2.58-71.22,40.73-4.47,48.89,18,91.6,8.9a114.73,114.73,0,0,0,31.19-9.11c-49.74,48.67-84.37,54-129.83,95.38-25.78,23.48-41.15,54.54-9.58,81.17,29.33,24.74,70.56-14.8,43.79-52l1.35,8c5,32.28-19.63,51.47-36.79,34.67-33.25-32.57,14.72-61.2,39.52-76.7,28.71-18,46.88-27.33,63.37-37.67-35,56-30.86,184.23,13.55,218.83C601.42,657.07,654,584.13,611.52,561c-7.43-4-15.7-1.41-20.42,5.5,4.64-1.35,9.29-3.67,14.19-2.09,33.41,10.73-5.16,76.38-41.28,44.65-44.88-39.44-40.43-206.61,29.51-240.23,5.88,4.93,11.94,6,17.63,6s11.76-1.09,17.64-6C667.52,415.53,735.84,511.57,691,551c-36.12,31.73-74.69-33.92-41.28-44.65,4.9-1.58,9.55.74,14.19,2.09-4.73-6.91-13-9.55-20.42-5.5C601,526.07,653.56,599,700.39,562.52c44.41-34.61,15.9-104.75-19.1-160.77,16.49,10.34,34.65,19.72,63.37,37.67,24.8,15.5,72.77,44.13,39.51,76.7-17.16,16.8-41.83-2.38-36.79-34.67l1.35-8c-26.77,37.16,14.45,76.7,43.79,52,31.57-26.63,16.2-57.69-9.58-81.17-45.46-41.4-80.09-46.72-129.83-95.38A114.7,114.7,0,0,0,684.28,358c42.71,9.11,50.87-13.37,91.6-8.9,60.56,6.65,42.56,83.55-2.58,71.22-12.2-3.33-14-21.4-16.7-31.75h0c-2.53,14.81-3.08,33.56,13.74,40.29,52.45,21,94.26-70.3,18.18-96.21a68.12,68.12,0,0,0-33-3.23c43.86-38,66.33-123.15-21.29-154.06-84.58-29.85-110.35,57.9-51.14,53.42,9.17-.69,11.33-2.31,18.39-7.29h0c-66.08,12-47.15-48.56,8.42-38.42,117.31,21.4,66.35,162.76-20.86,151.51-9.88-2.27-21.19-6.32-34.48-13C678.29,279.51,676.36,211,611.16,211Z" transform="translate(-392.21 -138.24)"/><path class="cls-2" d="M598.94,324.35a8.49,8.49,0,1,0-8.49-8.49A8.51,8.51,0,0,0,598.94,324.35Z" transform="translate(-392.21 -138.24)"/><path class="cls-2" d="M621.59,324.35a8.49,8.49,0,1,0-8.49-8.49A8.51,8.51,0,0,0,621.59,324.35Z" transform="translate(-392.21 -138.24)"/></svg>