<?xml version="1.0" encoding="UTF-8" standalone="no"?>
<svg
   xmlns:dc="http://purl.org/dc/elements/1.1/"
   xmlns:cc="http://creativecommons.org/ns#"
   xmlns:rdf="http://www.w3.org/1999/02/22-rdf-syntax-ns#"
   xmlns:svg="http://www.w3.org/2000/svg"
   xmlns="http://www.w3.org/2000/svg"
   xmlns:sodipodi="http://sodipodi.sourceforge.net/DTD/sodipodi-0.dtd"
   xmlns:inkscape="http://www.inkscape.org/namespaces/inkscape"
   id="Layer_1"
   data-name="Layer 1"
   viewBox="0 0 1920 1080"
   version="1.1"
   sodipodi:docname="wave.svg"
   inkscape:version="0.92+devel unknown">
  <metadata
     id="metadata12">
    <rdf:RDF>
      <cc:Work
         rdf:about="">
        <dc:format>image/svg+xml</dc:format>
        <dc:type
           rdf:resource="http://purl.org/dc/dcmitype/StillImage" />
      </cc:Work>
    </rdf:RDF>
  </metadata>
  <sodipodi:namedview
     pagecolor="#ffffff"
     bordercolor="#666666"
     inkscape:document-rotation="0"
     borderopacity="1"
     objecttolerance="10"
     gridtolerance="10"
     guidetolerance="10"
     inkscape:pageopacity="0"
     inkscape:pageshadow="2"
     inkscape:window-width="1920"
     inkscape:window-height="1016"
     id="namedview10"
     showgrid="false"
     inkscape:zoom="0.634375"
     inkscape:cx="960"
     inkscape:cy="666.10837"
     inkscape:window-x="0"
     inkscape:window-y="0"
     inkscape:window-maximized="1"
     inkscape:current-layer="Layer_1" />
  <defs
     id="defs4">
    <style
       id="style2">.cls-1{fill:#62c6e5;}</style>
  </defs>
  <title
     id="title6">wave</title>
  <path
     id="waveSVG"
     class="cls-1"
     d="M498.95,192.09c0-58,257-138.32,610.88-138.32C1416.09,53.77,1611.72,0,1611.72,0H557.57C289,24.31,97.22,68.24,0,122.29V286C117.7,344.71,379.82,393.72,798.41,429c442.39,38.69,612.54,75.77,612.54,143.47,0,52.24-41.08,47.67-311.95,64.48-76.52.83-222,6-222,6-262.77,12.15-530.93,94.48-674.9,133.12C102.07,803,33.45,834.73,0,869.39v95.29c46.34,43.26,161.81,82.15,350.47,115.32h1217q-167.3-24.59-393.06-44.65C745.61,996.66,649,967.47,649,903c0-51.08,52.09-94.48,330-104.2h0.09c58.53,0,111-.64,158.6-1.88,299.36-7.78,403.33-39,584.26-80.73,86.59-20,153.07-43.32,198.09-69.35V472.28c-117.71-65.61-384.36-111-794.9-148C696.32,285.59,498.95,256.57,498.95,192.09Z" />
  <path
     style="fill:none;stroke:none;stroke-width:1px;stroke-linecap:butt;stroke-linejoin:miter;stroke-opacity:1"
     d="M 768.7931,0.00615764 C 183.9532,197.90025 315.46182,204.93227 315.46182,204.93227 c 0,0 49.06404,42.88793 358.31281,124.90147 309.24877,82.01355 478.03567,51.52094 469.59977,70.51725 -8.436,18.9963 655.2832,17.9064 528.5837,117.08128 -126.6995,99.17487 -180.0184,170.17857 -401.7364,180.67118 -221.718,10.49261 -583.87934,-20.35099 -640.11702,37.05049 -56.23768,57.40148 -511.50862,148.11576 -274.38424,221.4101 237.12439,73.29436 343.89779,126.60716 343.89779,126.60716"
     id="path14"
     inkscape:connector-curvature="0" />
</svg>
