<svg id="Layer_1" data-name="Layer 1" xmlns="http://www.w3.org/2000/svg" viewBox="0 0 1920 1080"><defs><style>.cls-1{fill:#62c6e5;}</style></defs><title>wave</title><path class="cls-1" d="M498.95,192.09c0-58,257-138.32,610.88-138.32C1416.09,53.77,1611.72,0,1611.72,0H557.57C289,24.31,97.22,68.24,0,122.29V286C117.7,344.71,379.82,393.72,798.41,429c442.39,38.69,612.54,75.77,612.54,143.47,0,52.24-41.08,47.67-311.95,64.48-76.52.83-222,6-222,6-262.77,12.15-530.93,94.48-674.9,133.12C102.07,803,33.45,834.73,0,869.39v95.29c46.34,43.26,161.81,82.15,350.47,115.32h1217q-167.3-24.59-393.06-44.65C745.61,996.66,649,967.47,649,903c0-51.08,52.09-94.48,330-104.2h0.09c58.53,0,111-.64,158.6-1.88,299.36-7.78,403.33-39,584.26-80.73,86.59-20,153.07-43.32,198.09-69.35V472.28c-117.71-65.61-384.36-111-794.9-148C696.32,285.59,498.95,256.57,498.95,192.09Z"/></svg>