<svg id="Layer_1" data-name="Layer 1" xmlns="http://www.w3.org/2000/svg" viewBox="0 0 459.77 459.77"><defs><style>.cls-1,.cls-3{fill:#004a6f;}.cls-1,.cls-2{fill-rule:evenodd;}.cls-2{fill:#ecf7fe;}.cls-4{fill:#7fafc6;}</style></defs><title>wheel</title><path class="cls-1" d="M667.32,638.15c-9.63,3.31-20.42-2.69-23.43-11.45s0.24-16.34,6.68-21L586.45,445.31,503,596.58c5.82,5.38,8.11,13.32,4,21.63s-15.52,12.95-24.67,8.47-12.54-16.34-8.47-24.67,11.73-11.39,19.55-10.1l68.1-158.77-166,48c0.31,7.92-3.69,15.15-12.44,18.16s-20.13-1.82-23.44-11.45,2.69-20.43,11.45-23.44,16.35,0.24,21,6.68l160.42-64.11L401.3,323.51c-5.38,5.83-13.32,8.11-21.64,4s-12.95-15.52-8.47-24.67,16.35-12.54,24.67-8.47S407.26,306.14,406,314l158.77,68.09-48-166c-7.93.31-15.15-3.69-18.16-12.44s1.82-20.13,11.46-23.44,20.43,2.7,23.44,11.45-0.24,16.35-6.68,21l64.12,160.41L674.37,221.8c-5.83-5.39-8.11-13.32-4-21.64s15.52-12.94,24.67-8.47,12.54,16.35,8.47,24.67-11.73,11.39-19.55,10.11l-68.1,158.76,166-48c-0.31-7.92,3.68-15.15,12.44-18.16s20.13,1.82,23.44,11.45S815,351,806.2,354s-16.35-.24-21-6.68L624.82,411.43l151.27,83.43c5.38-5.82,13.32-8.11,21.64-4s12.94,15.51,8.47,24.67S789.85,528,781.52,524s-11.39-11.72-10.1-19.55l-158.77-68.1,48,166c7.93-.32,15.15,3.68,18.16,12.44S677,634.84,667.32,638.15Z" transform="translate(-358.81 -179.3)"/><path class="cls-2" d="M588.69,271.11a138.08,138.08,0,0,1,0,276.16v-36.9a101.18,101.18,0,0,0,0-202.36v-36.9Zm-44.83,7.52a137.86,137.86,0,0,1,44.83-7.52V308a101.18,101.18,0,0,0,0,202.36v36.9A138.06,138.06,0,0,1,543.86,278.63Z" transform="translate(-358.81 -179.3)"/><path class="cls-1" d="M588.69,266a143.22,143.22,0,0,1,0,286.44V541.61a132.42,132.42,0,0,0,0-264.85V266Zm-46.5,7.8a143,143,0,0,1,46.5-7.8v10.8a132.42,132.42,0,0,0,0,264.85v10.79A143.2,143.2,0,0,1,542.19,273.77Z" transform="translate(-358.81 -179.3)"/><path class="cls-1" d="M588.69,302.25a106.94,106.94,0,0,1,0,213.89V504.71a95.52,95.52,0,0,0,0-191V302.25ZM554,308.06a106.77,106.77,0,0,1,34.73-5.82v11.42a95.52,95.52,0,0,0,0,191v11.42A106.94,106.94,0,0,1,554,308.06Z" transform="translate(-358.81 -179.3)"/><circle class="cls-3" cx="588.69" cy="409.19" r="46.71" transform="translate(-459.79 34.07) rotate(-18.95)"/><circle class="cls-4" cx="588.69" cy="409.19" r="27.12" transform="translate(-459.79 34.08) rotate(-18.95)"/></svg>