<svg id="BACKGROUND_2" data-name="BACKGROUND 2" xmlns="http://www.w3.org/2000/svg" viewBox="0 0 149.75 268.95"><defs><style>.cls-1{fill:#15262f;}</style></defs><title>COCONUT RGHT DOWN</title><path class="cls-1" d="M1234.32,299.09a26.59,26.59,0,0,0-2.79-7,10.59,10.59,0,0,1,5.17,6.86c1.28-5.31,0-11.39-3.91-15.16a29.29,29.29,0,0,1,8.24-.54c4.18,5.22,13,21.41,14,28a26.33,26.33,0,0,0-4.61-17.12,16.1,16.1,0,0,1,5.66,8,70.56,70.56,0,0,0-3.33-9.91,26.48,26.48,0,0,1,6.7,16.57,76.26,76.26,0,0,0-1.5-13.36,19.58,19.58,0,0,1,3.13,6.75l-1.57-7.52a28.64,28.64,0,0,1,6.61,15,13.74,13.74,0,0,0,0-8.62,19.29,19.29,0,0,1,3,10.75,18.82,18.82,0,0,0-.06-9.83l2,5.61a35.56,35.56,0,0,0-1.29-8.2,34.14,34.14,0,0,1,6.25,17,39.39,39.39,0,0,0-1.54-13,21.88,21.88,0,0,1,2.54,6.23l-0.47-5.15,2.08,3.45-1.2-7.29a28.39,28.39,0,0,1,3,4.27v-8l-0.5-.23,0.5,0.16v-0.73l-1.95-1c0.65,0.15,1.3.33,1.95,0.52V294a37.58,37.58,0,0,0-6.85-2.86,46.35,46.35,0,0,1,6.85,1.38v-1.71a44.63,44.63,0,0,0-13.92-4.51l8.81,1.05a45.87,45.87,0,0,0-17.08-4.31l12.88-.18a40.4,40.4,0,0,0-13.55-2.25c0-.66,0-1.33,0-2a17.55,17.55,0,0,0,1.68-1.27l-1.74.53a31.62,31.62,0,0,0-1.92-8.72c2.23,3.08,4.18,6.53,4.56,10.32a21.58,21.58,0,0,0-2.65-10.73,23.92,23.92,0,0,1,4.13,4.95l-1.69-6c1.7,2.61,3.69,6.08,5.39,8.69a23.3,23.3,0,0,0-2.6-7.86,20.36,20.36,0,0,1,4.61,5.43l-3-7.54a24.92,24.92,0,0,1,7.2,9.4c-1-3.43-1.84-6.82-2.84-10.24a23.44,23.44,0,0,1,5.47,7,25.2,25.2,0,0,0-2.1-5.79,8.16,8.16,0,0,1,3.84,4.44,25.36,25.36,0,0,0-2.31-5.47,20.54,20.54,0,0,1,6.84,6.69v-0.26a23.57,23.57,0,0,0-2.93-6.92,25.63,25.63,0,0,1,2.93,3.58v-0.44c-0.5-1.08-1-2.14-1.56-3.28,0.54,0.58,1.06,1.18,1.56,1.8v-9.74a78.85,78.85,0,0,0-8.55,1h-0.75c1.18-.68,2-1.84,3.15-2.18-3.57.51-6.85,1.44-10.39,2l-0.1-.17,6.37-2.06a25.46,25.46,0,0,0-7.21.66L1256.78,246a27.19,27.19,0,0,1,7.79,7.86l-4-7.11,3.62,2.73-4.37-7.15a33.44,33.44,0,0,1,8.28,7.33l-4.41-6.78a27.7,27.7,0,0,1,8.59,8.5l-5.85-8.77,6.8,5.57-5.36-7.23A48.29,48.29,0,0,1,1280.14,254l-8.86-13.53,8.15,5.28-5.68-6.09,5.38,2.84a19.82,19.82,0,0,0-5.29-5.8,27.8,27.8,0,0,1,6.63,2.46v-1.44l-1.31-1.3,1.31,0.59v-3.5a60.17,60.17,0,0,0-31.88,9.41c-1.07.69-2.1,1.42-3.12,2.17a40.71,40.71,0,0,0-13-4.83c4.88-.4,10-0.26,14.39,1.85a27.76,27.76,0,0,0-13.57-4.23,30.76,30.76,0,0,1,8.19-1.26l-7.72-2.13c4-.14,9.14,0,13.15-0.15a30,30,0,0,0-10.39-2.37,26.18,26.18,0,0,1,9-1.46l-10.27-1.76a32.05,32.05,0,0,1,15.14-1.66c-4.44-1.18-8.73-2.51-13.16-3.69a30.15,30.15,0,0,1,11.31-1.39,32.41,32.41,0,0,0-7.77-1.54,10.49,10.49,0,0,1,7.45-1.27,32.62,32.62,0,0,0-7.56-1.1,26.42,26.42,0,0,1,12.2-3.09,30.33,30.33,0,0,0-10.14-1.54,33,33,0,0,1,8-.88c-2.54-.19-4.72-0.53-7.26-0.72a39.83,39.83,0,0,1,13.27-.59,37.51,37.51,0,0,0-13.12-3.3,18.82,18.82,0,0,1,7.28-1.67c-2.15-.3-3.48-0.74-5.63-1a18.67,18.67,0,0,1,14.52.75,33.19,33.19,0,0,0-11.84-3.65,23,23,0,0,1,10.72-.18l-8.42-2.08a29.18,29.18,0,0,1,11.86.11,19.47,19.47,0,0,0-13.62-1.28c4-1.49,9.41-3.1,13.4-4.59-3.07,0-6.37-.28-9.44-0.24,2.27-.94,5.76-2.32,8-3.27-2.51.13-5.52,0.39-8,.52a81.91,81.91,0,0,0-28.7,39.66q-0.51,1.53-1,3.09a23.3,23.3,0,0,0-8,.75,20.36,20.36,0,0,1,6.34-3.25l-8,1.16A24.92,24.92,0,0,1,1224,228c-3.56.19-7.06,0.23-10.62,0.42a23.44,23.44,0,0,1,8-3.74,25.2,25.2,0,0,0-6.12.72,8.16,8.16,0,0,1,5.21-2.72,25.36,25.36,0,0,0-5.86,1,20.54,20.54,0,0,1,8.28-5.21,23.58,23.58,0,0,0-7.87,1.29,25.63,25.63,0,0,1,5.72-2.58c-1.92.47-3.62,0.74-5.54,1.21a31,31,0,0,1,9.68-3.62,29.16,29.16,0,0,0-10.5.71,14.63,14.63,0,0,1,5-3c-1.66.29-2.75,0.28-4.41,0.58a14.51,14.51,0,0,1,10.92-2.92,25.8,25.8,0,0,0-9.63.14,17.9,17.9,0,0,1,7.89-2.7l-6.73.48a22.69,22.69,0,0,1,8.8-2.76,15.14,15.14,0,0,0-10.38,2.32c2.6-2.06,6.21-4.55,8.81-6.61-2.26.76-4.78,1.32-7,2.08,1.45-1.24,3.7-3.1,5.15-4.34-1.33.51-2.84,1.13-4.27,1.7q1-1.59,2.17-3.09l-2.92,2.39,2.36-4.58a29.47,29.47,0,0,0-6.77,9.75l1.67-5.78a122.16,122.16,0,0,0-5.63,15l1.45-9.29c-2.62,6-3.55,12.25-4,18.78l-0.16.73c-0.39-1.3-1.34-2.32-1.4-3.57-0.35,4-.12,7.71-0.55,11.71l-0.64-7.76a25.62,25.62,0,0,0,.17,14.81l-2.54-6.6a32.08,32.08,0,0,0-.13,4.92c-0.31-.47-0.62-0.95-0.94-1.41a60.12,60.12,0,0,0-35.88-23.85c-2.7-.59-5.53-0.17-8.27.16l6.71,0.78-5.44,1.23,7.26,0.14a22.38,22.38,0,0,0-10.71,3.77,37.52,37.52,0,0,1,16.51-3l-3.45,1.24,4.75,0.12-8.2,2.37,10.86-.44-6.95,2.89a28.2,28.2,0,0,1,11.77-.62,19.82,19.82,0,0,0-7.08,3.38l6.05-.61-7.56,3.5,9.54-1.82-13.3,9.2a48.3,48.3,0,0,1,16.27-7.5l-7.68,4.68,8.4-2.6-8.72,5.93a27.71,27.71,0,0,1,11.16-4.65l-6.64,4.62a33.43,33.43,0,0,1,10.43-3.68l-6.74,5,4.38-1.17-6,4.79a25,25,0,0,0-2.43-1l3.85,3.24-0.37.28c-2.49-1.6-4.8-3.31-7.4-4.83,1,0.76,1.27,2.13,2.1,3.2l-0.69-.29c-5.58-3.42-11.18-6.26-17.62-7.61l8.42,4.19a122.14,122.14,0,0,0-15.47-4.07l5.68,2a29.47,29.47,0,0,0-11.87-.12l5.11,0.72-3.64,1q1.89-.07,3.78,0c-1.29.84-2.67,1.71-3.86,2.5,1.85-.47,4.67-1.23,6.52-1.69-1.93,1.4-3.84,3.14-5.77,4.54,3.18-.93,7.3-2.44,10.49-3.37a15.14,15.14,0,0,0-7.89,7.13,22.69,22.69,0,0,1,7.34-5.58l-4.28,5.21a17.9,17.9,0,0,1,6.76-4.87,25.8,25.8,0,0,0-5.68,7.78,14.51,14.51,0,0,1,8.7-7.22c-1.2,1.19-1.82,2.08-3,3.27a14.63,14.63,0,0,1,5.32-2.34,29.16,29.16,0,0,0-6.65,8.15,31,31,0,0,1,8.55-5.8c-1.49,1.3-2.7,2.52-4.19,3.82a25.61,25.61,0,0,1,5.41-3.18,23.57,23.57,0,0,0-5.6,5.67,20.54,20.54,0,0,1,9-3.75,25.35,25.35,0,0,0-4.2,4.2,8.16,8.16,0,0,1,5.23-2.67,25.19,25.19,0,0,0-4.13,4.57,23.44,23.44,0,0,1,7.69-4.39c-2.22,2.8-4.27,5.62-6.49,8.42a24.92,24.92,0,0,1,10.21-6l-5.58,5.87a20.36,20.36,0,0,1,6.32-3.3,23.3,23.3,0,0,0-5.37,6.3c2.56-1.77,5.7-4.24,8.26-6l-3.82,4.91a23.92,23.92,0,0,1,5.69-3,21.58,21.58,0,0,0-6.49,8.94c1.77-3.37,4.88-5.82,8.11-7.84a31.63,31.63,0,0,0-5.06,7.36l-1.41-1.15a17.52,17.52,0,0,0,1.08,1.81c-0.28.6-.54,1.21-0.78,1.83a40.4,40.4,0,0,0-13.4-3l11.87,5a45.87,45.87,0,0,0-17.44-2.44l8.55,2.34a44.52,44.52,0,0,0-22.08.26,46.42,46.42,0,0,1,13.7,1.57,37.68,37.68,0,0,0-14.56,1.56,34.28,34.28,0,0,1,8.53.26l-5.88.62,3.93,0.33a34.06,34.06,0,0,0-15.18,3.74,9.05,9.05,0,0,1,5.51-.61l-9.35,2.25,2.74-.36-7.3,3.51a13.6,13.6,0,0,1,6.2-1.13,21.25,21.25,0,0,0-7.12,3q2.76-.92,5.56-1.71a1.84,1.84,0,0,0-.62,1l2.14-.94-3.8,7a17.12,17.12,0,0,1,7.8-7.65l-1.34,2.31,3.46-2.07-2.35,4.21,6.27-5.32a30.34,30.34,0,0,0-5.1,11.83A29.08,29.08,0,0,1,1156,278.14l-3.85,6.3,3.23-2.41-2.37,4.59a21.88,21.88,0,0,1,4.7-4.82,39.4,39.4,0,0,0-6.33,11.51,34.15,34.15,0,0,1,12.19-13.4,35.55,35.55,0,0,0-4.28,7.11l4-4.44a18.82,18.82,0,0,0-3.76,9.08,19.29,19.29,0,0,1,6.79-8.85,13.74,13.74,0,0,0-3.23,8,28.64,28.64,0,0,1,11.78-11.43l-4.29,6.38a19.58,19.58,0,0,1,5.44-5.07,76.26,76.26,0,0,0-6.42,11.81,26.48,26.48,0,0,1,12.45-12.83,70.63,70.63,0,0,0-6.82,7.93,16.1,16.1,0,0,1,8.26-5.31,26.33,26.33,0,0,0-10.71,14.12c3.46-5.73,17.7-17.41,23.54-20.68a25.76,25.76,0,0,1,4.21,1.74,4.48,4.48,0,0,0-.07.46l-0.06.06,0.06,0a6.71,6.71,0,0,0,1.4,4.24,76.48,76.48,0,0,0-8.67,5.61c-3.53.32-6.73,1.53-8.7,0.91l3.8,1.2a15.59,15.59,0,0,0-10.2,5.22c2.08-.62,4.5-2.54,6.58-3.16-5.18,2.28-10,7.49-12.9,12.34L1179,300a30.41,30.41,0,0,0-10.82,13.86l6.19-6.86c-2.48,4.08-5.38,7.45-7.91,11.45,0.95-1.13,2.58-1.42,3.89-2.36l-0.37.81c-4.29,6.48-7.89,13-9.76,20.59l5.32-9.81A145,145,0,0,0,1160,345.8l2.58-6.66a35,35,0,0,0-.63,14.07l1.07-6,1,4.36q0-2.25.18-4.48c0.94,1.57,1.92,3.24,2.8,4.68-0.48-2.22-1.26-5.59-1.74-7.8,1.59,2.35,3.56,4.69,5.15,7-1-3.82-2.59-8.76-3.56-12.58a18,18,0,0,0,8.13,9.66,26.93,26.93,0,0,1-6.31-8.94l6,5.3a21.25,21.25,0,0,1-5.5-8.22,30.63,30.63,0,0,0,9,7.06,17.23,17.23,0,0,1-8.2-10.62c1.36,1.47,2.39,2.25,3.75,3.72a17.36,17.36,0,0,1-2.56-6.4,34.61,34.61,0,0,0,9.4,8.22,36.74,36.74,0,0,1-6.53-10.38c1.48,1.82,2.88,3.3,4.36,5.13a30.4,30.4,0,0,1-3.55-6.55,28,28,0,0,0,6.5,6.88,24.38,24.38,0,0,1-4.07-10.88,30.11,30.11,0,0,0,4.8,5.16,9.68,9.68,0,0,1-3-6.32,29.9,29.9,0,0,0,5.25,5.09,27.81,27.81,0,0,1-4.89-9.31c3.23,2.74,6.49,5.3,9.72,8a29.57,29.57,0,0,1-6.69-12.35l6.73,6.86a24.16,24.16,0,0,1-3.65-7.63,27.65,27.65,0,0,0,7.26,6.63c-2-3.11-4.8-6.94-6.8-10l5.67,4.74a28.38,28.38,0,0,1-3.35-6.88,25.61,25.61,0,0,0,10.34,8.07c-3.92-2.24-6.71-6-9-9.94a37.55,37.55,0,0,0,12.64,8.25,49,49,0,0,1-10.15-9.49,27,27,0,0,0,6.94,4.58l-5.92-6.81a31.38,31.38,0,0,0,11.42,7.3,71.5,71.5,0,0,0-4.8,14.72,72.42,72.42,0,0,0,4.34,43.07c1.86,1.22,4,2.74,5.91,4-1.32-1.73-3.37-4.33-4.69-6.06,2.33,1.39,5,2.62,7.33,4-2.4-2.92-5.82-6.55-8.21-9.46a17.22,17.22,0,0,0,11,5.07,25.8,25.8,0,0,1-9.12-5.18l7.36,2.15a20.37,20.37,0,0,1-8.12-4.89,29.35,29.35,0,0,0,10.68,2.47,16.51,16.51,0,0,1-11.44-5.87c1.78,0.72,3,1,4.77,1.7a16.64,16.64,0,0,1-4.83-4.51,33.17,33.17,0,0,0,11.5,3.3,35.21,35.21,0,0,1-9.89-6.34c2,1,3.85,1.69,5.87,2.67a29.15,29.15,0,0,1-5.74-4.24,26.81,26.81,0,0,0,8.44,3.32,23.36,23.36,0,0,1-8-7.78,28.85,28.85,0,0,0,6.27,2.52,9.28,9.28,0,0,1-5.13-4.28,28.66,28.66,0,0,0,6.63,2.27,26.66,26.66,0,0,1-8-6.08c3.92,1.07,7.79,2,11.71,3a28.34,28.34,0,0,1-10.84-8l8.63,3.21A23.16,23.16,0,0,1,1210,328a26.5,26.5,0,0,0,9,2.8c-3-1.88-7-4.07-10-5.95l6.84,1.8a27.2,27.2,0,0,1-5.71-4.6,24.55,24.55,0,0,0,12.26,2.79c-4.31-.35-8.27-2.5-11.83-5a36,36,0,0,0,14.33,2,47,47,0,0,1-12.67-4.1,25.86,25.86,0,0,0,7.88,1.14l-7.91-3.49a29.71,29.71,0,0,0,16.08,1.21,24.94,24.94,0,0,1-15.87-5.68,18.09,18.09,0,0,0,10,1.87,20.33,20.33,0,0,1-6.55-3,22.12,22.12,0,0,0,9.56,1,18.48,18.48,0,0,1-13.87-6.16l0-.08a17.63,17.63,0,0,0,13.1,2.42,17.08,17.08,0,0,1-12.43-3.55,12,12,0,0,1,4.11-3.78,7.59,7.59,0,0,0,2-1.33,2.22,2.22,0,0,0,.56-1.17,18.8,18.8,0,0,1,.29,6.17,15.29,15.29,0,0,0,2.62-5.3c22.79,42.6,45.87,115.08,58.56,161.8V422.42c-15.23-43-31.7-85.49-50.06-127.53Zm9.09-17.57a40.56,40.56,0,0,0-12.22.63,2.77,2.77,0,0,1-.43-0.86c-0.28-1,.55-2.31,1.54-2l-1.44-1.15,3.57-2.91-2.71-.43a29.12,29.12,0,0,1,8.3-5.25,15.43,15.43,0,0,1,4.6,10.86A4.12,4.12,0,0,0,1243.4,281.52Zm1.3-1.19A15.15,15.15,0,0,0,1242,270a16.12,16.12,0,0,1,5.49,9.09A13.27,13.27,0,0,0,1244.7,280.33Zm-0.93-17.61-5.43-6.46a38.1,38.1,0,0,1,6.56,4.57A13.85,13.85,0,0,1,1243.77,262.73Zm1.13,0.27,0.23-2,0.67,0.6A12.64,12.64,0,0,0,1244.91,263Zm3,16a19.89,19.89,0,0,0-1-5,19.34,19.34,0,0,1,2.38,4.63Zm-0.13-8.06a21,21,0,0,1,4,6.9c-0.66.22-1.38,0.43-2.12,0.65A15.67,15.67,0,0,0,1247.78,270.89Zm0-10c1.11-1.29,3.16-2.41,4.41-3.67l0.51,0.54A19.52,19.52,0,0,0,1247.74,260.92Zm2.48,19.16,1.78-1.52c0.09,0.3.18,0.59,0.27,0.89Zm2.37,0.83h0Zm4.75-.34c-1.3,0-2.6.11-3.89,0.25,0-.07,0-0.14,0-0.21a17.67,17.67,0,0,0,3.5-1.65C1257.08,279.49,1257.21,280,1257.33,280.56Zm-0.63-2.48-3.27,1c0-.56-0.06-1.11-0.11-1.67l1-.87a4.67,4.67,0,0,1-1,.64,25.23,25.23,0,0,0-1.58-6.57l3.2,6.89a22.74,22.74,0,0,0-1.13-6.91A37.84,37.84,0,0,1,1256.7,278.08Zm-0.89-18.85,2.11-1.44,0.23,0.23A25,25,0,0,0,1255.82,259.23Zm7.95-1.47,0.11,0.16-1.08.16Zm-9.63-9.7a37.26,37.26,0,0,1,8.65,8.32,25.65,25.65,0,0,0-4.62,1.63l-0.16-.27,3.66-2.5a32,32,0,0,0-4.59.94l-3.77-6.3,4,3Zm2.35,8.28q-1.36.41-2.69,0.95l-5.49-9.1Zm-8.58-2.87a47.24,47.24,0,0,1,4.11,3.62,13.12,13.12,0,0,0-5.06,3.21,60.94,60.94,0,0,0-5.77-6.91l6.73,5.3-4.46-5.79,4.16,2.73-2.85-3.69A28.76,28.76,0,0,1,1247.9,253.48Zm-6.62-6.84a29.25,29.25,0,0,0-8.36-3.36,50.44,50.44,0,0,1,12,2.28q-2,1.52-3.87,3.21a33,33,0,0,0-9.46-3.21Zm-1.86,3.64q-1,1-2,2a19.52,19.52,0,0,0-8.19-2.24A27,27,0,0,1,1239.41,250.28Zm-2.8,2.91-0.87,1a26.56,26.56,0,0,0-3.78-1.1A27.6,27.6,0,0,1,1236.62,253.19Zm-1.56,1.82q-0.93,1.12-1.8,2.28a18.17,18.17,0,0,0-8.83-1.49A20.58,20.58,0,0,1,1235.05,255Zm-15.21-2.82c0,0.78-.07,1.56-0.09,2.34a14.49,14.49,0,0,0-8.15.85A16,16,0,0,1,1219.84,252.19Zm-3.31-.62a21.5,21.5,0,0,1,3.42-1c0,0.32,0,.64-0.07,1A20.44,20.44,0,0,0,1216.53,251.58Zm-10,3.38a38,38,0,0,1,2.51,8.16l-2.15-.1c0.89,0.66.59,2-.15,2.87a64.49,64.49,0,0,0-4.48-6.31c-0.17-1.37-.5-2.66-0.76-3.83A37.26,37.26,0,0,1,1206.58,255Zm-1.43-2.35-3.83,2a8.55,8.55,0,0,1-.14-1.33A37.8,37.8,0,0,1,1205.15,252.61Zm-6.16-1.46c-0.14-.27-0.3-0.54-0.46-0.8l5.08-1.47Q1201.25,249.92,1199,251.15Zm2,2.19-0.48,1.72-0.19.1a12.74,12.74,0,0,0-.35-1.57Zm-2.89-3.67a13,13,0,0,0-1-1.2l4.56-.9Zm0.06,1.95-0.09,0c-0.19-.34-0.39-0.68-0.61-1l0.14,0C1197.81,251,1198,251.3,1198.16,251.63Zm3.74-6.25,0.05,0.17-4.89,2.85a12.71,12.71,0,0,0-1.38-1.33,16.83,16.83,0,0,0,1.63,3.06l-0.16.09a23,23,0,0,0-2.48-3A46.88,46.88,0,0,1,1201.9,245.38Zm-8.81.4q-0.76-.66-1.56-1.27l7.44-3.13Zm-10.9-5.54a27.19,27.19,0,0,1,9.76-4.08l-7.23,5.43A25.56,25.56,0,0,0,1182.18,240.24Zm1.33,2.69,0.37-.21,1.79,1.5C1184.92,243.81,1184.21,243.37,1183.51,242.93Zm1.8-.94a37.17,37.17,0,0,1,8.31-2.92l-4.75,3.26,4.83-1.26-3.39,2.56c-0.84-.58-1.69-1.13-2.53-1.6l1.55,2.33-0.51.39A25.73,25.73,0,0,0,1185.31,242Zm5.9,5.2-0.07.05c-0.53-.65-1.08-1.27-1.66-1.86l0.42-.18Zm-5.44,21.62c-1.14-.62-2.31-1.19-3.51-1.7q0.47-.68,1-1.35a17.66,17.66,0,0,0,2.62,2.85Zm0.75,0.4h0l0,0h0Zm0.65-3.49c-0.26.49-.5,1-0.73,1.5l-2.65-2.16a37.84,37.84,0,0,1,5.53-5.83,22.74,22.74,0,0,0-3.65,6l5.56-5.18a25.24,25.24,0,0,0-3.94,5.49,4.67,4.67,0,0,1-.73-1Zm0.22,2.27c0.19-.25.38-0.49,0.58-0.73l1.08,2.08Zm1.11-1.35a21,21,0,0,1,6.27-4.9,15.68,15.68,0,0,0-4.55,6.29C1189.6,267.55,1189,267.09,1188.48,266.64Zm2,1.64a19.35,19.35,0,0,1,3.94-3.39,19.9,19.9,0,0,0-2.86,4.28Zm1.4,1.15a16.12,16.12,0,0,1,8.51-6.36,15.15,15.15,0,0,0-6.37,8.58A13.28,13.28,0,0,0,1191.91,269.43Zm9.39,6.34a42.93,42.93,0,0,0-6.49-2.53,4.13,4.13,0,0,0-.69-1.5,15.43,15.43,0,0,1,8.35-8.33,31.58,31.58,0,0,1,3,3.47,8.18,8.18,0,0,0-2.59,1.67c-0.87,1-.43,3.16.91,3l-4.33,2.1,4.25,0.31A5.62,5.62,0,0,0,1201.29,275.77Zm3.71,31.87a25.69,25.69,0,0,1-9.53-10.75,18.88,18.88,0,0,0,8.59,6.19,21.21,21.21,0,0,1-4.87-5.7,23.09,23.09,0,0,0,8.43,5.12Q1206.21,305,1205,307.64Zm2.63-5.16a19.28,19.28,0,0,1-10.34-12.25,18.31,18.31,0,0,0,11.49,8.39c-4.86-1.41-9.33-6-11-10.8a36.7,36.7,0,0,1,5.38-4.14,9.87,9.87,0,0,0,5,2.54c-2,2.8-2.37,6.57,1.19,9.69l0.38,0.32a7.38,7.38,0,0,0,1.31.83C1209.81,298.83,1208.68,300.63,1207.64,302.49Zm3.13-.38c0.18-.45.39-0.88,0.58-1.32a12.76,12.76,0,0,0-.13,1.75Zm0.56,2.29,0,0v0Zm5.71-44.86a22.43,22.43,0,0,0,.42,5.13,10.37,10.37,0,0,0-2.36-.82,28.78,28.78,0,0,1-2.3-6.93,16.36,16.36,0,0,0,.72,6.72l-0.43,0a13.78,13.78,0,0,0-1-1.2,31.11,31.11,0,0,1-1.35-5.14,15.67,15.67,0,0,1,9-2.38,82.34,82.34,0,0,0,.43,10.48A38.42,38.42,0,0,1,1217,259.53Zm3-9.89a15,15,0,0,0-6.23.36,20.8,20.8,0,0,1,6.41-2.12C1220.14,248.47,1220.07,249.06,1220,249.65Zm0.39-3.65a24.85,24.85,0,0,0-6,.12l6.15-1.27C1220.53,245.23,1220.47,245.61,1220.42,246Zm0.24-1.64a22.73,22.73,0,0,0-5.77-.25,35.93,35.93,0,0,1,6-1C1220.78,243.51,1220.72,243.93,1220.66,244.36Zm0.41-2.45a31.58,31.58,0,0,0-7.21.1,27,27,0,0,1,7.6-2.1C1221.31,240.56,1221.19,241.23,1221.07,241.9Zm0.5-2.54a21.56,21.56,0,0,0-7.68.69,23.92,23.92,0,0,1,5.76-2.89l-6.22.28c2.84-1,6.52-2.13,9.41-3.16C1222.36,236,1221.94,237.65,1221.57,239.36Zm3.29,30.73c-1.69-.5-2.33-2.41-2.63-4.21a39.43,39.43,0,0,1,.34-8.16,20,20,0,0,1,10.27.11,60.32,60.32,0,0,0-7,12.41A4.39,4.39,0,0,1,1224.86,270.09Zm5,3.68a6.74,6.74,0,0,0-1.3-1.59l0.45-1a1.74,1.74,0,0,0-1.35-.79,38.37,38.37,0,0,1,7.71-11.65,15.32,15.32,0,0,1,3.62,2.16,21.61,21.61,0,0,0-3.38-2.41l0.53-.54a35.82,35.82,0,0,1,7.47,5.05c-0.65.93-1.36,1.95-2,3.07a63.84,63.84,0,0,0-11.54,8.19C1230,274.07,1229.93,273.92,1229.85,273.77Z" transform="translate(-1130.72 -190.9)"/></svg>