<svg id="BACKGROUND_2" data-name="BACKGROUND 2" xmlns="http://www.w3.org/2000/svg" viewBox="0 0 149.75 268.95"><defs><style>.cls-1{fill:#15262f;}</style></defs><title>COCONUT LEFT DOWWN</title><path class="cls-1" d="M673.09,280.92a13.6,13.6,0,0,1,6.2,1.13l-7.3-3.51,2.74,0.36-9.35-2.25a9.05,9.05,0,0,1,5.51.61,34.06,34.06,0,0,0-15.18-3.74l3.93-.33-5.88-.62a34.28,34.28,0,0,1,8.53-.26,37.68,37.68,0,0,0-14.56-1.56,46.42,46.42,0,0,1,13.7-1.57,44.52,44.52,0,0,0-22.08-.26l8.55-2.34A45.87,45.87,0,0,0,630.46,269l11.87-5a40.4,40.4,0,0,0-13.4,3c-0.24-.62-0.5-1.23-0.78-1.83a17.49,17.49,0,0,0,1.08-1.81l-1.41,1.15a31.63,31.63,0,0,0-5.06-7.36c3.22,2,6.34,4.48,8.11,7.84a21.58,21.58,0,0,0-6.49-8.94,23.92,23.92,0,0,1,5.69,3l-3.82-4.91c2.56,1.77,5.7,4.24,8.26,6a23.3,23.3,0,0,0-5.37-6.3,20.36,20.36,0,0,1,6.32,3.3l-5.58-5.87a24.92,24.92,0,0,1,10.21,6c-2.22-2.8-4.27-5.62-6.49-8.42a23.44,23.44,0,0,1,7.69,4.39,25.21,25.21,0,0,0-4.13-4.57,8.16,8.16,0,0,1,5.23,2.67,25.35,25.35,0,0,0-4.2-4.2,20.54,20.54,0,0,1,9,3.75,23.57,23.57,0,0,0-5.6-5.67,25.62,25.62,0,0,1,5.41,3.18c-1.49-1.3-2.7-2.52-4.19-3.82a31,31,0,0,1,8.55,5.8,29.16,29.16,0,0,0-6.65-8.15,14.63,14.63,0,0,1,5.32,2.34c-1.2-1.19-1.82-2.08-3-3.27a14.51,14.51,0,0,1,8.7,7.22,25.8,25.8,0,0,0-5.68-7.78,17.9,17.9,0,0,1,6.76,4.87l-4.28-5.21a22.69,22.69,0,0,1,7.34,5.58A15.14,15.14,0,0,0,652,238.9c3.18,0.93,7.3,2.44,10.49,3.37-1.93-1.4-3.84-3.14-5.77-4.54,1.85,0.47,4.67,1.23,6.52,1.69-1.19-.79-2.56-1.66-3.86-2.5q1.88-.09,3.78,0l-3.64-1,5.11-.72a29.47,29.47,0,0,0-11.87.12l5.68-2a122.14,122.14,0,0,0-15.47,4.07l8.42-4.19c-6.44,1.35-12,4.19-17.62,7.61l-0.69.29c0.83-1.07,1.12-2.44,2.1-3.2-2.61,1.52-4.91,3.24-7.4,4.83l-0.37-.28,3.85-3.24a25,25,0,0,0-2.43,1l-6-4.79,4.38,1.17-6.74-5a33.44,33.44,0,0,1,10.43,3.68l-6.64-4.62a27.71,27.71,0,0,1,11.16,4.65l-8.72-5.93,8.4,2.6-7.68-4.68a48.3,48.3,0,0,1,16.27,7.5l-13.3-9.2,9.54,1.82-7.56-3.5,6.05,0.61a19.83,19.83,0,0,0-7.08-3.38,28.2,28.2,0,0,1,11.77.62l-6.95-2.89L647,219.32,638.8,217l4.75-.12-3.45-1.24a37.52,37.52,0,0,1,16.51,3,22.38,22.38,0,0,0-10.71-3.77l7.26-.14-5.44-1.23,6.71-.78c-2.74-.33-5.58-0.75-8.27-0.16a60.12,60.12,0,0,0-35.88,23.85c-0.33.46-.63,0.94-0.94,1.41a32,32,0,0,0-.13-4.92l-2.54,6.6a25.62,25.62,0,0,0,.17-14.81l-0.64,7.76c-0.43-4-.2-7.74-0.55-11.71-0.05,1.24-1,2.27-1.4,3.57-0.05-.24-0.11-0.49-0.16-0.73-0.43-6.53-1.36-12.74-4-18.78l1.45,9.29a122.11,122.11,0,0,0-5.63-15l1.67,5.78a29.47,29.47,0,0,0-6.77-9.75l2.36,4.58-2.92-2.39q1.15,1.5,2.17,3.09c-1.43-.57-2.94-1.19-4.27-1.7,1.45,1.24,3.7,3.1,5.15,4.34-2.26-.76-4.78-1.32-7-2.08,2.6,2.06,6.21,4.55,8.81,6.61a15.14,15.14,0,0,0-10.38-2.32,22.69,22.69,0,0,1,8.8,2.76l-6.73-.48a17.9,17.9,0,0,1,7.89,2.7,25.8,25.8,0,0,0-9.63-.14A14.51,14.51,0,0,1,595.95,213c-1.66-.29-2.75-0.28-4.41-0.58a14.63,14.63,0,0,1,5,3,29.16,29.16,0,0,0-10.5-.71,31,31,0,0,1,9.68,3.62c-1.92-.47-3.62-0.74-5.54-1.21a25.63,25.63,0,0,1,5.72,2.58,23.58,23.58,0,0,0-7.87-1.29,20.54,20.54,0,0,1,8.28,5.21,25.36,25.36,0,0,0-5.86-1,8.16,8.16,0,0,1,5.21,2.72,25.2,25.2,0,0,0-6.12-.72,23.44,23.44,0,0,1,8,3.74c-3.56-.19-7.06-0.23-10.62-0.42a24.92,24.92,0,0,1,10.79,4.86l-8-1.16a20.36,20.36,0,0,1,6.34,3.25,23.3,23.3,0,0,0-8-.75q-0.45-1.55-1-3.09a81.91,81.91,0,0,0-28.7-39.66c-2.51-.13-5.52-0.39-8-0.52,2.27,0.94,5.76,2.32,8,3.27-3.07,0-6.37.28-9.44,0.24,4,1.49,9.41,3.1,13.4,4.59a19.47,19.47,0,0,0-13.62,1.28,29.18,29.18,0,0,1,11.86-.11l-8.42,2.08a23,23,0,0,1,10.72.18,33.19,33.19,0,0,0-11.84,3.65,18.67,18.67,0,0,1,14.52-.75c-2.15.3-3.48,0.74-5.63,1a18.82,18.82,0,0,1,7.28,1.67,37.51,37.51,0,0,0-13.12,3.3,39.83,39.83,0,0,1,13.27.59c-2.54.19-4.72,0.53-7.26,0.72a33,33,0,0,1,8,.88A30.33,30.33,0,0,0,558,215.07a26.42,26.42,0,0,1,12.2,3.09,32.62,32.62,0,0,0-7.56,1.1,10.49,10.49,0,0,1,7.45,1.27,32.41,32.41,0,0,0-7.77,1.54,30.15,30.15,0,0,1,11.31,1.39c-4.44,1.18-8.73,2.51-13.16,3.69a32.05,32.05,0,0,1,15.13,1.66l-10.26,1.76a26.18,26.18,0,0,1,9,1.46A30,30,0,0,0,564,234.4c4,0.14,9.14,0,13.15.15l-7.72,2.13a30.76,30.76,0,0,1,8.2,1.26,27.76,27.76,0,0,0-13.57,4.23c4.41-2.11,9.51-2.25,14.39-1.85a40.71,40.71,0,0,0-13,4.83c-1-.75-2.05-1.49-3.12-2.17a60.17,60.17,0,0,0-31.88-9.41V237l1.31-.59-1.31,1.3v1.44a27.8,27.8,0,0,1,6.63-2.46,19.83,19.83,0,0,0-5.29,5.8l5.38-2.84-5.68,6.09,8.15-5.28L530.79,254A48.3,48.3,0,0,1,543,241l-5.36,7.23,6.8-5.57-5.85,8.77a27.7,27.7,0,0,1,8.59-8.5l-4.41,6.78a33.44,33.44,0,0,1,8.28-7.33l-4.37,7.15,3.62-2.73-4,7.11a27.19,27.19,0,0,1,7.79-7.86l-6.21,10.34a25.46,25.46,0,0,0-7.21-.66l6.37,2.06-0.1.17c-3.54-.54-6.82-1.47-10.39-2,1.2,0.34,2,1.5,3.15,2.18H539a78.87,78.87,0,0,0-8.55-1v9.74c0.5-.62,1-1.22,1.56-1.8-0.57,1.13-1.05,2.2-1.56,3.28v0.44a25.62,25.62,0,0,1,2.93-3.58,23.57,23.57,0,0,0-2.93,6.92v0.26a20.54,20.54,0,0,1,6.84-6.69,25.37,25.37,0,0,0-2.31,5.47,8.16,8.16,0,0,1,3.84-4.44,25.19,25.19,0,0,0-2.1,5.79,23.44,23.44,0,0,1,5.47-7c-1,3.43-1.84,6.82-2.84,10.24a24.92,24.92,0,0,1,7.2-9.4l-3,7.54a20.35,20.35,0,0,1,4.61-5.43,23.29,23.29,0,0,0-2.6,7.86c1.7-2.61,3.69-6.08,5.39-8.69l-1.69,6a23.93,23.93,0,0,1,4.13-4.95,21.58,21.58,0,0,0-2.65,10.73c0.37-3.79,2.33-7.23,4.56-10.32a31.63,31.63,0,0,0-1.92,8.72l-1.74-.53a17.55,17.55,0,0,0,1.68,1.27c0,0.66,0,1.33,0,2a40.4,40.4,0,0,0-13.55,2.25L552.66,283a45.86,45.86,0,0,0-17.08,4.31l8.81-1.05a44.64,44.64,0,0,0-13.92,4.51v1.71a46.36,46.36,0,0,1,6.85-1.38,37.59,37.59,0,0,0-6.85,2.86v1.61c0.64-.19,1.29-0.37,1.95-0.52l-1.95,1v0.73l0.5-.16-0.5.23v8a28.43,28.43,0,0,1,3-4.27l-1.2,7.29,2.08-3.45-0.47,5.15a21.88,21.88,0,0,1,2.54-6.23,39.39,39.39,0,0,0-1.54,13,34.15,34.15,0,0,1,6.25-17,35.55,35.55,0,0,0-1.29,8.2l2-5.61a18.82,18.82,0,0,0-.06,9.83,19.29,19.29,0,0,1,3-10.75,13.74,13.74,0,0,0,0,8.62,28.63,28.63,0,0,1,6.61-15l-1.57,7.52a19.58,19.58,0,0,1,3.13-6.75,76.22,76.22,0,0,0-1.5,13.36,26.48,26.48,0,0,1,6.7-16.57,70.55,70.55,0,0,0-3.33,9.91,16.1,16.1,0,0,1,5.66-8,26.33,26.33,0,0,0-4.61,17.12c1.05-6.61,9.84-22.8,14-28a29.29,29.29,0,0,1,8.24.54c-3.95,3.77-5.2,9.85-3.91,15.16a10.59,10.59,0,0,1,5.17-6.86,26.58,26.58,0,0,0-2.79,7l3.91-4.2c-18.36,42-34.83,84.51-50.06,127.53v37.42c12.7-46.72,35.77-119.2,58.56-161.8a15.29,15.29,0,0,0,2.62,5.3,18.79,18.79,0,0,1,.29-6.17,2.22,2.22,0,0,0,.56,1.17,7.59,7.59,0,0,0,2,1.33,11.94,11.94,0,0,1,4.11,3.78A17.08,17.08,0,0,1,586.22,307a17.63,17.63,0,0,0,13.1-2.42l0,0.08a18.48,18.48,0,0,1-13.87,6.16,22.12,22.12,0,0,0,9.56-1,20.32,20.32,0,0,1-6.55,3,18.09,18.09,0,0,0,10-1.87,24.94,24.94,0,0,1-15.87,5.68,29.71,29.71,0,0,0,16.08-1.21l-7.91,3.49a25.86,25.86,0,0,0,7.88-1.14,47,47,0,0,1-12.67,4.1,36,36,0,0,0,14.33-2c-3.55,2.47-7.51,4.62-11.83,5A24.55,24.55,0,0,0,600.74,322a27.21,27.21,0,0,1-5.71,4.6l6.84-1.8c-3,1.88-7,4.07-10,5.95a26.49,26.49,0,0,0,9-2.8,23.15,23.15,0,0,1-6.27,5.13l8.63-3.21a28.34,28.34,0,0,1-10.83,8c3.92-1.07,7.79-2,11.7-3a26.65,26.65,0,0,1-8,6.08,28.66,28.66,0,0,0,6.63-2.27,9.28,9.28,0,0,1-5.13,4.28,28.85,28.85,0,0,0,6.27-2.52,23.36,23.36,0,0,1-8,7.78,26.81,26.81,0,0,0,8.44-3.32,29.15,29.15,0,0,1-5.74,4.24c2-1,3.84-1.69,5.87-2.67a35.22,35.22,0,0,1-9.89,6.34,33.17,33.17,0,0,0,11.5-3.3,16.64,16.64,0,0,1-4.83,4.51c1.78-.72,3-1,4.77-1.7a16.51,16.51,0,0,1-11.44,5.87,29.34,29.34,0,0,0,10.68-2.47,20.36,20.36,0,0,1-8.12,4.89l7.36-2.15a25.8,25.8,0,0,1-9.12,5.18,17.22,17.22,0,0,0,11-5.07c-2.39,2.92-5.82,6.55-8.21,9.46,2.33-1.39,5-2.62,7.33-4-1.32,1.73-3.37,4.33-4.69,6.06,1.86-1.22,4-2.74,5.91-4A72.42,72.42,0,0,0,611,323a71.5,71.5,0,0,0-4.8-14.72,31.38,31.38,0,0,0,11.42-7.3l-5.92,6.81a27,27,0,0,0,6.94-4.58,49,49,0,0,1-10.15,9.49,37.55,37.55,0,0,0,12.64-8.25c-2.26,3.91-5,7.7-9,9.94a25.61,25.61,0,0,0,10.34-8.07,28.39,28.39,0,0,1-3.35,6.88l5.67-4.74c-2,3.11-4.8,6.94-6.8,10a27.65,27.65,0,0,0,7.26-6.63,24.16,24.16,0,0,1-3.65,7.63l6.73-6.86A29.57,29.57,0,0,1,621.69,325c3.23-2.74,6.49-5.3,9.72-8a27.81,27.81,0,0,1-4.89,9.31,29.89,29.89,0,0,0,5.25-5.09,9.68,9.68,0,0,1-3,6.32,30.1,30.1,0,0,0,4.8-5.16,24.38,24.38,0,0,1-4.07,10.88,28,28,0,0,0,6.5-6.88,30.41,30.41,0,0,1-3.55,6.55c1.48-1.82,2.88-3.3,4.36-5.13a36.74,36.74,0,0,1-6.53,10.38,34.61,34.61,0,0,0,9.4-8.22,17.36,17.36,0,0,1-2.56,6.4c1.36-1.47,2.39-2.25,3.75-3.72a17.23,17.23,0,0,1-8.2,10.62,30.63,30.63,0,0,0,9-7.06,21.25,21.25,0,0,1-5.5,8.22l6-5.3a26.92,26.92,0,0,1-6.31,8.94A18,18,0,0,0,644,338.4c-1,3.82-2.59,8.76-3.56,12.58,1.59-2.35,3.56-4.69,5.15-7-0.48,2.22-1.26,5.59-1.74,7.8,0.89-1.44,1.87-3.11,2.8-4.68q0.18,2.23.18,4.48l1-4.36,1.07,6a35,35,0,0,0-.63-14.07l2.58,6.66a145,145,0,0,0-5.46-18.18l5.32,9.81c-1.87-7.58-5.46-14.11-9.76-20.59l-0.37-.81c1.31,0.94,2.94,1.23,3.89,2.36-2.53-4-5.43-7.37-7.91-11.45l6.18,6.86A30.41,30.41,0,0,0,632,300l7.15,4.4c-2.93-4.85-7.71-10.06-12.9-12.34,2.08,0.62,4.5,2.54,6.58,3.16a15.59,15.59,0,0,0-10.2-5.22l3.8-1.2c-2,.62-5.17-0.59-8.7-0.91a76.5,76.5,0,0,0-8.67-5.61,6.71,6.71,0,0,0,1.4-4.24l0.06,0-0.06-.06a4.38,4.38,0,0,0-.07-0.46,25.75,25.75,0,0,1,4.21-1.74c5.84,3.26,20.08,15,23.54,20.68a26.34,26.34,0,0,0-10.71-14.12,16.1,16.1,0,0,1,8.26,5.31,70.57,70.57,0,0,0-6.82-7.93,26.48,26.48,0,0,1,12.45,12.83,76.26,76.26,0,0,0-6.42-11.81,19.59,19.59,0,0,1,5.44,5.07L636,279.38a28.64,28.64,0,0,1,11.78,11.43,13.74,13.74,0,0,0-3.23-8,19.3,19.3,0,0,1,6.79,8.85,18.82,18.82,0,0,0-3.76-9.08l4,4.44a35.55,35.55,0,0,0-4.28-7.11,34.15,34.15,0,0,1,12.19,13.4,39.4,39.4,0,0,0-6.33-11.51,21.88,21.88,0,0,1,4.7,4.82L655.51,282l3.23,2.41-3.85-6.3a29.08,29.08,0,0,1,13.31,14.43,30.35,30.35,0,0,0-5.1-11.83l6.27,5.32L667,281.85l3.46,2.07-1.34-2.31a17.12,17.12,0,0,1,7.8,7.65l-3.8-7,2.14,0.94a1.84,1.84,0,0,0-.62-1q2.8,0.8,5.56,1.71A21.25,21.25,0,0,0,673.09,280.92Zm-45.66-38c-0.7.44-1.41,0.88-2.15,1.29l1.79-1.5Zm1.33-2.69a25.52,25.52,0,0,0-2.53,1.35L619,236.16A27.19,27.19,0,0,1,628.75,240.24Zm-11.43-1.17a37.17,37.17,0,0,1,8.31,2.92,25.75,25.75,0,0,0-3.51,2.76l-0.51-.39,1.55-2.33c-0.84.47-1.69,1-2.53,1.6l-3.39-2.56,4.83,1.26Zm4.14,6.31c-0.59.59-1.14,1.21-1.67,1.86l-0.07-.05,1.32-2Zm-2.06-.87q-0.79.61-1.56,1.27l-5.88-4.4Zm-10.37.87a46.89,46.89,0,0,1,7.22,1.9,23,23,0,0,0-2.48,3l-0.16-.09a16.85,16.85,0,0,0,1.63-3.06,12.67,12.67,0,0,0-1.38,1.33L609,245.55Zm3.8,4.3-3.6-2.1,4.56,0.9A13.1,13.1,0,0,0,612.84,249.68Zm0.63,1c-0.22.33-.41,0.67-0.61,1l-0.09,0c0.16-.33.35-0.67,0.55-1Zm-1.07-.31c-0.16.26-.32,0.53-0.46,0.8q-2.26-1.23-4.62-2.27ZM611,253.59a12.72,12.72,0,0,0-.35,1.57l-0.19-.1L610,253.35Zm-1.22-.28a8.59,8.59,0,0,1-.14,1.33l-3.83-2A37.81,37.81,0,0,1,609.75,253.3ZM604.36,255a37.26,37.26,0,0,1,5,.79c-0.26,1.17-.59,2.47-0.76,3.83a64.49,64.49,0,0,0-4.48,6.31c-0.74-.89-1-2.21-0.15-2.87l-2.15.1A38,38,0,0,1,604.36,255Zm-5,.44a14.49,14.49,0,0,0-8.15-.85c0-.78,0-1.56-0.09-2.34A16,16,0,0,1,599.33,255.39ZM591,251.53c0-.32,0-0.64-0.07-1a21.5,21.5,0,0,1,3.42,1A20.44,20.44,0,0,0,591,251.53Zm-4.53,4.27a18.18,18.18,0,0,0-8.83,1.49q-0.87-1.16-1.8-2.28A20.58,20.58,0,0,1,586.51,255.8Zm-11.32-1.61-0.87-1a27.61,27.61,0,0,1,4.65-.11A26.56,26.56,0,0,0,575.19,254.18Zm-1.68-1.87q-1-1-2-2a27,27,0,0,1,10.18-.21A19.52,19.52,0,0,0,573.51,252.31Zm-0.92,4-5.42,6.46a13.85,13.85,0,0,1-1.13-1.89A38.1,38.1,0,0,1,572.59,256.27Zm5.43-13a29.25,29.25,0,0,0-8.36,3.36l9.72-1.07a33,33,0,0,0-9.46,3.21q-1.87-1.69-3.87-3.21A50.44,50.44,0,0,1,578,243.29Zm-11.83,8.66-2.85,3.69,4.16-2.73L563,258.7l6.73-5.3a60.91,60.91,0,0,0-5.77,6.91,13.12,13.12,0,0,0-5.06-3.21,47.23,47.23,0,0,1,4.11-3.62A28.73,28.73,0,0,1,566.18,251.95ZM566,263a12.59,12.59,0,0,0-.9-1.35l0.67-.6Zm-2.83-2.08a19.53,19.53,0,0,0-4.93-3.14l0.51-.54C560,258.51,562.09,259.63,563.2,260.92Zm-16.14-3,0.11-.16,1,0.31Zm1.09-1.54a37.27,37.27,0,0,1,8.65-8.32l-3.17,4.8,4-3-3.77,6.3a32,32,0,0,0-4.59-.94l3.66,2.5-0.16.27A25.64,25.64,0,0,0,548.15,256.39Zm4.63,1.63,0.23-.23,2.11,1.44A25,25,0,0,0,552.78,258Zm1.67-1.67,8.17-8.16-5.49,9.1Q555.82,256.76,554.45,256.35Zm-0.85,24.21c0.12-.54.25-1.07,0.39-1.61a17.67,17.67,0,0,0,3.5,1.65c0,0.07,0,.14,0,0.21C556.2,280.67,554.9,280.58,553.6,280.56Zm4.73,0.34h0Zm-0.68-3.71a4.68,4.68,0,0,1-1-.64l1,0.87c-0.06.56-.09,1.11-0.11,1.67l-3.27-1a37.84,37.84,0,0,1,2.93-7.48,22.74,22.74,0,0,0-1.13,6.91l3.2-6.89A25.24,25.24,0,0,0,557.64,277.19Zm1,2.26c0.08-.3.17-0.6,0.27-0.89l1.78,1.52Zm0.52-1.67a21,21,0,0,1,4-6.9,15.67,15.67,0,0,0-1.85,7.54C560.57,278.21,559.85,278,559.19,277.78Zm2.5,0.76a19.35,19.35,0,0,1,2.38-4.63,19.87,19.87,0,0,0-1,5Zm1.73,0.54A16.12,16.12,0,0,1,568.9,270a15.15,15.15,0,0,0-2.67,10.34A13.27,13.27,0,0,0,563.41,279.08Zm16.77,2.21a2.76,2.76,0,0,1-.43.86,40.56,40.56,0,0,0-12.22-.63,4.12,4.12,0,0,0-1.21-1.13,15.43,15.43,0,0,1,4.6-10.86,29.12,29.12,0,0,1,8.3,5.25l-2.71.43,3.57,2.91-1.44,1.15C579.64,279,580.46,280.29,580.18,281.29Zm2.2-9.11a6.74,6.74,0,0,0-1.3,1.59c-0.08.15-.16,0.3-0.22,0.45A63.84,63.84,0,0,0,569.32,266c-0.63-1.12-1.35-2.14-2-3.07a35.82,35.82,0,0,1,7.47-5.05l0.53,0.54a21.63,21.63,0,0,0-3.38,2.41,15.33,15.33,0,0,1,3.62-2.16,38.37,38.37,0,0,1,7.71,11.65,1.74,1.74,0,0,0-1.35.79Zm6.32-6.3c-0.3,1.8-.95,3.71-2.63,4.21a4.39,4.39,0,0,1-1,.15,60.32,60.32,0,0,0-7-12.41,20,20,0,0,1,10.27-.11A39.45,39.45,0,0,1,588.7,265.88Zm-0.61-31.61c2.89,1,6.57,2.13,9.41,3.16l-6.22-.28A23.92,23.92,0,0,1,597,240a21.56,21.56,0,0,0-7.68-.69C589,237.65,588.57,236,588.09,234.27Zm1.39,5.63a27.05,27.05,0,0,1,7.6,2.1,31.58,31.58,0,0,0-7.21-.1C589.74,241.23,589.62,240.56,589.48,239.9Zm0.61,3.19a35.93,35.93,0,0,1,6,1,22.73,22.73,0,0,0-5.77.25C590.21,243.93,590.16,243.51,590.09,243.09Zm0.26,1.76,6.15,1.27a24.85,24.85,0,0,0-6-.12C590.47,245.61,590.4,245.23,590.35,244.85Zm6.79,5.15a15,15,0,0,0-6.23-.36c-0.05-.59-0.12-1.17-0.18-1.76A20.8,20.8,0,0,1,597.14,250Zm1.74,12.4a13.74,13.74,0,0,0-1,1.2l-0.43,0a16.37,16.37,0,0,0,.72-6.72,28.79,28.79,0,0,1-2.3,6.93,10.36,10.36,0,0,0-2.36.82,22.42,22.42,0,0,0,.42-5.13,38.41,38.41,0,0,1-3.13,5.82,82.4,82.4,0,0,0,.43-10.48,15.67,15.67,0,0,1,9,2.38A31.14,31.14,0,0,1,598.88,262.4Zm0.68,42v0l0,0Zm0.14-1.9a12.82,12.82,0,0,0-.13-1.75c0.2,0.44.4,0.87,0.58,1.32Zm15.75-5.64a25.7,25.7,0,0,1-9.53,10.75q-1.21-2.62-2.62-5.14a23.09,23.09,0,0,0,8.43-5.12,21.22,21.22,0,0,1-4.87,5.7A18.88,18.88,0,0,0,615.45,296.9Zm-2.3-9.08c-1.67,4.78-6.14,9.39-11,10.8a18.31,18.31,0,0,0,11.49-8.39,19.28,19.28,0,0,1-10.34,12.25c-1-1.85-2.17-3.66-3.38-5.41a7.39,7.39,0,0,0,1.31-.83l0.38-.32c3.56-3.12,3.23-6.89,1.19-9.69a9.87,9.87,0,0,0,5-2.54A36.71,36.71,0,0,1,613.15,287.82Zm3-14.58a42.93,42.93,0,0,0-6.49,2.53,5.62,5.62,0,0,0-2.39-1.82l4.25-.31-4.33-2.1c1.34,0.15,1.78-2,.9-3a8.18,8.18,0,0,0-2.59-1.67,31.57,31.57,0,0,1,3-3.47,15.43,15.43,0,0,1,8.35,8.33A4.13,4.13,0,0,0,616.13,273.24Zm0.76-1.59a15.15,15.15,0,0,0-6.37-8.58,16.12,16.12,0,0,1,8.51,6.36A13.27,13.27,0,0,0,616.89,271.65Zm2.45-2.49a19.88,19.88,0,0,0-2.86-4.28,19.35,19.35,0,0,1,3.94,3.39Zm-3.16-7.42a21,21,0,0,1,6.27,4.9c-0.53.45-1.12,0.92-1.72,1.39A15.68,15.68,0,0,0,616.18,261.74Zm5.72,7.6,1.08-2.08c0.2,0.24.4,0.48,0.58,0.73Zm2.5-.12,0,0h0Zm-0.63-3.5,0.62-1.19a4.68,4.68,0,0,1-.73,1,25.24,25.24,0,0,0-3.94-5.49l5.56,5.18a22.74,22.74,0,0,0-3.65-6,37.87,37.87,0,0,1,5.53,5.83l-2.65,2.16C624.28,266.7,624,266.2,623.78,265.71Zm1.39,3.1-0.08-.2a17.67,17.67,0,0,0,2.62-2.85c0.33,0.44.65,0.89,1,1.35C627.48,267.61,626.31,268.19,625.17,268.81Z" transform="translate(-530.47 -190.9)"/></svg>