<svg id="BACKGROUND_2" data-name="BACKGROUND 2" xmlns="http://www.w3.org/2000/svg" viewBox="0 0 42.07 11.47"><defs><style>.cls-1{fill:#2c4e80;}</style></defs><title>ROCK SHADOW ON WATER</title><path class="cls-1" d="M1088.41,441.45c4,0,10.35-2.06.38-2.06H1056.2c-5.46,0-6.09,1.8,1.41,1.8s4.35,0.9-1.19.9-5,.68.64,0.68,6.57,1,.77,1-3.42,1,5.94,1,5.19,1.32-1.4,1.32-3.66,1,1.22,1,2.52,1.16.14,1.16-3.24,1.16,1,1.16,8,0.84,4.13.84-4.16.65,4,.65,6.33-1.49,2-1.49-4-1,1.89-1,5.79-.66,1.74-0.66-3.88-.86,3.61-0.86,9.17-1.23,2.06-1.23-3.25-.87,2.71-0.87,6.46-1.49.51-1.49S1084.42,441.45,1088.41,441.45Z" transform="translate(-1052.05 -439.39)"/></svg>