<svg id="BACKGROUND_2" data-name="BACKGROUND 2" xmlns="http://www.w3.org/2000/svg" viewBox="0 0 750 169.04"><defs><style>.cls-1{fill:#15262f;}</style></defs><title>ROCKS</title><path class="cls-1" d="M1280.47,333.94a9.89,9.89,0,0,1-3.3,1.88c-2,.48-2.92-1.24-4.25-2.58-2-2-2.81-2.39-5.75-2.27-8.4.36-3.85,14.73-9,19.14-4.31,3.69-9.51,1.53-10.17-4-1.82,0-4,2.2-4.66,3.9-0.71,1.91.31,3.55-.88,5.27s-2.69,2.43-3.57,4.67a26.16,26.16,0,0,0-1.76,6,61.63,61.63,0,0,1-.72,6.74c-0.42,1.9-.33,7-2.17,8.14-1.67,1.08-4.71-.31-6.63.36-2.59.9-4,3.64-5.11,5.83-2.47,4.69.8,7.72-1.51,12.66a40.17,40.17,0,0,1-3.38,5.12c-0.51.77-1.32,2.87-2.47,3.07s-3.12-1.48-3.95-2.1c-2.45-1.83-2.29-4.1-3.56-6.76a14.21,14.21,0,0,0-2.75-3.82c-1-1.14-2.59-2-3.5-3.17s-0.9-5.3-3-4.95c-0.08,2.1-1.84,3.55-1.25,5.95,0.3,1.22.89,1.54,1.07,2.93a24.64,24.64,0,0,1,0,3,14.39,14.39,0,0,1,.08,3c-0.35,1.43-1.38,1.91-2.32,2.93-2.34,2.53-1,3.57-.25,6.55a15.87,15.87,0,0,1,.56,6.52c-0.38,1.78-1.49,2.57-3.15,1.3-1.14-.88-0.55-1-0.92-2.31a20.1,20.1,0,0,0-1-2.5c-0.44-1.09-.87-1-1-2.47-0.25-2.21-.89-3.66-1.14-5.86q-0.82-.18-1.64-0.32c-0.73-1.94-2.08-12.92-5-11.79,0.11,2.31-2.56,2.43-2.24,4.94,0.28,2.21,1.95,3.68,2.09,6a7.69,7.69,0,0,1-1.24,5c-0.58.91-1.95,1.83-1.9,3.05,0,0.77,1,1.14,1.18,1.9,0.8,3.14.46,9.15-.81,12.07-0.42,1,.09,1.92-1.19,2.12-1.13.18-1.56-.91-2-1.6-0.53-.87-0.12-2.22-1-3s-1.15-.27-2-0.54c-1.56-.46-3.56-0.71-5.05-1.71s-2-2.79-2.7-4.3c-1.33-2.66-3.06-9.45-6.76-6-2.17,2-1.38,9-5,6.09-1.73-1.39-3.2-4.24-4.5-6a50,50,0,0,1-5.07-8.74c0.18,1.92-.1,3.8.3,5.67,0.43,2,1.42,4,1.83,6,0.74,3.74-.37,8-1.15,11.5s-1.95,7-1.9,10.5c0,3.22.44,6.84,0,10-0.3,2.3-2.08,7-4.61,7.91-2.88,1.09-7.86-4.2-9.69-5.93-1-.92-3.2-4.5-4.8-4.14s-0.93,3.31-.93,4.64a29.07,29.07,0,0,1,0,5c-0.29,1.53-1.39,2.34-1,4.11-2.1-1.47-.21-3.63-1.26-5.45-1.19-2-4.1-1.49-5.26.25-2.11,3.16,2.39,11.07-4,9.47-2.5-.62-5.08-2.27-7.55-3.2-1.45-.54-5.42-2.74-6.8-1.57-0.45.38-.27,2.59-0.37,3.07a24.32,24.32,0,0,0-.8,3.75c0,0.6-.05,1.19-0.07,1.78-10-.48-20.08-0.82-30.15-0.72-48.09.47-94.18,10.87-142.28,11.35-36.5.36-72.18-5-108.41-7.28-18.72-1.18-37.56-1.52-56.43-1.62a13.43,13.43,0,0,0-1.66-.4c-1.45-.24-2.6,0-4-0.62-1.65-.76-2.73-2.23-4-3.48a6,6,0,0,0-3.51-2c-1.42-.38-1.61-0.07-2.4-1.41-1.29-2.16-.89-8.47-4.06-8.73-2.43-.2-3.7,2.82-5.5,3.7-2.76,1.34-3.78-1.27-4.28-3.61-1-4.5-.73-10.71-3.87-14.41-1.59-1.87-3.62-1.22-4.67-3.62-2.2-5-.76-11.61-2.17-16.92-0.4-1.5-2.54-6-4.36-5.94-0.66,1.45-.17,3.8-0.15,5.35a31.87,31.87,0,0,1-.73,7.45c-0.71,3.18-2.91,5.37-4.29,8.1-2.64,5.23.45,11.57-1.2,16.95-2.49-.43-2.6-4.75-5.58-1.94a6.51,6.51,0,0,0-2,7c0.5,1.86,1.75,2.46-.67,3-1.48.36-3.49-.13-5-0.08a27.36,27.36,0,0,0-7.54,1.54c-1.36.46-2.13,1.3-3.46,1.54-5.2.94-3.54-5.91-3.54-9.07,0-4.48.21-9,0-13.48-0.06-1.27.16-2.19-1-3s-2.35.08-3.47-.49c-1.8-.92-2.36-5-2.75-6.79-3,.16-3.82-4.57-3.87-6.67a51.76,51.76,0,0,0-1.11-8.33,8.35,8.35,0,0,1-6.12-4c-0.91-1.31-1.94-3.69-3.51-4.09-0.07,1.1-.82,1.62-1.1,2.53a38.74,38.74,0,0,0-1,5c-0.52,3.27-1.58,6.12-2.37,9.3-1.47-.38-0.55-6.32-1.93-7.95-0.74-.87-1.58-0.84-2.35-1.56-0.61-.57-1.06-1.86-1.69-2.26-1.36-.87-3.06-0.15-4.58-1.4-1-.86-1.26-1.52-2.66-1.79-1.87-.35-2.57.26-4.16-0.93s-1.56-2.15-2.49-3.42c-1.25-1.7-1.1-1.27-3.06-.86a22.63,22.63,0,0,1-6.87.27c-2.77-.35-1.24-1.87-3.18-2.9-0.7-.37-3.1.55-3.81,0.85a11.55,11.55,0,0,0-3,1.49c-2.12,2-2.06,5.85-6,5.58-5-.35-4.14-6.68-8-8.79-2.61,1-2.23,3.43-5,3.77-2.36.29-3.06-.65-5-1.07-2.29-.51-3.26.12-4.8-2.17-1.42-2.11-1.7-4.28-2.43-6.64-1.12-.26-2.64.31-3.62-0.33s-0.69-1.83-1.4-2.6c-1.21-1.31-1.63,0-2.55-2.35-0.74-1.85-.82-3.9-1.48-5.77-2.2.74-3.93,3.25-5.8,4.69-1.62,1.25-2.82,3.46-4.7,4.49-5.08,2.79-3.28-9.35-3.28-12.21,0-3.07.72-7.35-1-10.1-1.22-2-2.89-1.69-5-2.17-3.28-.75-4.05-1.53-4-4.78,0-2.13.41-4.88-.21-6.9-1.51.48-3.21,2.16-4.57,3.17-0.95.71-3.32,3.62-4.27,3.65-2.49.06-3.12-8.73-4.7-10.57-1.44.79-2.12,2.75-3.2,3.87l-2.75,2.83V500h750V333.94Z" transform="translate(-530.47 -330.96)"/></svg>