<svg id="BACKGROUND_2" data-name="BACKGROUND 2" xmlns="http://www.w3.org/2000/svg" viewBox="0 0 267.07 230.69"><defs><style>.cls-1{fill:#15262f;}</style></defs><title>SHIP</title><path class="cls-1" d="M1028.09,337.44c2.84-2.86,4.5-4.66,4.52-5v-0.29l-0.16-.19c-0.24-.28-0.45-0.52-5.46,3.62L998.78,301a3,3,0,0,1,.72,0c2.11,0.34,3.46,2.76,4.68,4.85s3,4.27,5.12,3.8c1.65-.37,2.71-2.25,3.77-3.83,0.81-1.21,2.52-3.26,3.9-2.17,1.17,0.92.81,3.72,1,5.1,0.35,2.13,2.09,3.8,3.9,3.73s3.46-1.86,3.7-4a2.94,2.94,0,0,1-5.78,0c-0.8-2.55.74-5.89-.77-7.92s-4.55-.65-5.74,1.2-1.52,3.95-4.1,4a4.36,4.36,0,0,1-3.82-2.44c-1-1.8-1.05-4.32-2.47-5.62-1.69-1.56-4.1-.73-6.24.68L953.24,245.3c0.38-7.32.68-13.66,0.88-18.62a1.24,1.24,0,0,1,.91-0.37c1,0.08,1.76,1.09,2.36,2.05,1.06,1.68,2,2.78,3.7,2,1.39-.67,2.65-1.64,4-0.12a10.75,10.75,0,0,1,1.51,2.91,3.37,3.37,0,0,0,2.08,2.18c1.16,0.2,2.2-.94,3.37-1,1.54-.12,2.72,1.51,3.73,2.91,1.35,1.87,2.39,1.88,4.18,2.34h0.05a8.5,8.5,0,0,1-5.17-5,10.68,10.68,0,0,0-1.12-2.44,1.5,1.5,0,0,0-2.09-.54c-0.33.27-.52,0.73-0.83,1-0.76.73-2,.2-2.57-0.71a16.25,16.25,0,0,1-1.27-3.15c-0.42-1.06-1.15-2.1-2.13-2.15s-1.95,1.07-3,1.19-2.18-1-2.81-2.19a14.64,14.64,0,0,0-2-3.48,2.06,2.06,0,0,0-2.79-.33c0.13-4.26.12-6.67-.06-6.69-0.4,0-1.37,11.21-2.6,28.32l-0.21-.26v3.26c-0.28,3.93-.57,8.13-0.87,12.54-5.46-2.76-11.41-3.87-17.26-5,5.81,5.43,10.63,12.92,11.91,21.63,1.25,8.5-1.15,17.66-6.22,23.76a22.86,22.86,0,0,1-4.06,3.82l-58.07-55.6c-0.07-7.5-.16-14-0.27-19a1.28,1.28,0,0,1,.89-0.45c1,0,1.82.93,2.48,1.84,1.16,1.58,2.2,2.59,3.81,1.63,1.34-.8,2.54-1.87,4-0.48a10.39,10.39,0,0,1,1.68,2.76,3.25,3.25,0,0,0,2.21,2c1.17,0.09,2.14-1.14,3.3-1.33,1.53-.26,2.8,1.27,3.9,2.57,1.47,1.74,2.5,1.66,4.31,2h0.05a8.18,8.18,0,0,1-5.47-4.56,10.34,10.34,0,0,0-1.27-2.34,1.48,1.48,0,0,0-2.11-.35c-0.31.3-.47,0.77-0.76,1.1-0.72.79-1.94,0.38-2.61-.48a15.77,15.77,0,0,1-1.46-3c-0.48-1-1.28-2-2.26-2s-1.87,1.24-2.93,1.45-2.24-.8-2.94-1.93a14.11,14.11,0,0,0-2.19-3.3,2.05,2.05,0,0,0-2.8-.08c-0.13-4.26-.29-6.66-0.47-6.66-0.52,0-.82,18.87-1,44.91-12-3.59-25-7.11-30.14-8.92,7.5,2.76,13.95,9.38,17.39,17.85a41.45,41.45,0,0,1,1,27.47,33.68,33.68,0,0,1-13.41,18.14l-1,.08a76.24,76.24,0,0,0-21.71,5.37,70,70,0,0,1,32.3,3.33,74.63,74.63,0,0,1,10.09,4.37L852.24,361.3c-5.9-11.31-14.49-21-23-28.8l0,0a4.66,4.66,0,0,1,5,.12c1.76,1.18,3.25,3.62,5.24,3.23a6.9,6.9,0,0,0,2.45-1.53,2.24,2.24,0,0,1,2.62-.39c1.06,0.79,1,2.82,2,3.71a2.28,2.28,0,0,0,2.57,0,10.21,10.21,0,0,1,2.49-1.18c1.31-.24,2.58.55,3.74,1.32s2.39,1.6,3.71,1.46,3-2.09,2.51-3.57a2.32,2.32,0,0,1-3,2.12c-1.3-.43-2.27-1.69-3.31-2.73s-2.38-2-3.67-1.52-2.11,1.94-3.37,1.91c-2.15-.05-2.64-4.27-4.73-4.84-1.51-.41-2.87,1.36-4.41,1.42-2,.08-3.21-2.47-4.87-3.76a5.88,5.88,0,0,0-6.62,0,11.56,11.56,0,0,0-1.7,1.24l-0.83-.71L823,297.28a1,1,0,0,0-1-1.08,1.13,1.13,0,0,0-.89,1.26L823,327.09a159.54,159.54,0,0,0-21.28-14.77l-3.81-5.13a0.43,0.43,0,0,0-.69,0,0.67,0.67,0,0,0,0,.83l20.62,27.75-6,25.12c-5.34-13.38-15.06-24.4-23.95-32.36l-1.53-20.62a1,1,0,0,0-1.06-1.06,1.13,1.13,0,0,0-.88,1.27l1.38,18.58a125.62,125.62,0,0,0-16.19-11.82l-3.16-4.51a0.43,0.43,0,0,0-.69-0.07,0.67,0.67,0,0,0-.06.83l21.18,30.2,2.62,35.33a47.6,47.6,0,0,1-4.65,7.18l-14.2,9.68-1.82-.71a1,1,0,0,0-1.23.75,1.23,1.23,0,0,0,.62,1.48l10.58,4.14,0.34,4.12h1.14c0.65,6.83,4.14,15.86,4.14,15.86h1.46l1.22,8.15h1l4.06,18.45h187s0-2.15,8.77-21.38c5.29-11.62,18.84-17.6,28.75-20.52l0.25,2,2.6-.54-0.17-2.16a74.3,74.3,0,0,1,8.75-1.77v-2.34l-9,1.4-0.16-2-2.94.55,0.24,1.89-22.9,3.57A259.35,259.35,0,0,0,1028.09,337.44Zm-9.66,66.82-0.74.15-0.11-.88,0.78-.21Zm-1.32-4.38,1-.18,0.06,0.8-0.92.14Zm-41.67,7-1-12.65-6.17-.37c8-7.43,17.08-15.86,25.82-24a15.75,15.75,0,0,1,4,1.62,12.77,12.77,0,0,1,2.3,1.75C989.9,387.45,980.09,400.69,975.44,406.91ZM962.9,393.59c8.45-7.59,18-16.13,27.27-24.36a21.89,21.89,0,0,1,2.66.33c-8.7,8.15-17.79,16.61-26,24.25Zm-55.58-68.23q-5.52-2.3-11.21-4.05a9.77,9.77,0,0,1,10.31,0c2.89,1.76,4.34,6,7.68,6.69a6.3,6.3,0,0,0,6.25-2.67c0.72-1,1.38-2.28,2.46-2.42s2.14,1.26,2.5,2.65c0.65,2.53.76,5.45,3.49,5.91,3.7,0.62,3.58-3.35,5.41-5.55a1.76,1.76,0,0,1,2.72-.28c0.67,0.83.53,2.25,1.14,3.14a1.43,1.43,0,0,0,2,.43,1.46,1.46,0,0,0,.63-1.12,1.34,1.34,0,0,1-1.6,0,4.86,4.86,0,0,1-1.13-2.74,3.9,3.9,0,0,0-1.28-2.6c-1.32-.82-2.77.81-3.49,2.36s-1.53,3.48-3,3.62c-1.7.16-2.76-2.16-3.22-4.14s-1.05-4.36-2.71-4.87c-1.31-.41-2.62.63-3.57,1.79s-1.83,2.52-3.1,3.06a4.32,4.32,0,0,1-4.36-1.11,39.47,39.47,0,0,1-3.39-3.79,14.91,14.91,0,0,0-13.4-5,15.45,15.45,0,0,0-8.28,4.47h0c-1.95-.46-3.9-0.89-5.86-1.26v-6h1.46v-2.1h-6.59q0-.92,0-1.84a88.7,88.7,0,0,1,28.52,1c3.18,0.63,6.47,1.52,9,4s3.86,7,2.29,10.35a32.08,32.08,0,0,0,3.94-15.43,18.73,18.73,0,0,0,6.26,2.18c6.22,4.71,12.72,9.36,18.21,15.2l-6.45,22.14C930.19,336.91,918,329.8,907.33,325.36Zm-32.42,81.84h-0.54v-1.37l0.54,0C874.9,406.31,874.91,406.76,874.91,407.19Zm-1.52,0h-0.87v-1.4l0.87,0v1.38Zm-1.84,0h-0.87V405.7l0.87,0v1.41Zm-1.84-1.46v1.43h-0.87v-1.41s0,0,0,0l0.88,0h0Zm-1.84,0v1.4H867v-1.38a0.63,0.63,0,0,0,0-.1l0.9,0A0.66,0.66,0,0,0,867.86,405.68Zm-1.84,0v1.37h-0.87v-1.35a0.67,0.67,0,0,0,0-.15l0.92,0A0.66,0.66,0,0,0,866,405.68Zm-1.84,0V407H863.3v-1.33a0.69,0.69,0,0,0,0-.21l0.93,0A0.67,0.67,0,0,0,864.17,405.68Zm-0.87,2.5h0.87v2l-0.87,0v-2Zm1.84,0H866v2l-0.87,0v-2Zm1.84,0h0.87v2.09l-0.87,0v-2.06Zm1.84,0h0.87v2.13l-0.87,0v-2.11Zm1.84,0h0.87v2.17l-0.87,0V408.3Zm1.84,0h0.87v2.21l-0.87,0v-2.19Zm1.84,0h0.55c0,0.86,0,1.61,0,2.24l-0.55,0v-2.23Zm2.7,0h0v2.28h0C877.06,410,877.06,409.28,877.06,408.4Zm1,0h0.87v2.3l-0.87,0v-2.29Zm1.84,0h0.87v2.33l-0.87,0v-2.32Zm1.84,0h0.87v2.35l-0.87,0v-2.34Zm1.84,0h0.87v2.36l-0.87,0V408.5Zm1.84,0h0.87v2.37l-0.87,0v-2.37Zm1.84,0h0.87V411l-0.87,0v-2.38Zm1.84,0H890V411h-0.87v-2.38Zm0.87-1.16h-0.87v-1.19l0.87,0v1.19Zm-1.84,0h-0.87v-1.21l0.87,0v1.2Zm-1.84,0h-0.87v-1.22l0.87,0v1.22Zm-1.84,0h-0.87v-1.25l0.87,0v1.24Zm-1.84,0h-0.87V406l0.87,0v1.26Zm-1.84,0h-0.87V406l0.87,0v1.28Zm-1.84,0H878v-1.32l0.87,0v1.31Zm-1.84,0h0c0-.42,0-0.87,0-1.33h0v1.33Zm0-24.38c5.44-4.92,10.26-9.73,13.79-13.39-0.15,1-.33,2-0.55,2.92a53.47,53.47,0,0,1-13.27,24.32C877.1,392.67,877.11,388,877.12,382.85Zm-44.41,16.69,5.77-10.67,1.46-.18-5.55,11Zm2.79,0.2,5.65-11.18,1.55-.12-5.35,11.43Zm8.35-11.37c0.74,0,1.45,0,2.14,0l-5,11.77-2.59-.16Zm-1.76,11.79,5-11.82c0.87,0,1.7.06,2.49,0.13l-4.39,11.85Zm16.54-21.24q-0.39-1.89-.89-3.74l12.21-36.85Zm11.9-39-10.83,46.82c-0.12-1.91-.35-3.79-0.65-5.64Zm-19.19,60.62-2-.07,3.84-11.58c0.93,0.16,1.77.34,2.5,0.53l-2.89,10.34C852.3,400.06,851.81,400.32,851.33,400.57Zm5.93-27.1c-0.16-.53-0.32-1.05-0.49-1.58l9.67-26.14Zm-5.07,15.29-3.88,11.7-2.09-.09,4.37-11.81C851.15,388.62,851.67,388.69,852.18,388.76Zm1.41,11.87c1.1-.62,2.22-1.27,3.34-2l-0.47,2-2.87-.05h0Zm0.42-1.52,2.62-9.4c0.94,0.27,1.67.53,2.19,0.74l-1.54,6.65C856.19,397.81,855.1,398.48,854,399.11Zm5.73-8.26,0.05,0c0-.08,0-0.17,0-0.25l13.67-59.05,1.35,0.83c0,18.87,0,36.85,0,51a155.18,155.18,0,0,1-16.37,12.9Zm21.4-73.18-1.12-.19v-5.66h1.12v5.86Zm-2-.34-1.12-.18v-5.34h1.12v5.51Zm-5.22-.72-1.12-.12v-4.67h1.12v4.79Zm-2-.22-1.12-.11v-4.46h1.12v4.58ZM877.16,334a34.42,34.42,0,0,1,7.91,7.51c5.1,6.86,7.07,17,6.07,26.19-3.45,3.6-8.39,8.58-14,13.72C877.14,368,877.16,351.38,877.16,334Zm149.75,3.21c-5,4.89-13.33,12.86-23,22-0.18-.54-0.37-1.07-0.56-1.6,9.8-8.64,18.32-16.08,23.52-20.46Zm-27.84,11.46a56.55,56.55,0,0,0-3.37-5c7.7-3.59,11.59-10.88,12.45-12.67l17.68,5.54c-4.21,3.53-11.22,9.6-22.92,19.94A52,52,0,0,0,999.07,348.64ZM954.49,313l0.16-2.64,1.46,0.13,0.11-1.83c5.17,0.72,10.58,3.16,14,7.61a51.29,51.29,0,0,0,2.56-12.76l0.59-.61a8.94,8.94,0,0,1,4.07-2.82,3.41,3.41,0,0,1,4,2.14c0.8,2.28-.75,4.87-0.36,7.3a4.3,4.3,0,0,0,5,3.54c2.1-.42,3.84-2.19,5.26-4.1s2.81-4.52,4.48-6.3l0.07-.07,29.15,32.5Zm-9.87,24.42-2.07,14.82c-0.2-.31-0.4-0.61-0.6-0.92Zm-3.46,12.81-0.59-.8,3.26-13.11Zm4.28-11.59c-0.35,5.72-.69,11.3-1,16.68q-0.51-.91-1.05-1.8Zm6.11-28.56-0.12,2-1.1-.34,0.11-1.72ZM950.19,314l0.07-1.13,1.1,0.34-0.07,1.13Zm-4-1.21-1.1-.31,0.18-3,1.11,0.1Zm6,1.86,0.07-1.16,1.1,0.34-0.07,1.2Zm0.14-2.35,0.13-2.15,1.11,0.1-0.15,2.4Zm40.52-10.55c-2.09,2.23-3.35,5.44-5.57,7.47a2.63,2.63,0,0,1-3.32.49c-1.46-1.1-1.29-3.72-.73-5.68s1.33-4.17.52-6a3.61,3.61,0,0,0-3.08-2.08,9.25,9.25,0,0,0-3.62.73l-4.09,1.42A51.85,51.85,0,0,0,970.3,283c-3.35-10-9.84-18.3-17.84-23q0.15-2.76.3-5.41l41.29,46C993.57,301,993.15,301.39,992.81,301.76Zm-48.46,7.68-0.18,2.84-1.1-.28,0.16-2.66Zm-3.07,33.06-1.48,5.94-0.18-.24Zm-9.65,38.82L928,396l-2.37.29L930,381Q930.84,381.15,931.63,381.32ZM929,395.84l3.55-14.3a17.54,17.54,0,0,1,2.4.81l-2.51,13.06Zm6.88-13.08a14.92,14.92,0,0,1,1.37.77c0.28,0.18.55,0.38,0.82,0.58l-1.51,10.8-3.09.37Zm3.08,2.09a14.57,14.57,0,0,1,3.36,4.53l-0.29,4.89-4.46.53Zm10.77-13.75a45,45,0,0,0-3.28-11.6c0.61-9.66,1.26-20.1,1.91-30.81,0.72,0.91,1.42,1.84,2.09,2.8,6.46,9.41,10.57,21.87,8.7,33.86-1.49,9.53-6.46,17.57-12,24.75A34.45,34.45,0,0,0,949.76,371.11Zm4.58-55.69,0.08-1.24,52.75,16.52c-1.08,2.1-5,8.85-12.17,12.06a76.05,76.05,0,0,0-19.86-17.17A112.52,112.52,0,0,0,954.34,315.42Zm49.91,44.92c7.41-7,14.13-13.38,19.16-18.28l-17.76,24.06A51.45,51.45,0,0,0,1004.25,360.35Zm8.4-40.65-16-17.82a4.91,4.91,0,0,1,1-.56ZM995.8,299.07c-0.33.25-.66,0.5-1,0.76l-42-46.83q0.17-3.16.33-6.12Zm-53.69,10.35-0.14,2.3c-2.52-.59-5.06-1.08-7.6-1.48l1.78-.12C938.14,310,940.13,309.69,942.11,309.41ZM920.82,307a40.4,40.4,0,0,0-3.07-15.31,41.92,41.92,0,0,0-4.09-7.46L934,303.68A19.76,19.76,0,0,1,920.82,307Zm-44-58L900,271.14c-0.75-.48-1.5-0.94-2.26-1.38-3.48-2-11.72-4.73-20.8-7.48C876.94,257.59,876.91,253.14,876.87,249ZM850,316.22a82.19,82.19,0,0,1,24.83-8q0,0.76,0,1.52h-6.59v2.1h1.46v4.38A119.41,119.41,0,0,0,850,316.22Zm6.24,54.19q-0.36-1-.75-2l12.25-29ZM855,367.07c-0.18-.43-0.35-0.85-0.54-1.28l10.94-23.36Zm-1.09-2.49-0.28-.62,7.73-15.3Zm5.3-13.91L853,362.82l-0.21-.42Zm-27.56,48.78-1.89-.15-0.55-8.38a66.89,66.89,0,0,1,8.06-1.86Zm-31-19.81a95.91,95.91,0,0,1-8.37,8l-0.44-5.93A47.49,47.49,0,0,1,800.59,379.64Zm1.61-.17a35.22,35.22,0,0,1,5.14-.08l-4.13,17.25c-3.76-.46-7.27-0.92-10.42-1.37l-0.47-6.32A97.73,97.73,0,0,0,802.2,379.47Zm6.14,0a20.64,20.64,0,0,1,7.53,1.91,54,54,0,0,0-2.51-16.14,150,150,0,0,0,10.92-18.84l2.5,38a51.2,51.2,0,0,1-7.4,10.07c2.75-1.2,5.37-2.18,7.86-3l0.5,7.62c-8.14-.68-16.27-1.52-23.55-2.39Zm20.17,1.66-2.23-34,6.61,8.9A43.87,43.87,0,0,1,828.51,381.12Zm-9.94-44.36,5.56,7.48v0.08A145.32,145.32,0,0,1,812.95,364q-0.26-.77-0.54-1.52ZM789,344.4l5.34,7.61a40.28,40.28,0,0,1-3.21,21.07ZM771.85,394l15.79-10.76c0.76-.31,1.5-0.6,2.23-0.87l0.5,6.77a74.68,74.68,0,0,1-6.63,4.71,36.18,36.18,0,0,1-5.54-1.32l0.34,4.07Zm13.5,0.15q2.64-1.73,5.13-3.68l0.34,4.55C788.8,394.68,787,394.39,785.35,394.11Zm73.7,6.6h-1.58l0.65-2.82a150.83,150.83,0,0,0,16.73-13c0,8.13,0,14.92,0,19.79l-13-.41C861.5,402.16,860,403,860,403Zm2.92,4.73h0.4a0.68,0.68,0,0,0,0,.24v4.41l-0.35,0v-4.65Zm56-4.14-2.92,9.37c-6.72.43-15.57,0.46-24.11,0.34v-4.74h0.61a0.6,0.6,0,0,0,0-1.17c-1.57,0-7.95-.18-14.49-0.37,0-2.16,0-4.69,0-7.55,14.38-10.83,31.27-16.62,48.15-16.45,1.26,0,2.54.07,3.81,0.2l-4.5,15.47-1.69.21-1.95,4.69H918Zm29.24-7.62c9.3-14.08,23.65-23.22,38.58-24.39,0.93-.07,1.86-0.11,2.79-0.1-12.12,10.78-23.18,20.69-27.22,24.32-4-.22-7.55-0.41-8.32-0.41C952.55,393.09,950.29,393.33,947.22,393.67ZM976.69,407c3.5-4.67,10.49-14.06,24.47-33a15.81,15.81,0,0,1,4.26,9.84,43.32,43.32,0,0,0,.48-16.25l20.21-27.39a262.61,262.61,0,0,1-34.24,64.43Z" transform="translate(-765.54 -215.02)"/></svg>