<svg id="BACKGROUND_2" data-name="BACKGROUND 2" xmlns="http://www.w3.org/2000/svg" viewBox="0 0 136.87 120.07"><defs><style>.cls-1{fill:#e8ffff;}</style></defs><title>SUN WITH BRIGTNESS</title><circle class="cls-1" cx="64.38" cy="67.96" r="36.5"/><path class="cls-1" d="M924.76,67.81c16.17,10.53,24.76,31.53,20.61,50.38,8.81-19.9.85-45.7-17.63-57.19-16.13-10-41.48-8.6-55,5.49,8.14-.25,16.17-6,25.08-6.16A48,48,0,0,1,924.76,67.81Z" transform="translate(-837.03 -36.54)"/><path class="cls-1" d="M857.15,126a49.64,49.64,0,0,0,3.22,6.39A46.34,46.34,0,0,0,884.91,152c-16.46-2.25-30.17-9.16-33.73-26.27-1.29-6.18-4.09-23.87,3.88-26.48C850.72,105.49,853.51,117.44,857.15,126Z" transform="translate(-837.03 -36.54)"/><path class="cls-1" d="M844.61,66c-10.91,17-8.39,33.73-2.71,51.19-4.36-15.42-.93-33.64,7.5-46.87a60.65,60.65,0,0,1,49.68-27.52C878.52,38.73,855.93,48.35,844.61,66Z" transform="translate(-837.03 -36.54)"/><path class="cls-1" d="M956,129.8a50.25,50.25,0,0,0,0-47c11.48,13.51,13.73,34.13,5.42,49.79-7,13.26-26.87,27.78-42.74,23.15C934,150,947.5,145.51,956,129.8Z" transform="translate(-837.03 -36.54)"/><path class="cls-1" d="M957.26,50.74C943.55,36,929.62,35.06,911.18,37.68c18.91-2.68,30.19,6.09,42.52,18.45a70.4,70.4,0,0,1,20.1,43.32C974.67,81.86,969.26,63.63,957.26,50.74Z" transform="translate(-837.03 -36.54)"/></svg>