<svg id="BACKGROUND_2" data-name="BACKGROUND 2" xmlns="http://www.w3.org/2000/svg" viewBox="0 0 750 108.68"><defs><style>.cls-1{fill:#dafffd;}</style></defs><title>WATER CURVE ORIGINAL</title><path class="cls-1" d="M1280.47,454.64c-15.79,3.35-31.25,8.24-47.59,9.14a225.51,225.51,0,0,1-47.57-3c-41.65-6.76-70.6-31.37-114.59-20-22.21,5.74-42.86,15.13-65.38,20.48s-43.36,5.38-66.27,3.92c-30.44-1.94-58.72-8.87-89.16-5-23.3,2.94-45.82,8.15-69.3,9.64-18.8,1.19-38.26-1.37-56.42-4.11-21.9-3.3-44.48-5.73-66.3-11.5-20-5.3-39.79-12.89-60.37-16.12-22.42-3.52-45-2-67.06,2.27V544.79h750V454.64Z" transform="translate(-530.47 -436.11)"/></svg>