<svg id="BACKGROUND_2" data-name="BACKGROUND 2" xmlns="http://www.w3.org/2000/svg" viewBox="0 0 156.82 196.35"><defs><style>.cls-1{fill:#15262f;}</style></defs><title>COCONUT RIGHT</title><path class="cls-1" d="M1270.22,80.64c3.46,7.84,6.88,16.25,10.24,25.13V35.09l-0.43.82a7.17,7.17,0,0,1-1.54-.36c-2.68-1-3.5-4.21-3.76-7.18a64.34,64.34,0,0,1,1.57-13.22,27.71,27.71,0,0,1,4.17-.48V12.26c-0.31,0-.62,0-0.93,0,0.31-.08.62-0.14,0.93-0.22V0h-7c-0.1.57-.21,1.13-0.3,1.7A24.42,24.42,0,0,0,1263,1.51,31.69,31.69,0,0,1,1267.26,0H1242.4q-1.84.74-3.65,1.55c-0.2-.46-0.42-0.91-0.65-1.36L1239,0h-29.85l-9.37,8.46a33.21,33.21,0,0,1,10.68-4.58,38,38,0,0,0-9.52,9.59c4.38-2.57,9.8-6.2,14.18-8.77l-6.82,7.52c3.19-2.08,6-3,9.63-4.22a35.21,35.21,0,0,0-11.67,13.74c3.3-5.26,8.66-8.87,14.16-11.76a51.6,51.6,0,0,0-9.15,11.34l-2.15-2a28.6,28.6,0,0,0,1.53,3.09c-0.53.94-1,1.9-1.5,2.88a65.9,65.9,0,0,0-21.43-6.56l18.68,9.62a74.82,74.82,0,0,0-28.07-6.12L1192,27A72.62,72.62,0,0,0,1156,24.73,75.72,75.72,0,0,1,1178.12,29a61.45,61.45,0,0,0-23.87.74,55.93,55.93,0,0,1,13.84,1.48l-9.64.28,6.35,1a55.57,55.57,0,0,0-25.16,4.21,14.76,14.76,0,0,1,9-.3l-15.48,2.51,4.5-.25-12.31,4.81a22.19,22.19,0,0,1,10.22-1.07,34.66,34.66,0,0,0-12,4.07c3.07-.77,6.16-1.46,9.25-2.1a3,3,0,0,0-1.12,1.48l3.6-1.27-7,10.9A27.93,27.93,0,0,1,1142,44l-2.47,3.59,5.88-2.94L1141,51.23l10.85-7.88A49.5,49.5,0,0,0,1142.13,62a47.44,47.44,0,0,1,23.44-21.83l-7,9.77,5.55-3.52-4.43,7.18a35.69,35.69,0,0,1,8.24-7.26,64.26,64.26,0,0,0-11.73,17.94A55.7,55.7,0,0,1,1177.64,44a58,58,0,0,0-7.85,11l7-6.73a30.7,30.7,0,0,0-7.24,14.31A31.47,31.47,0,0,1,1181.72,49a22.42,22.42,0,0,0-6.24,12.61A46.71,46.71,0,0,1,1196,44.49l-7.76,9.84a32,32,0,0,1,9.48-7.57,124.39,124.39,0,0,0-11.9,18.42,43.19,43.19,0,0,1,21.84-19.33,115.12,115.12,0,0,0-12.07,12.05,26.26,26.26,0,0,1,14.1-7.61,43,43,0,0,0-19.17,21.65c6.34-8.89,30.95-26.14,40.85-30.72a42,42,0,0,1,6.63,3.34,7.34,7.34,0,0,0-.17.74l-0.11.08,0.09,0a11,11,0,0,0,1.75,7.06,124.77,124.77,0,0,0-14.79,8c-5.78.09-11.13,1.66-14.26,0.4l6,2.42a25.42,25.42,0,0,0-17.24,7.24c3.47-.75,7.63-3.58,11.09-4.33-8.71,3.07-17.14,11-22.5,18.47l12.18-6.27a49.6,49.6,0,0,0-19.31,21.2l10.91-10.39c-4.54,6.33-9.68,11.45-14.28,17.64,1.68-1.73,4.37-2,6.61-3.36l-0.71,1.27c-7.78,10-14.43,20.18-18.41,32.28l9.87-15.3a236.45,236.45,0,0,0-11.14,28.89l5-10.51a57.06,57.06,0,0,0-2.77,22.81l2.48-9.67,1.14,7.22q0.27-3.66.84-7.26c1.33,2.66,2.72,5.5,4,8-0.5-3.66-1.36-9.24-1.86-12.91,2.29,4,5.21,8.07,7.5,12.08-1.1-6.33-3.13-14.57-4.23-20.9a29.31,29.31,0,0,0,12,16.71,43.92,43.92,0,0,1-9.16-15.32l9.1,9.36a34.66,34.66,0,0,1-7.93-14.06,50,50,0,0,0,13.75,12.6,28.1,28.1,0,0,1-12-18.28c2,2.56,3.61,4,5.64,6.51a28.32,28.32,0,0,1-3.37-10.73,56.46,56.46,0,0,0,14.27,14.53,59.94,59.94,0,0,1-9.33-17.69c2.18,3.15,4.28,5.73,6.46,8.88a49.61,49.61,0,0,1-5-11.09,45.64,45.64,0,0,0,9.72,12,39.77,39.77,0,0,1-5.27-18.19,49.09,49.09,0,0,0,7.18,9,15.8,15.8,0,0,1-4-10.64,48.78,48.78,0,0,0,7.91,8.92,45.37,45.37,0,0,1-6.8-15.74c4.91,4.86,9.9,9.42,14.81,14.28a48.25,48.25,0,0,1-9.35-20.92l10.09,12a39.41,39.41,0,0,1-5-12.86,45.11,45.11,0,0,0,11,11.69c-2.87-5.31-6.94-11.88-9.81-17.19l8.63,8.4c-2.34-3.87-3.29-7.27-4.6-11.6a41.78,41.78,0,0,0,15.82,14.41c-6.1-4.13-10.16-10.64-13.36-17.28a61.26,61.26,0,0,0,19.54,15,80,80,0,0,1-15.34-16.69,44,44,0,0,0,10.72,8.3L1223.31,82A51.19,51.19,0,0,0,1241,95.24a116.63,116.63,0,0,0-9.63,23.35,118.14,118.14,0,0,0,1.74,70.59c2.88,2.21,6.24,5,9.12,7.17-1.93-3-4.95-7.46-6.87-10.44,3.62,2.55,7.81,4.88,11.42,7.42-3.53-5-8.65-11.37-12.19-16.41a28.09,28.09,0,0,0,17.24,9.6,42.09,42.09,0,0,1-14.19-9.56l11.71,4.41a33.22,33.22,0,0,1-12.6-9,47.87,47.87,0,0,0,17.06,5.33,26.93,26.93,0,0,1-17.87-11c2.8,1.4,4.74,2,7.55,3.35a27.14,27.14,0,0,1-7.3-7.93,54.1,54.1,0,0,0,18.29,6.8,57.44,57.44,0,0,1-15.3-11.54c3.18,1.84,6,3.23,9.22,5.07a47.54,47.54,0,0,1-8.82-7.6,43.74,43.74,0,0,0,13.31,6.44,38.11,38.11,0,0,1-12-13.64,47.05,47.05,0,0,0,9.89,4.87,15.13,15.13,0,0,1-7.82-7.59,46.75,46.75,0,0,0,10.5,4.52,43.48,43.48,0,0,1-12.31-10.89c6.24,2.22,12.43,4.14,18.67,6.36a46.23,46.23,0,0,1-16.63-14.34l13.64,6.29a37.76,37.76,0,0,1-9.57-9.12,43.22,43.22,0,0,0,14.29,5.67c-4.65-3.43-10.86-7.48-15.51-10.91l10.91,3.77c-3.61-2.4-5.82-5-8.72-8.19a40,40,0,0,0,19.59,6.06c-7-1.1-13.15-5.09-18.62-9.55a58.7,58.7,0,0,0,23.05,5,76.64,76.64,0,0,1-20.1-8.24,42.19,42.19,0,0,0,12.68,2.84l-12.43-6.66a48.46,48.46,0,0,0,26,4,40.68,40.68,0,0,1-25.1-11.2c4.33,2.89,10.78,4.42,16,4.28A33.16,33.16,0,0,1,1259,99.07a36.09,36.09,0,0,0,15.42,2.8,30.17,30.17,0,0,1-21.81-11.72l0.08-.12c5.75,4.61,13.69,6.39,21,5.53-6.81.55-14.51-2.55-19.77-7.31a19.49,19.49,0,0,1,7.15-5.63,12.37,12.37,0,0,0,3.47-1.91,3.62,3.62,0,0,0,1-1.83A30.65,30.65,0,0,1,1265.3,89,25,25,0,0,0,1270.22,80.64ZM1242,5.32a61.62,61.62,0,0,1,6.54-.64l-6.48,2.82A14,14,0,0,1,1242,5.32Zm-0.33,0-1,2.73-0.32.14a20.79,20.79,0,0,0-.38-2.6C1240.6,5.53,1241.16,5.45,1241.72,5.36Zm-5.15-4.85c0.28,0.58.54,1.15,0.77,1.71l-0.11.05c-0.27-.58-0.57-1.15-0.88-1.71Zm-21.51,28.12c-1.78-1.15-3.61-2.23-5.5-3.19q0.84-1,1.71-2a28.89,28.89,0,0,0,3.92,5Zm1.16,0.73h0l0,0Zm0.11-3.25-4-3.84a61.73,61.73,0,0,1,9.72-8.79,37.09,37.09,0,0,0-6.68,9.27L1225,15a41.16,41.16,0,0,0-7.09,8.44,7.63,7.63,0,0,1-1.07-1.69l0.85,2C1217.21,24.53,1216.76,25.32,1216.32,26.11Zm1.45,1.38c0.34-.38.69-0.75,1-1.11l1.49,3.52Zm2-2.06a34.3,34.3,0,0,1,10.81-7.19,25.57,25.57,0,0,0-8.18,9.67C1221.44,27.06,1220.55,26.24,1219.74,25.43Zm3.08,2.91a31.61,31.61,0,0,1,6.85-5,32.49,32.49,0,0,0-5.2,6.57C1223.92,29.37,1223.37,28.85,1222.82,28.34Zm2.14,2.05a26.3,26.3,0,0,1,14.64-9.28,24.72,24.72,0,0,0-11.43,13.16A21.73,21.73,0,0,0,1225,30.39Zm14.49,11.49A70.07,70.07,0,0,0,1229.2,37a6.75,6.75,0,0,0-1-2.54,25.2,25.2,0,0,1,14.63-12.5,51.55,51.55,0,0,1,4.43,6c-1.57.68-3.24,1.19-4.42,2.39-1.54,1.56-1.09,5.08,1.1,5l-7.3,2.88,6.88,1A9.17,9.17,0,0,0,1239.45,41.88Zm2.08,52.34a42,42,0,0,1-14.15-18.69c2.81,4.65,8.22,9,13.2,11.13a34.61,34.61,0,0,1-7.22-9.88,37.67,37.67,0,0,0,13.08,9.37Q1243.83,90.08,1241.53,94.21Zm4.93-8.09a31.45,31.45,0,0,1-15.31-21.21c3.3,7.16,10.17,12.56,17.65,15.07-7.74-2.89-14.43-11-16.56-18.93A60,60,0,0,1,1241.5,55a16.1,16.1,0,0,0,7.77,4.76c-3.66,4.31-4.66,10.39.74,15.91l0.59,0.57a12,12,0,0,0,2,1.52C1250.46,80.43,1248.39,83.23,1246.47,86.12Zm5.78,3.56,0.06,0v0Zm0.06-3c-0.23-.25-0.47-0.5-0.69-0.76,0.36-.73.74-1.45,1.13-2.16A20.91,20.91,0,0,0,1252.3,86.65Zm-2.1-64.83c1.36,1.18.72,3.31-.58,4.66a105.22,105.22,0,0,0-6.52-10.82c-0.11-2.24-.48-4.39-0.76-6.33a60.78,60.78,0,0,1,8.28-.66,62,62,0,0,1,3.07,13.58Zm22.72-18.64c-0.08.51-.15,1-0.23,1.52a33.45,33.45,0,0,0-5.47-.29A35.08,35.08,0,0,1,1272.92,3.18Zm-0.39,2.63c-0.17,1.26-.3,2.52-0.43,3.79a23.66,23.66,0,0,0-13.36.41A26.16,26.16,0,0,1,1272.53,5.81Zm-9.16,18.36c-1.72-3.67-2.39-8.66-2.88-11.56a26.69,26.69,0,0,0,.34,11c-0.23,0-.46-0.07-0.7-0.09a22.41,22.41,0,0,0-1.53-2.09,50.78,50.78,0,0,1-1.57-8.53,25.56,25.56,0,0,1,15-2.76,134.36,134.36,0,0,0-.59,17.1,62.69,62.69,0,0,1-4.38-9.85,36.58,36.58,0,0,0,0,8.39A16.91,16.91,0,0,0,1263.37,24.17Z" transform="translate(-1123.64)"/></svg>