<svg id="BACKGROUND_2" data-name="BACKGROUND 2" xmlns="http://www.w3.org/2000/svg" viewBox="0 0 266.34 22.94"><defs><style>.cls-1{fill:#2c4e80;}</style></defs><title>SHIP SHADOW ON WATER</title><path class="cls-1" d="M982,443.5c25.31,0,65.51-4.11,2.4-4.11H778.07c-34.58,0-38.53,3.6,8.91,3.6s27.55,1.8-7.56,1.8-31.39,1.36,4,1.36,41.57,2,4.9,2-21.67,2,37.6,2,32.83,2.65-8.84,2.65-23.18,2,7.72,2,16,2.32.9,2.32-20.52,2.32,6.37,2.32S882.88,461,858.24,461s-26.35,1.31,25.29,1.31,40.05-3,12.47-3-25-2,12-2S944.63,456,919,456s-24.53-1.71,22.86-1.71,58.05-2.46,13-2.46-20.57-1.75,17.13-1.75,40.87-3,3.24-3S956.66,443.5,982,443.5Z" transform="translate(-751.74 -439.39)"/></svg>