<?xml version="1.0" encoding="UTF-8" standalone="no"?>
<svg
   xmlns:dc="http://purl.org/dc/elements/1.1/"
   xmlns:cc="http://creativecommons.org/ns#"
   xmlns:rdf="http://www.w3.org/1999/02/22-rdf-syntax-ns#"
   xmlns:svg="http://www.w3.org/2000/svg"
   xmlns="http://www.w3.org/2000/svg"
   height="268.94"
   width="149.19321"
   version="1.1"
   viewBox="0 0 149.19321 268.93999"
   data-name="BACKGROUND 2"
   id="BACKGROUND_2">
  <metadata
     id="metadata13">
    <rdf:RDF>
      <cc:Work
         rdf:about="">
        <dc:format>image/svg+xml</dc:format>
        <dc:type
           rdf:resource="http://purl.org/dc/dcmitype/StillImage" />
        <dc:title>COCONUT LEFT DOWWN</dc:title>
      </cc:Work>
    </rdf:RDF>
  </metadata>
  <defs
     id="defs4">
    <style
       id="style2">.cls-1{fill:#15262f;}</style>
  </defs>
  <title
     id="title6">COCONUT LEFT DOWWN</title>
  <path
     style="stroke-width:0.99807262"
     id="path8"
     d="m 142.11067,90.050001 a 13.547625,13.6 0 0 1 6.17613,1.13 l -7.27189,-3.51 2.72944,0.36 -9.31398,-2.25 a 9.0151478,9.05 0 0 1 5.48877,0.61 33.928832,34.06 0 0 0 -15.12154,-3.74 l 3.91486,-0.33 -5.85735,-0.62 a 34.147986,34.28 0 0 1 8.49715,-0.26 37.534892,37.68 0 0 0 -14.50392,-1.56 46.241233,46.42 0 0 1 13.64723,-1.57 44.34855,44.52 0 0 0 -21.99497,-0.26 l 8.51708,-2.34 a 45.693352,45.87 0 0 0 -17.372837,2.42 l 11.824287,-5 a 40.244417,40.4 0 0 0 -13.348387,3 c -0.239081,-0.62 -0.498084,-1.23 -0.777,-1.83 a 17.422644,17.49 0 0 0 1.075841,-1.81 l -1.404571,1.15 a 31.508191,31.63 0 0 0 -5.040517,-7.36 c 3.2076,2 6.315587,4.48 8.078764,7.84 a 21.496895,21.58 0 0 0 -6.465002,-8.94 23.827882,23.92 0 0 1 5.66809,3 l -3.805286,-4.91 c 2.550141,1.77 5.678038,4.24 8.228178,6 a 23.21027,23.3 0 0 0 -5.349308,-6.3 20.281592,20.36 0 0 1 6.295648,3.3 l -5.558498,-5.87 a 24.824031,24.92 0 0 1 10.170668,6 c -2.21144,-2.8 -4.25355,-5.62 -6.465,-8.42 a 23.349731,23.44 0 0 1 7.66038,4.39 25.112914,25.21 0 0 0 -4.11409,-4.57 8.1285751,8.16 0 0 1 5.20986,2.67 25.252375,25.35 0 0 0 -4.18383,-4.2 20.460899,20.54 0 0 1 8.96535,3.75 23.47923,23.57 0 0 0 -5.57844,-5.67 25.521336,25.62 0 0 1 5.38917,3.18 c -1.48427,-1.3 -2.68961,-2.52 -4.17387,-3.82 a 30.880617,31 0 0 1 8.51707,5.8 29.047703,29.16 0 0 0 -6.62439,-8.15 14.573659,14.63 0 0 1 5.29952,2.34 c -1.19539,-1.19 -1.813,-2.08 -2.98846,-3.27 a 14.454121,14.51 0 0 1 8.66651,7.22 25.700642,25.8 0 0 0 -5.65813,-7.78 17.831066,17.9 0 0 1 6.73397,4.87 l -4.26352,-5.21 a 22.602619,22.69 0 0 1 7.31173,5.58 15.081695,15.14 0 0 0 -7.83968,-7.08 c 3.16774,0.93 7.27187,2.44 10.44959,3.37 -1.92256,-1.4 -3.82521,-3.14 -5.74777,-4.54 1.84287,0.47 4.65201,1.23 6.49488,1.69 -1.18541,-0.79 -2.55014,-1.66 -3.84513,-2.5 q 1.87276,-0.09 3.76544,0 l -3.62598,-1 5.09033,-0.72 a 29.35651,29.47 0 0 0 -11.82429,0.12 l 5.65812,-2 a 121.66963,122.14 0 0 0 -15.41043,4.07 l 8.38757,-4.19 c -6.41519,1.35 -11.95377,4.19 -17.55214,7.61 l -0.68733,0.29 c 0.8268,-1.07 1.11568,-2.44 2.0919,-3.2 -2.59995,1.52 -4.891084,3.24 -7.371498,4.83 l -0.368569,-0.28 3.835167,-3.24 a 24.903723,25 0 0 0 -2.420643,1 l -5.976885,-4.79 4.363133,1.17 -6.714044,-5 a 33.31122,33.44 0 0 1 10.389829,3.68 l -6.614432,-4.62 a 27.603285,27.71 0 0 1 11.117022,4.65 l -8.686419,-5.93 8.367649,2.6 -7.650414,-4.68 a 48.113994,48.3 0 0 1 16.207334,7.5 l -13.248774,-9.2 9.503264,1.82 -7.5309,-3.5 6.02671,0.61 a 19.753633,19.83 0 0 0 -7.05274,-3.38 28.091399,28.2 0 0 1 11.72468,0.62 l -6.92324,-2.89 10.79826,0.45 -8.16843,-2.32 4.73171,-0.12 -3.43671,-1.24 a 37.375508,37.52 0 0 1 16.44642,3 22.293813,22.38 0 0 0 -10.66876,-3.77 l 7.23204,-0.14 -5.41905,-1.23 6.68416,-0.78 c -2.72944,-0.33 -5.55851,-0.75 -8.23815,-0.16 a 59.888473,60.12 0 0 0 -35.741819,23.85 c -0.32873,0.46 -0.627574,0.94 -0.936379,1.41 a 31.876765,32 0 0 0 -0.129501,-4.92 l -2.530216,6.6 a 25.521336,25.62 0 0 0 0.169341,-14.81 l -0.637536,7.76 c -0.428343,-4 -0.199227,-7.74 -0.547883,-11.71 -0.04982,1.24 -0.996141,2.27 -1.394609,3.57 -0.04982,-0.24 -0.109579,-0.49 -0.15938,-0.73 -0.428343,-6.53 -1.354759,-12.74 -3.984599,-18.78 l 1.444423,9.29 A 121.63975,122.11 0 0 0 65.227896,8.2200002 l 1.663575,5.7800008 A 29.35651,29.47 0 0 0 60.14754,4.25 L 62.498452,8.8300006 59.589694,6.44 q 1.145579,1.5000002 2.161646,3.0900006 c -1.424498,-0.57 -2.928682,-1.1900004 -4.253555,-1.7000004 1.444411,1.2400004 3.685747,3.1000008 5.130168,4.3400008 -2.251297,-0.76 -4.761598,-1.32 -6.973046,-2.08 2.589989,2.06 6.186085,4.55 8.776074,6.61 a 15.081695,15.14 0 0 0 -10.340026,-2.32 22.602619,22.69 0 0 1 8.766115,2.76 l -6.704082,-0.48 a 17.831066,17.9 0 0 1 7.859612,2.7 25.700642,25.8 0 0 0 -9.592915,-0.14 14.454121,14.51 0 0 1 10.848061,2.91 c -1.653612,-0.29 -2.739406,-0.28 -4.393019,-0.58 a 14.573659,14.63 0 0 1 4.980742,3 29.047703,29.16 0 0 0 -10.459556,-0.71 30.880617,31 0 0 1 9.642717,3.62 c -1.912606,-0.47 -3.606058,-0.74 -5.518663,-1.21 a 25.531298,25.63 0 0 1 5.697967,2.58 23.489192,23.58 0 0 0 -7.839688,-1.29 20.460899,20.54 0 0 1 8.248117,5.21 25.262336,25.36 0 0 0 -5.83744,-1 8.1285751,8.16 0 0 1 5.189943,2.72 25.102952,25.2 0 0 0 -6.096435,-0.72 23.349731,23.44 0 0 1 7.96919,3.74 c -3.546292,-0.19 -7.032811,-0.23 -10.579104,-0.42 a 24.824031,24.92 0 0 1 10.748445,4.86 l -7.96919,-1.16 a 20.281592,20.36 0 0 1 6.315588,3.25 23.21027,23.3 0 0 0 -7.96919,-0.75 q -0.448269,-1.55 -0.996152,-3.09 A 81.594557,81.91 0 0 0 27.812547,0.52 C 25.312202,0.39 22.313803,0.13 19.843345,0 c 2.261259,0.94 5.73783,2.32 7.969202,3.27 -3.058185,0 -6.345474,0.28 -9.403647,0.24 3.984595,1.49 9.37376,3.1 13.348408,4.5900002 a 19.39502,19.47 0 0 0 -13.567554,1.2800004 29.067625,29.18 0 0 1 11.814319,-0.11 l -8.387576,2.0800004 a 22.911426,23 0 0 1 10.678727,0.18 33.062184,33.19 0 0 0 -11.794418,3.65 18.598101,18.67 0 0 1 14.464079,-0.75 c -2.141706,0.3 -3.466592,0.74 -5.608302,1 a 18.747523,18.82 0 0 1 7.251957,1.67 37.365547,37.51 0 0 0 -13.069478,3.3 39.676612,39.83 0 0 1 13.218903,0.59 c -2.530221,0.19 -4.701821,0.53 -7.23204,0.72 a 32.872915,33 0 0 1 7.96919,0.88 30.213196,30.33 0 0 0 -10.031221,1.61 26.318255,26.42 0 0 1 12.153016,3.09 32.494377,32.62 0 0 0 -7.530892,1.1 10.449603,10.49 0 0 1 7.421317,1.27 32.285187,32.41 0 0 0 -7.740092,1.54 30.033889,30.15 0 0 1 11.266464,1.39 c -4.422911,1.18 -8.696388,2.51 -13.109325,3.69 a 31.926572,32.05 0 0 1 15.07173,1.66 l -10.220493,1.76 a 26.079179,26.18 0 0 1 8.965343,1.46 29.884467,30 0 0 0 -10.300173,2.37 c 3.984592,0.14 9.104792,0 13.099358,0.15 l -7.690272,2.13 a 30.641541,30.76 0 0 1 8.168422,1.26 27.653094,27.76 0 0 0 -13.517748,4.23 c 4.393026,-2.11 9.473377,-2.25 14.334598,-1.85 a 40.553223,40.71 0 0 0 -12.949943,4.83 c -0.99615,-0.75 -2.042115,-1.49 -3.107991,-2.17 a 59.938281,60.17 0 0 0 -31.75722201,-9.41 v 3.43 l 1.30495011,-0.59 -1.30495011,1.3 v 1.44 a 27.69294,27.8 0 0 1 6.60447721,-2.46 19.753633,19.83 0 0 0 -5.2696399,5.8 l 5.3592898,-2.84 -5.6581268,6.09 8.1186139,-5.28 -8.81593151,13.54 a 48.113994,48.3 0 0 1 12.16298331,-13 l -5.3393488,7.23 6.7738068,-5.57 -5.8274799,8.77 a 27.593325,27.7 0 0 1 8.5569289,-8.5 l -4.393023,6.78 a 33.31122,33.44 0 0 1 8.248122,-7.33 l -4.353177,7.15 3.606055,-2.73 -3.984595,7.11 a 27.085289,27.19 0 0 1 7.759991,-7.86 l -6.186067,10.34 a 25.361952,25.46 0 0 0 -7.182246,-0.66 l 6.345474,2.06 -0.0997,0.17 c -3.526363,-0.54 -6.793723,-1.47 -10.3499854,-2 1.1953832,0.34 1.9922975,1.5 3.1378643,2.18 H 8.5369802 a 78.566265,78.87 0 0 0 -8.51707151,-1 v 9.74 c 0.49806556,-0.62 0.99614291,-1.22 1.55399461,-1.8 -0.567822,1.13 -1.0459588,2.2 -1.55399461,3.28 v 0.44 a 25.521336,25.62 0 0 1 2.91870741,-3.58 23.47923,23.57 0 0 0 -2.91870741,6.92 v 0.26 a 20.460899,20.54 0 0 1 6.81366431,-6.69 25.272298,25.37 0 0 0 -2.3011165,5.47 8.1285751,8.16 0 0 1 3.8252121,-4.44 25.092991,25.19 0 0 0 -2.0919176,5.79 23.349731,23.44 0 0 1 5.448939,-7 c -0.996143,3.43 -1.832914,6.82 -2.8290686,10.24 a 24.824031,24.92 0 0 1 7.1722866,-9.4 l -2.988452,7.54 a 20.271632,20.35 0 0 1 4.592239,-5.43 23.200309,23.29 0 0 0 -2.589983,7.86 c 1.693449,-2.61 3.675788,-6.08 5.369237,-8.69 l -1.683479,6 a 23.837844,23.93 0 0 1 4.114079,-4.95 21.496895,21.58 0 0 0 -2.639775,10.73 c 0.368558,-3.79 2.321021,-7.23 4.542423,-10.32 a 31.508191,31.63 0 0 0 -1.912595,8.72 l -1.733306,-0.53 a 17.482414,17.55 0 0 0 1.673532,1.27 c 0,0.66 0,1.33 0,2 a 40.244417,40.4 0 0 0 -13.4978212,2.25 l 12.8403612,0.18 a 45.68339,45.86 0 0 0 -17.014214,4.31 l 8.776062,-1.05 A 44.468088,44.64 0 0 0 0.03981391,99.899998 V 101.61 a 46.181463,46.36 0 0 1 6.82363449,-1.38 37.445237,37.59 0 0 0 -6.82363449,2.86 v 1.61 C 0.6773571,104.51 1.3248588,104.33 1.982319,104.18 l -1.94250509,1 v 0.73 l 0.49808908,-0.16 -0.49808908,0.23 v 8 A 28.320514,28.43 0 0 1 3.028266,109.71 L 1.8328946,117 3.9048835,113.55 3.4366817,118.7 a 21.795739,21.88 0 0 1 2.5302323,-6.23 39.238306,39.39 0 0 0 -1.5340659,13 34.018485,34.15 0 0 1 6.2259369,-17 35.413094,35.55 0 0 0 -1.2850335,8.2 l 1.9922855,-5.61 a 18.747523,18.82 0 0 0 -0.05973,9.83 19.215713,19.29 0 0 1 2.98844,-10.75 13.687087,13.74 0 0 0 0,8.62 28.519743,28.63 0 0 1 6.584549,-15 l -1.563977,7.52 a 19.504596,19.58 0 0 1 3.11796,-6.75 75.926469,76.22 0 0 0 -1.494232,13.36 26.378022,26.48 0 0 1 6.67421,-16.57 70.278306,70.55 0 0 0 -3.317177,9.91 16.037997,16.1 0 0 1 5.63821,-8 26.2286,26.33 0 0 0 -4.592262,17.12 c 1.045958,-6.61 9.802116,-22.800003 13.946087,-27.999999 a 29.177202,29.29 0 0 1 8.208271,0.54 C 43.5616,96.660001 42.316406,102.74 43.601441,108.05 a 10.549218,10.59 0 0 1 5.150096,-6.86 26.477639,26.58 0 0 0 -2.779256,7 l 3.894944,-4.2 C 31.577923,145.99 15.171353,188.5 0,231.52 v 37.42 c 12.651103,-46.72 35.632249,-119.2 58.334486,-161.8 a 15.231117,15.29 0 0 0 2.609915,5.3 18.717639,18.79 0 0 1 0.288881,-6.17 2.2114507,2.22 0 0 0 0.557845,1.17 7.5607703,7.59 0 0 0 1.992296,1.33 11.894018,11.94 0 0 1 4.094165,3.78 17.014224,17.08 0 0 1 -12.302433,3.58 17.562105,17.63 0 0 0 13.049545,-2.42 v 0.08 a 18.408832,18.48 0 0 1 -13.816583,6.16 22.034813,22.12 0 0 0 9.523188,-1 20.241745,20.32 0 0 1 -6.524778,3 18.020333,18.09 0 0 0 9.961485,-1.87 24.843954,24.94 0 0 1 -15.808878,5.68 29.595584,29.71 0 0 0 16.018079,-1.21 l -7.879548,3.49 a 25.76041,25.86 0 0 0 7.849661,-1.14 46.818998,47 0 0 1 -12.621212,4.1 35.861361,36 0 0 0 14.274814,-2 c -3.536331,2.47 -7.48107,4.62 -11.784438,5 a 24.455456,24.55 0 0 0 12.222745,-2.87 27.105212,27.21 0 0 1 -5.688004,4.6 l 6.813658,-1.8 c -2.988448,1.88 -6.973047,4.07 -9.961495,5.95 a 26.387985,26.49 0 0 0 8.965343,-2.8 23.060848,23.15 0 0 1 -6.245851,5.13 L 72.519649,139 a 28.230859,28.34 0 0 1 -10.788296,8 c 3.9049,-1.07 7.759998,-2 11.654946,-3 a 26.547369,26.65 0 0 1 -7.969189,6.08 28.549628,28.66 0 0 0 6.604468,-2.27 9.2442619,9.28 0 0 1 -5.110244,4.28 28.738896,28.85 0 0 0 6.24585,-2.52 23.270039,23.36 0 0 1 -7.96919,7.78 26.706752,26.81 0 0 0 8.407496,-3.32 29.037742,29.15 0 0 1 -5.717902,4.24 c 1.992306,-1 3.825222,-1.69 5.847404,-2.67 a 35.084365,35.22 0 0 1 -9.851918,6.34 33.042261,33.17 0 0 0 11.455709,-3.3 16.575919,16.64 0 0 1 -4.811392,4.51 c 1.773141,-0.72 2.988448,-1 4.751627,-1.7 a 16.446419,16.51 0 0 1 -11.395944,5.87 29.227009,29.34 0 0 0 10.638869,-2.47 20.281592,20.36 0 0 1 -8.088728,4.89 l 7.331654,-2.15 a 25.700642,25.8 0 0 1 -9.084872,5.18 17.153684,17.22 0 0 0 10.957638,-5.07 c -2.3808,2.92 -5.79759,6.55 -8.17839,9.46 2.321034,-1.39 4.980752,-2.62 7.301776,-4 -1.31492,1.73 -3.357027,4.33 -4.671937,6.06 1.852832,-1.22 3.984591,-2.74 5.887244,-4 a 72.141105,72.42 0 0 0 4.293394,-43.09 71.224648,71.5 0 0 0 -4.781514,-14.72 31.259153,31.38 0 0 0 11.376019,-7.3 l -5.897195,6.81 a 26.896021,27 0 0 0 6.913272,-4.58 48.811297,49 0 0 1 -10.11091,9.49 37.405392,37.55 0 0 0 12.591314,-8.25 c -2.251288,3.91 -4.980742,7.7 -8.965332,9.94 a 25.511375,25.61 0 0 0 10.300177,-8.07 28.280668,28.39 0 0 1 -3.337103,6.88 l 5.648165,-4.74 c -1.992295,3.11 -4.781513,6.94 -6.773808,10 a 27.543518,27.65 0 0 0 7.23204,-6.63 24.066956,24.16 0 0 1 -3.635945,7.63 l 6.704083,-6.86 a 29.456123,29.57 0 0 1 -6.61443,12.4 c 3.217562,-2.74 6.465013,-5.3 9.682565,-8 a 27.702902,27.81 0 0 1 -4.871165,9.31 29.774891,29.89 0 0 0 5.229785,-5.09 9.6427216,9.68 0 0 1 -2.98845,6.32 29.984083,30.1 0 0 0 4.78151,-5.16 24.286111,24.38 0 0 1 -4.054323,10.88 27.89217,28 0 0 0 6.474963,-6.88 30.292889,30.41 0 0 1 -3.53632,6.55 c 1.4743,-1.82 2.86891,-3.3 4.34321,-5.13 a 36.598511,36.74 0 0 1 -6.504853,10.38 34.476714,34.61 0 0 0 9.363803,-8.22 17.293145,17.36 0 0 1 -2.55014,6.4 c 1.35475,-1.47 2.38079,-2.25 3.73555,-3.72 a 17.163646,17.23 0 0 1 -8.16841,10.62 30.512041,30.63 0 0 0 8.96533,-7.06 21.168165,21.25 0 0 1 -5.47881,8.22 l 5.97689,-5.3 a 26.816328,26.92 0 0 1 -6.2857,8.94 17.930681,18 0 0 0 8.10865,-9.66 c -0.99615,3.82 -2.58002,8.76 -3.54629,12.58 1.58388,-2.35 3.54629,-4.69 5.13017,-7 -0.47816,2.22 -1.25516,5.59 -1.7333,7.8 0.88657,-1.44 1.86279,-3.11 2.78922,-4.68 q 0.1793,2.23 0.1793,4.48 l 0.99615,-4.36 1.06588,6 a 34.865212,35 0 0 0 -0.62758,-14.07 l 2.57007,6.66 a 144.4416,145 0 0 0 -5.43897,-18.18 l 5.29952,9.81 c -1.86282,-7.58 -5.43898,-14.11 -9.72243,-20.59 l -0.36857,-0.81 c 1.30495,0.94 2.92868,1.23 3.87502,2.36 -2.52026,-4 -5.40909,-7.37 -7.87954,-11.45 l 6.1562,6.86 a 30.292889,30.41 0 0 0 -10.69864,-13.81 l 7.12247,4.4 c -2.91872,-4.85 -7.68031,-10.06 -12.850321,-12.34 2.071986,0.62 4.482664,2.54 6.554651,3.16 A 15.529962,15.59 0 0 0 91.844931,99.129998 l 3.785373,-1.200001 c -1.992295,0.62 -5.150095,-0.59 -8.666501,-0.91 a 76.205392,76.5 0 0 0 -8.636611,-5.609996 6.6841591,6.71 0 0 0 1.394609,-4.24 h 0.05979 l -0.05979,-0.06 a 4.3631322,4.38 0 0 0 -0.06978,-0.46 25.650836,25.75 0 0 1 4.193792,-1.74 c 5.817505,3.26 20.002667,14.999997 23.449337,20.679999 a 26.238563,26.34 0 0 0 -10.668747,-14.119999 16.037997,16.1 0 0 1 8.228187,5.31 70.29823,70.57 0 0 0 -6.793738,-7.93 26.378022,26.48 0 0 1 12.402058,12.829999 75.966316,76.26 0 0 0 -6.39527,-11.809999 19.514558,19.59 0 0 1 5.41904,5.07 l -4.32329,-6.43 a 28.529705,28.64 0 0 1 11.73466,11.429997 13.687087,13.74 0 0 0 -3.21756,-7.999997 19.225674,19.3 0 0 1 6.76385,8.849999 18.747523,18.82 0 0 0 -3.74552,-9.079999 l 3.98461,4.44 a 35.413094,35.55 0 0 0 -4.26353,-7.11 34.018485,34.15 0 0 1 12.14306,13.399999 39.248268,39.4 0 0 0 -6.30562,-11.509999 21.795739,21.88 0 0 1 4.6819,4.82 l -2.34095,-4.62 3.21756,2.41 -3.83517,-6.3 A 28.96801,29.08 0 0 1 137.23941,101.67 30.23312,30.35 0 0 0 132.15905,89.840001 l 6.24586,5.32 -2.36088,-4.18 3.44668,2.07 -1.33483,-2.31 a 17.054069,17.12 0 0 1 7.76996,7.649996 l -3.78537,-6.999996 2.13175,0.94 a 1.8329139,1.84 0 0 0 -0.6176,-1 q 2.78921,0.8 5.53859,1.71 a 21.168165,21.25 0 0 0 -7.08263,-2.99 z m -45.484152,-38 c -0.69731,0.44 -1.404572,0.88 -2.141721,1.29 l 1.783103,-1.5 z m 1.324872,-2.69 a 25.42172,25.52 0 0 0 -2.520253,1.35 l -7.202163,-5.42 a 27.085289,27.19 0 0 1 9.712453,4.08 z m -11.385981,-1.17 a 37.026856,37.17 0 0 1 8.277995,2.92 25.650836,25.75 0 0 0 -3.496481,2.76 l -0.508034,-0.39 1.544026,-2.33 c -0.836764,0.47 -1.68349,1 -2.520253,1.6 l -3.376942,-2.56 4.811401,1.26 z m 4.124054,6.31 c -0.587723,0.59 -1.135606,1.21 -1.663565,1.86 l -0.06967,-0.05 1.314911,-2 z m -2.052059,-0.87 q -0.786962,0.61 -1.553998,1.27 l -5.857356,-4.4 z m -10.330065,0.87 a 46.709423,46.89 0 0 1 7.192191,1.9 22.911426,23 0 0 0 -2.470451,3 l -0.159378,-0.09 a 16.785109,16.85 0 0 0 1.623714,-3.06 12.621207,12.67 0 0 0 -1.374685,1.33 l -4.85124,-2.9 z m 3.785362,4.3 -3.586133,-2.1 4.542435,0.9 a 13.049552,13.1 0 0 0 -0.956302,1.21 z m 0.627572,1 c -0.219153,0.33 -0.408418,0.67 -0.607648,1 h -0.08965 c 0.159379,-0.33 0.348646,-0.67 0.547873,-1 z m -1.065878,-0.31 c -0.15938,0.26 -0.318769,0.53 -0.458233,0.8 q -2.251288,-1.23 -4.602199,-2.27 z m -1.39461,3.23 a 12.671014,12.72 0 0 0 -0.348655,1.57 l -0.189267,-0.1 -0.458221,-1.71 z m -1.215295,-0.28 a 8.5569192,8.59 0 0 1 -0.139465,1.33 l -3.815249,-2 a 37.664392,37.81 0 0 1 3.924825,0.66 z m -5.399135,1.69 a 37.116508,37.26 0 0 1 4.980752,0.79 c -0.259003,1.17 -0.587733,2.47 -0.757074,3.83 a 64.241644,64.49 0 0 0 -4.462746,6.31 c -0.73716,-0.89 -0.996154,-2.21 -0.149427,-2.87 l -2.141722,0.1 a 37.85366,38 0 0 1 2.530217,-8.16 z m -4.980742,0.44 a 14.434198,14.49 0 0 0 -8.118616,-0.85 c 0,-0.78 0,-1.56 -0.08965,-2.34 a 15.938382,16 0 0 1 8.178381,3.14 z m -8.327808,-3.91 c 0,-0.32 0,-0.64 -0.06967,-1 a 21.417201,21.5 0 0 1 3.40683,1 20.361284,20.44 0 0 0 -3.337103,0 z m -4.512547,4.27 a 18.109988,18.18 0 0 0 -8.796006,1.49 q -0.866645,-1.16 -1.79306,-2.28 a 20.500744,20.58 0 0 1 10.628904,0.79 z m -11.276421,-1.61 -0.866636,-1 a 27.503672,27.61 0 0 1 4.632086,-0.11 26.457716,26.56 0 0 0 -3.7256,1.1 z m -1.67352,-1.87 q -0.996141,-1 -1.992301,-2 a 26.896021,27 0 0 1 10.140802,-0.21 19.444826,19.52 0 0 0 -8.108652,2.2 z m -0.916451,4 -5.399141,6.46 a 13.796663,13.85 0 0 1 -1.125645,-1.89 37.953274,38.1 0 0 1 6.564616,-4.62 z m 5.409086,-13 a 29.137355,29.25 0 0 0 -8.327812,3.36 l 9.682572,-1.07 a 32.872915,33 0 0 0 -9.423571,3.21 q -1.862796,-1.69 -3.855096,-3.21 a 50.245751,50.44 0 0 1 11.943828,-2.32 z m -11.784438,8.66 -2.839036,3.69 4.143982,-2.73 -4.442821,5.76 6.704076,-5.3 a 60.67543,60.91 0 0 0 -5.747776,6.91 13.069474,13.12 0 0 0 -5.040522,-3.21 47.048114,47.23 0 0 1 4.094177,-3.62 28.619358,28.73 0 0 1 3.157796,-1.53 z m -0.149434,11.02 a 12.541515,12.59 0 0 0 -0.89653,-1.35 l 0.667415,-0.6 z m -2.819096,-2.08 a 19.454787,19.53 0 0 0 -4.911016,-3.14 l 0.508036,-0.54 c 1.245188,1.27 3.327135,2.39 4.432865,3.68 z m -16.077856,-3 0.109578,-0.16 0.996143,0.31 z m 1.085804,-1.54 a 37.12647,37.27 0 0 1 8.616692,-8.32 l -3.157782,4.8 3.984595,-3 -3.755491,6.3 a 31.876765,32 0 0 0 -4.572322,-0.94 l 3.645912,2.5 -0.159394,0.27 a 25.541258,25.64 0 0 0 -4.572311,-1.6 z m 4.61218,1.63 0.229116,-0.23 2.101876,1.44 a 24.903723,25 0 0 0 -2.301105,-1.22 z m 1.663561,-1.67 8.138543,-8.16 -5.468856,9.1 q -1.275075,-0.52 -2.639799,-0.93 z m -0.846718,24.21 c 0.119537,-0.54 0.249033,-1.07 0.388498,-1.61 a 17.601951,17.67 0 0 0 3.48653,1.65 c 0,0.07 0,0.14 0,0.21 -1.255158,-0.13 -2.550149,-0.22 -3.845141,-0.24 z m 4.711788,0.34 z m -0.677401,-3.71 a 4.661977,4.68 0 0 1 -0.996131,-0.64 l 0.996131,0.87 c -0.05973,0.56 -0.08971,1.11 -0.109578,1.67 l -3.257402,-1 a 37.694276,37.84 0 0 1 2.918719,-7.48 22.652426,22.74 0 0 0 -1.12565,6.91 l 3.18768,-6.89 a 25.142798,25.24 0 0 0 -1.59384,6.57 z m 0.996167,2.26 c 0.0796,-0.3 0.169329,-0.6 0.268961,-0.89 l 1.77314,1.52 z m 0.517994,-1.67 a 20.919127,21 0 0 1 3.984596,-6.9 15.609653,15.67 0 0 0 -1.842874,7.54 c -0.717235,-0.2 -1.434458,-0.41 -2.091918,-0.63 z m 2.490375,0.76 a 19.275482,19.35 0 0 1 2.370832,-4.63 19.793479,19.87 0 0 0 -0.996152,5 z m 1.723336,0.54 a 16.05792,16.12 0 0 1 5.508706,-9.07 15.091656,15.15 0 0 0 -2.659726,10.34 13.218896,13.27 0 0 0 -2.80914,-1.26 z m 16.705419,2.21 a 2.749371,2.76 0 0 1 -0.428345,0.86 40.403801,40.56 0 0 0 -12.172943,-0.63 4.1041336,4.12 0 0 0 -1.205345,-1.13 15.370578,15.43 0 0 1 4.582291,-10.86 29.007857,29.12 0 0 1 8.268042,5.25 l -2.699576,0.43 3.556263,2.91 -1.434457,1.15 c 1.03599,-0.26 1.852837,1.03 1.573909,2.03 z m 2.191522,-9.11 a 6.7140436,6.74 0 0 0 -1.294994,1.59 c -0.07966,0.15 -0.159379,0.3 -0.219154,0.45 a 63.594147,63.84 0 0 0 -11.455706,-8.21 c -0.627575,-1.12 -1.344796,-2.14 -1.992301,-3.07 a 35.682055,35.82 0 0 1 7.441237,-5.05 l 0.527955,0.54 a 21.546701,21.63 0 0 0 -3.366981,2.41 15.270963,15.33 0 0 1 3.606061,-2.16 38.222233,38.37 0 0 1 7.68031,11.65 1.7332992,1.74 0 0 0 -1.344808,0.79 z m 6.295663,-6.3 c -0.298842,1.8 -0.94634,3.71 -2.619868,4.21 a 4.3730937,4.39 0 0 1 -0.996152,0.15 60.087703,60.32 0 0 0 -6.97304,-12.41 19.922977,20 0 0 1 10.230443,-0.11 39.298074,39.45 0 0 1 0.398468,8.17 z m -0.607648,-31.61 c 2.87887,1 6.544694,2.13 9.373762,3.16 l -6.196049,-0.28 a 23.827882,23.92 0 0 1 5.737817,2.86 21.476971,21.56 0 0 0 -7.650422,-0.69 c -0.318767,-1.66 -0.747112,-3.31 -1.225268,-5.04 z m 1.384648,5.63 a 26.945828,27.05 0 0 1 7.570733,2.1 31.458382,31.58 0 0 0 -7.182239,-0.1 c -0.08965,-0.66 -0.209191,-1.33 -0.348654,-1.99 z m 0.607648,3.19 a 35.79163,35.93 0 0 1 5.976894,1 22.642464,22.73 0 0 0 -5.747779,0.25 c -0.06967,-0.4 -0.119539,-0.82 -0.189265,-1.24 z m 0.259003,1.76 6.126311,1.27 a 24.754301,24.85 0 0 0 -5.976895,-0.12 c 0.01035,-0.38 -0.05979,-0.76 -0.109579,-1.14 z m 6.763846,5.15 a 14.942234,15 0 0 0 -6.206011,-0.36 c -0.04982,-0.59 -0.119528,-1.17 -0.179304,-1.76 a 20.719898,20.8 0 0 1 6.425164,2.13 z m 1.733302,12.4 a 13.687087,13.74 0 0 0 -0.996153,1.2 h -0.428345 a 16.306958,16.37 0 0 0 0.717235,-6.72 28.679127,28.79 0 0 1 -2.291147,6.93 10.320103,10.36 0 0 0 -2.350913,0.82 22.333658,22.42 0 0 0 0.418382,-5.13 38.26208,38.41 0 0 1 -3.117948,5.82 82.082671,82.4 0 0 0 0.428344,-10.48 15.609653,15.67 0 0 1 8.965342,2.38 31.020077,31.14 0 0 1 -1.304948,5.19 z M 68.824001,113.52 Z m 0.139453,-1.9 a 12.770629,12.82 0 0 0 -0.1295,-1.75 c 0.199238,0.44 0.398467,0.87 0.57777,1.32 z m 15.68935,-5.64 a 25.601026,25.7 0 0 1 -9.493301,10.75 q -1.205343,-2.62 -2.609905,-5.14 a 23.001078,23.09 0 0 0 8.397533,-5.12 21.138279,21.22 0 0 1 -4.85125,5.7 18.807291,18.88 0 0 0 8.596772,-6.14 z M 82.361657,96.899997 C 80.69809,101.68 76.245308,106.29 71.404019,107.7 A 18.239487,18.31 0 0 0 82.849775,99.309998 19.205752,19.28 0 0 1 72.549598,111.56 c -0.996152,-1.85 -2.161646,-3.66 -3.366989,-5.41 a 7.3615404,7.39 0 0 0 1.304957,-0.83 L 70.866098,105 c 3.546294,-3.12 3.217564,-6.890003 1.185418,-9.689999 a 9.8319899,9.87 0 0 0 4.980743,-2.54 36.568628,36.71 0 0 1 5.369247,4.179996 z m 2.988446,-14.579996 a 42.764674,42.93 0 0 0 -6.465002,2.53 5.598357,5.62 0 0 0 -2.3808,-1.82 l 4.23364,-0.31 -4.31333,-2.1 c 1.334845,0.15 1.773152,-2 0.896538,-3 a 8.1484982,8.18 0 0 0 -2.580027,-1.67 31.44842,31.57 0 0 1 2.988447,-3.47 15.370578,15.43 0 0 1 8.317844,8.33 4.114095,4.13 0 0 0 -0.677385,1.56 z m 0.757074,-1.59 a 15.091656,15.15 0 0 0 -6.345463,-8.58 16.05792,16.12 0 0 1 8.477223,6.36 13.218896,13.27 0 0 0 -2.111835,2.27 z m 2.440565,-2.49 a 19.803441,19.88 0 0 0 -2.848984,-4.28 19.275482,19.35 0 0 1 3.924825,3.39 z m -3.147826,-7.42 a 20.919127,21 0 0 1 6.24585,4.9 c -0.527959,0.45 -1.115681,0.92 -1.713378,1.39 a 15.619615,15.68 0 0 0 -4.512548,-6.24 z m 5.697966,7.6 1.075841,-2.08 c 0.19923,0.24 0.398469,0.48 0.577771,0.73 z m 2.490376,-0.12 z m -0.627572,-3.5 0.61761,-1.19 a 4.661977,4.68 0 0 1 -0.727187,1 25.142798,25.24 0 0 0 -3.924826,-5.49 l 5.538589,5.18 a 22.652426,22.74 0 0 0 -3.635945,-6 37.724159,37.87 0 0 1 5.5087,5.83 l -2.639792,2.16 c -0.209191,-0.46 -0.488108,-0.96 -0.707262,-1.45 z m 1.384647,3.1 -0.07966,-0.2 a 17.601951,17.67 0 0 0 2.609906,-2.85 c 0.328731,0.44 0.647497,0.89 0.996153,1.35 -1.195381,0.54 -2.360875,1.12 -3.496481,1.74 z"
     class="cls-1" />
</svg>
