<?xml version="1.0" encoding="UTF-8" standalone="no"?>
<svg
   xmlns:dc="http://purl.org/dc/elements/1.1/"
   xmlns:cc="http://creativecommons.org/ns#"
   xmlns:rdf="http://www.w3.org/1999/02/22-rdf-syntax-ns#"
   xmlns:svg="http://www.w3.org/2000/svg"
   xmlns="http://www.w3.org/2000/svg"
   xmlns:sodipodi="http://sodipodi.sourceforge.net/DTD/sodipodi-0.dtd"
   xmlns:inkscape="http://www.inkscape.org/namespaces/inkscape"
   id="BACKGROUND_2"
   data-name="BACKGROUND 2"
   viewBox="0 0 149.71736 268.93999"
   version="1.1"
   sodipodi:docname="tree_right_down.svg"
   inkscape:version="0.92+devel unknown"
   width="149.71736"
   height="268.94">
  <metadata
     id="metadata13">
    <rdf:RDF>
      <cc:Work
         rdf:about="">
        <dc:format>image/svg+xml</dc:format>
        <dc:type
           rdf:resource="http://purl.org/dc/dcmitype/StillImage" />
        <dc:title>COCONUT LEFT DOWWN</dc:title>
      </cc:Work>
    </rdf:RDF>
  </metadata>
  <sodipodi:namedview
     pagecolor="#ffffff"
     bordercolor="#666666"
     inkscape:document-rotation="0"
     borderopacity="1"
     objecttolerance="10"
     gridtolerance="10"
     guidetolerance="10"
     inkscape:pageopacity="0"
     inkscape:pageshadow="2"
     inkscape:window-width="1920"
     inkscape:window-height="1016"
     id="namedview11"
     showgrid="false"
     inkscape:zoom="3.1083843"
     inkscape:cx="92.164976"
     inkscape:cy="146.51045"
     inkscape:window-x="0"
     inkscape:window-y="0"
     inkscape:window-maximized="1"
     inkscape:current-layer="BACKGROUND_2"
     fit-margin-top="0"
     fit-margin-left="0"
     fit-margin-right="0"
     fit-margin-bottom="0" />
  <defs
     id="defs4">
    <style
       id="style2">.cls-1{fill:#15262f;}</style>
  </defs>
  <title
     id="title6">COCONUT LEFT DOWWN</title>
  <path
     class="cls-1"
     d="M 7.1074142,90.05 A 13.595222,13.6 0 0 0 0.90958229,91.18 L 8.2070204,87.67 5.4679869,88.03 14.814696,85.78 A 9.0468205,9.05 0 0 0 9.3066369,86.39 34.048034,34.06 0 0 1 24.481303,82.65 L 20.552687,82.32 26.430621,81.7 A 34.267957,34.28 0 0 0 17.90361,81.44 37.666762,37.68 0 0 1 32.458496,79.88 46.403692,46.42 0 0 0 18.763308,78.31 44.504359,44.52 0 0 1 40.835556,78.05 L 32.28856,75.71 a 45.853885,45.87 0 0 1 17.433874,2.42 l -11.86583,-5 a 40.385807,40.4 0 0 1 13.395285,3 c 0.239919,-0.62 0.499832,-1.23 0.779729,-1.83 a 17.483855,17.49 0 0 1 -1.079621,-1.81 l 1.409506,1.15 a 31.618888,31.63 0 0 1 5.058226,-7.36 c -3.21887,2 -6.337776,4.48 -8.107149,7.84 a 21.572419,21.58 0 0 1 6.487717,-8.94 23.911596,23.92 0 0 0 -5.688004,3 l 3.818655,-4.91 c -2.5591,1.77 -5.69799,4.24 -8.25709,6 a 23.291814,23.3 0 0 1 5.368106,-6.3 20.352847,20.36 0 0 0 -6.317771,3.3 l 5.578031,-5.87 a 24.911245,24.92 0 0 0 -10.206407,6 c 2.219217,-2.8 4.268499,-5.62 6.487716,-8.42 a 23.431765,23.44 0 0 0 -7.687297,4.39 25.201143,25.21 0 0 1 4.128545,-4.57 8.1571331,8.16 0 0 0 -5.228162,2.67 25.341094,25.35 0 0 1 4.198528,-4.2 20.532784,20.54 0 0 0 -8.99684,3.75 23.56172,23.57 0 0 1 5.598036,-5.67 25.610999,25.62 0 0 0 -5.408105,3.18 c 1.489486,-1.3 2.699054,-2.52 4.18853,-3.82 a 30.989109,31 0 0 0 -8.546996,5.8 29.149755,29.16 0 0 1 6.647666,-8.15 14.62486,14.63 0 0 0 -5.318129,2.34 c 1.199581,-1.19 1.819361,-2.08 2.998947,-3.27 a 14.504902,14.51 0 0 0 -8.696947,7.22 25.790936,25.8 0 0 1 5.678005,-7.78 17.893711,17.9 0 0 0 -6.757627,4.87 l 4.278497,-5.21 a 22.682028,22.69 0 0 0 -7.337418,5.58 15.134681,15.14 0 0 1 7.867231,-7.08 c -3.17888,0.93 -7.297428,2.44 -10.486316,3.37 1.929323,-1.4 3.83865,-3.14 5.767973,-4.54 -1.849343,0.47 -4.668356,1.23 -6.517709,1.69 1.189583,-0.79 2.5591,-1.66 3.858645,-2.5 q -1.879336,-0.09 -3.778666,0 l 3.638722,-1 -5.108213,-0.72 a 29.459647,29.47 0 0 1 11.86583,0.12 l -5.678006,-2 a 122.09709,122.14 0 0 1 15.464572,4.07 L 28.79979,42.33 c 6.437729,1.35 11.995776,4.19 17.613807,7.61 l 0.689752,0.29 c -0.829706,-1.07 -1.119601,-2.44 -2.099258,-3.2 2.609087,1.52 4.908274,3.24 7.397402,4.83 l 0.369865,-0.28 -3.848648,-3.24 a 24.991217,25 0 0 1 2.429154,1 l 5.997883,-4.79 -4.378461,1.17 6.737632,-5 A 33.428252,33.44 0 0 0 49.282587,44.4 l 6.637669,-4.62 a 27.700264,27.71 0 0 0 -11.156083,4.65 l 8.716942,-5.93 -8.397055,2.6 7.6773,-4.68 a 48.283031,48.3 0 0 0 -16.264275,7.5 l 13.295321,-9.2 -9.536651,1.82 7.557351,-3.5 -6.04788,0.61 a 19.823033,19.83 0 0 1 7.077515,-3.38 28.190093,28.2 0 0 0 -11.765866,0.62 l 6.947558,-2.89 -10.836195,0.45 8.197126,-2.32 -4.748335,-0.12 3.44879,-1.24 a 37.506818,37.52 0 0 0 -16.504204,3 A 22.372137,22.38 0 0 1 34.287854,24 l -7.257448,-0.14 5.438088,-1.23 -6.707641,-0.78 c 2.739034,-0.33 5.578042,-0.75 8.267099,-0.16 a 60.098878,60.12 0 0 1 35.867389,23.85 c 0.329885,0.46 0.629778,0.94 0.939668,1.41 a 31.988757,32 0 0 1 0.129957,-4.92 l 2.539105,6.6 A 25.610999,25.62 0 0 1 73.334135,33.82 l 0.639775,7.76 c 0.429849,-4 0.199928,-7.74 0.549808,-11.71 0.04999,1.24 0.999642,2.27 1.399509,3.57 0.04999,-0.24 0.109962,-0.49 0.159939,-0.73 0.429849,-6.53 1.359519,-12.74 3.998599,-18.78 l -1.449497,9.29 A 122.0671,122.11 0 0 1 84.260297,8.2200002 L 82.590877,14 A 29.459647,29.47 0 0 1 89.358502,4.25 L 86.99933,8.8300002 89.918308,6.44 q -1.149604,1.5000002 -2.169241,3.0900002 c 1.429502,-0.57 2.938972,-1.19 4.268499,-1.7 C 90.56808,9.0700002 88.31887,10.93 86.869374,12.17 c 2.259207,-0.76 4.778328,-1.32 6.997545,-2.08 -2.599089,2.06 -6.207819,4.55 -8.806908,6.61 a 15.134681,15.14 0 0 1 10.376354,-2.32 22.682028,22.69 0 0 0 -8.796912,2.76 l 6.727635,-0.48 a 17.893711,17.9 0 0 0 -7.887226,2.7 25.790936,25.8 0 0 1 9.626618,-0.14 14.504902,14.51 0 0 0 -10.886173,2.91 c 1.659422,-0.29 2.749031,-0.28 4.408453,-0.58 a 14.62486,14.63 0 0 0 -4.998241,3 29.149755,29.16 0 0 1 10.496303,-0.71 30.989109,31 0 0 0 -9.676594,3.62 c 1.919325,-0.47 3.618727,-0.74 5.538052,-1.21 a 25.620996,25.63 0 0 0 -5.717986,2.58 23.571716,23.58 0 0 1 7.867231,-1.29 20.532784,20.54 0 0 0 -8.277095,5.21 25.35109,25.36 0 0 1 5.857949,-1 8.1571331,8.16 0 0 0 -5.208177,2.72 25.191146,25.2 0 0 1 6.117853,-0.72 23.431765,23.44 0 0 0 -7.997188,3.74 c 3.558752,-0.19 7.05752,-0.23 10.616272,-0.42 a 24.911245,24.92 0 0 0 -10.786208,4.86 l 7.997188,-1.16 a 20.352847,20.36 0 0 0 -6.337776,3.25 23.291814,23.3 0 0 1 7.997188,-0.75 q 0.449844,-1.55 0.999652,-3.09 A 81.881222,81.91 0 0 1 121.80709,0.52 c 2.50913,-0.13 5.51807,-0.39 7.9972,-0.52 -2.2692,0.94 -5.75798,2.32 -7.9972,3.27 3.06893,0 6.36777,0.28 9.43669,0.24 -3.99859,1.49 -9.40669,3.1 -13.3953,4.5900002 a 19.46316,19.47 0 0 1 13.61522,1.28 29.169748,29.18 0 0 0 -11.85583,-0.11 L 128.02491,11.35 a 22.99192,23 0 0 0 -10.71624,0.18 33.17834,33.19 0 0 1 11.83585,3.65 18.663441,18.67 0 0 0 -14.51489,-0.75 c 2.14923,0.3 3.47877,0.74 5.62801,1 a 18.813388,18.82 0 0 0 -7.27744,1.67 37.496822,37.51 0 0 1 13.11539,3.3 39.816007,39.83 0 0 0 -13.26534,0.59 c 2.53911,0.19 4.71834,0.53 7.25745,0.72 a 32.988407,33 0 0 0 -7.99719,0.88 30.319344,30.33 0 0 1 10.06646,1.61 26.410718,26.42 0 0 0 -12.19571,3.09 32.608539,32.62 0 0 1 7.55735,1.1 10.486315,10.49 0 0 0 -7.44739,1.27 32.398614,32.41 0 0 1 7.76728,1.54 30.139407,30.15 0 0 0 -11.30604,1.39 c 4.43845,1.18 8.72694,2.51 13.15538,3.69 a 32.03874,32.05 0 0 0 -15.12468,1.66 l 10.2564,1.76 a 26.170803,26.18 0 0 0 -8.99684,1.46 29.98946,30 0 0 1 10.33636,2.37 c -3.99859,0.14 -9.13678,0 -13.14538,0.15 l 7.71729,2.13 a 30.749193,30.76 0 0 0 -8.19712,1.26 27.750247,27.76 0 0 1 13.56524,4.23 c -4.40846,-2.11 -9.50666,-2.25 -14.38496,-1.85 a 40.695698,40.71 0 0 1 12.99544,4.83 c 0.99965,-0.75 2.04929,-1.49 3.11891,-2.17 a 60.148861,60.17 0 0 1 31.86879,-9.41 v 3.43 l -1.30953,-0.59 1.30953,1.3 v 1.44 a 27.790233,27.8 0 0 0 -6.62767,-2.46 19.823033,19.83 0 0 1 5.28815,5.8 l -5.37812,-2.84 5.67801,6.09 -8.14714,-5.28 8.8469,13.54 a 48.283031,48.3 0 0 0 -12.20571,-13 l 5.35811,7.23 -6.79761,-5.57 5.84795,8.77 a 27.690268,27.7 0 0 0 -8.58699,-8.5 l 4.40846,6.78 a 33.428252,33.44 0 0 0 -8.2771,-7.33 l 4.36847,7.15 -3.61873,-2.73 3.9986,7.11 a 27.180447,27.19 0 0 0 -7.78726,-7.86 l 6.2078,10.34 a 25.451055,25.46 0 0 1 7.20748,-0.66 l -6.36776,2.06 0.1,0.17 c 3.53876,-0.54 6.8176,-1.47 10.38635,-2 -1.19958,0.34 -1.9993,1.5 -3.14889,2.18 h 0.69975 a 78.842291,78.87 0 0 1 8.54699,-1 v 9.74 c -0.49982,-0.62 -0.99964,-1.22 -1.55945,-1.8 0.56981,1.13 1.04963,2.2 1.55945,3.28 v 0.44 a 25.610999,25.62 0 0 0 -2.92896,-3.58 23.56172,23.57 0 0 1 2.92896,6.92 v 0.26 a 20.532784,20.54 0 0 0 -6.8376,-6.69 25.361087,25.37 0 0 1 2.3092,5.47 8.1571331,8.16 0 0 0 -3.83865,-4.44 25.18115,25.19 0 0 1 2.09926,5.79 23.431765,23.44 0 0 0 -5.46808,-7 c 0.99965,3.43 1.83935,6.82 2.83901,10.24 a 24.911245,24.92 0 0 0 -7.19748,-9.4 l 2.99895,7.54 a 20.342851,20.35 0 0 0 -4.60838,-5.43 23.281818,23.29 0 0 1 2.59909,7.86 c -1.6994,-2.61 -3.68871,-6.08 -5.38811,-8.69 l 1.6894,6 a 23.921593,23.93 0 0 0 -4.12854,-4.95 21.572419,21.58 0 0 1 2.64906,10.73 c -0.36986,-3.79 -2.32918,-7.23 -4.55839,-10.32 a 31.618888,31.63 0 0 1 1.91932,8.72 l 1.73939,-0.53 a 17.543835,17.55 0 0 1 -1.67941,1.27 c 0,0.66 0,1.33 0,2 a 40.385807,40.4 0 0 1 13.54524,2.25 l -12.88547,0.18 a 45.843888,45.86 0 0 1 17.07399,4.31 l -8.80689,-1.05 a 44.624317,44.64 0 0 1 13.91511,4.509996 V 101.61 a 46.343712,46.36 0 0 0 -6.8476,-1.38 37.576793,37.59 0 0 1 6.8476,2.86 v 1.61 c -0.63978,-0.19 -1.28955,-0.37 -1.94932,-0.52 l 1.94932,1 v 0.73 l -0.49983,-0.16 0.49983,0.23 v 8 a 28.420012,28.43 0 0 0 -2.99895,-4.27 l 1.19957,7.29 -2.07926,-3.45 0.46984,5.15 a 21.872313,21.88 0 0 0 -2.53912,-6.23 39.376161,39.39 0 0 1 1.53946,13 34.138002,34.15 0 0 0 -6.24781,-17 35.53751,35.55 0 0 1 1.28955,8.2 l -1.99929,-5.61 a 18.813388,18.82 0 0 1 0.06,9.83 19.283223,19.29 0 0 0 -2.99894,-10.75 13.735173,13.74 0 0 1 0,8.62 28.619941,28.63 0 0 0 -6.60768,-15 l 1.56946,7.52 a 19.573121,19.58 0 0 0 -3.12891,-6.75 76.193221,76.22 0 0 1 1.49948,13.36 26.470696,26.48 0 0 0 -6.69765,-16.57 70.525214,70.55 0 0 1 3.32883,9.91 16.094343,16.1 0 0 0 -5.65802,-8 26.320749,26.33 0 0 1 4.60839,17.12 c -1.04963,-6.61 -9.83655,-22.800004 -13.99508,-28 a 29.27971,29.29 0 0 0 -8.23711,0.54 c 3.94861,3.77 5.19818,9.85 3.90863,15.16 a 10.58628,10.59 0 0 0 -5.16819,-6.86 26.570662,26.58 0 0 1 2.78902,7 l -3.908627,-4.2 c 18.353557,42 34.817767,84.51 50.042417,127.53 v 37.42 C 137.02182,222.22 113.95993,149.74 91.177934,107.14 a 15.284628,15.29 0 0 1 -2.619084,5.3 18.783399,18.79 0 0 0 -0.289896,-6.17 2.2192201,2.22 0 0 1 -0.559805,1.17 7.5873334,7.59 0 0 1 -1.999295,1.33 11.935805,11.94 0 0 0 -4.10855,3.78 17.074,17.08 0 0 0 12.345656,3.58 17.623806,17.63 0 0 1 -13.095393,-2.42 v 0.08 a 18.473508,18.48 0 0 0 13.865125,6.16 22.112228,22.12 0 0 1 -9.556646,-1 20.312861,20.32 0 0 0 6.547702,3 18.083644,18.09 0 0 1 -9.996482,-1.87 24.931237,24.94 0 0 0 15.864418,5.68 29.699562,29.71 0 0 1 -16.074354,-1.21 l 7.907231,3.49 A 25.850914,25.86 0 0 1 81.531322,126.9 46.983487,47 0 0 0 94.196876,131 35.987352,36 0 0 1 79.87191,129 c 3.548755,2.47 7.507354,4.62 11.82584,5 a 24.541375,24.55 0 0 1 -12.265687,-2.87 27.20044,27.21 0 0 0 5.707988,4.6 l -6.837596,-1.8 c 2.998946,1.88 6.997545,4.07 9.996492,5.95 a 26.480694,26.49 0 0 1 -8.99684,-2.8 23.141867,23.15 0 0 0 6.267793,5.13 L 76.942935,139 a 28.330043,28.34 0 0 0 10.826198,8 c -3.918619,-1.07 -7.787261,-2 -11.695893,-3 a 26.640638,26.65 0 0 0 7.997187,6.08 28.649931,28.66 0 0 1 -6.627671,-2.27 9.2767397,9.28 0 0 0 5.128198,4.28 28.839864,28.85 0 0 1 -6.267794,-2.52 23.351793,23.36 0 0 0 7.997188,7.78 26.800581,26.81 0 0 1 -8.437034,-3.32 29.139759,29.15 0 0 0 5.73799,4.24 c -1.999305,-1 -3.83866,-1.69 -5.867947,-2.67 a 35.207626,35.22 0 0 0 9.886531,6.34 33.158347,33.17 0 0 1 -11.495956,-3.3 16.634154,16.64 0 0 0 4.828295,4.51 c -1.779371,-0.72 -2.998947,-1 -4.76832,-1.7 a 16.5042,16.51 0 0 0 11.435981,5.87 29.329692,29.34 0 0 1 -10.676247,-2.47 20.352847,20.36 0 0 0 8.117147,4.89 l -7.357413,-2.15 a 25.790936,25.8 0 0 0 9.116789,5.18 17.21395,17.22 0 0 1 -10.996134,-5.07 c 2.389164,2.92 5.817959,6.55 8.207123,9.46 -2.329189,-1.39 -4.998251,-2.62 -7.32743,-4 1.31954,1.73 3.368821,4.33 4.688351,6.06 -1.859341,-1.22 -3.998589,-2.74 -5.907927,-4 a 72.394557,72.42 0 0 1 -4.308478,-43.09 71.47488,71.5 0 0 1 4.798312,-14.72 31.368975,31.38 0 0 1 -11.415986,-7.3 l 5.917914,6.81 a 26.990514,27 0 0 1 -6.937561,-4.58 48.982785,49 0 0 0 10.146433,9.49 37.536808,37.55 0 0 1 -12.635551,-8.25 c 2.259197,3.91 4.998241,7.7 8.99683,9.94 a 25.601003,25.61 0 0 1 -10.336365,-8.07 28.380026,28.39 0 0 0 3.348827,6.88 l -5.668008,-4.74 c 1.999294,3.11 4.798312,6.94 6.797606,10 a 27.640286,27.65 0 0 1 -7.257448,-6.63 24.151511,24.16 0 0 0 3.648719,7.63 l -6.727635,-6.86 a 29.559611,29.57 0 0 0 6.637668,12.4 c -3.228867,-2.74 -6.487727,-5.3 -9.716584,-8 a 27.80023,27.81 0 0 0 4.88828,9.31 29.879499,29.89 0 0 1 -5.248157,-5.09 9.6765992,9.68 0 0 0 2.998947,6.32 30.089425,30.1 0 0 1 -4.798313,-5.16 24.371435,24.38 0 0 0 4.068571,10.88 27.990163,28 0 0 1 -6.497714,-6.88 30.399316,30.41 0 0 0 3.548744,6.55 c -1.479478,-1.82 -2.878987,-3.3 -4.358466,-5.13 a 36.727092,36.74 0 0 0 6.527707,10.38 34.59784,34.61 0 0 1 -9.396697,-8.22 17.353901,17.36 0 0 0 2.5591,6.4 c -1.359519,-1.47 -2.389164,-2.25 -3.748683,-3.72 a 17.223947,17.23 0 0 0 8.197116,10.62 30.619239,30.63 0 0 1 -8.99683,-7.06 21.242535,21.25 0 0 0 5.498062,8.22 l -5.997893,-5.3 a 26.910542,26.92 0 0 0 6.307783,8.94 17.993677,18 0 0 1 -8.137141,-9.66 c 0.999652,3.82 2.589092,8.76 3.558752,12.58 -1.58944,-2.35 -3.558752,-4.69 -5.148192,-7 0.479836,2.22 1.259565,5.59 1.739391,7.8 -0.88969,-1.44 -1.869338,-3.11 -2.799018,-4.68 q -0.179933,2.23 -0.179933,4.48 l -0.999653,-4.36 -1.069624,6 a 34.987704,35 0 0 1 0.629778,-14.07 l -2.579085,6.66 a 144.94906,145 0 0 1 5.458072,-18.18 l -5.318128,9.81 c 1.869348,-7.58 5.458082,-14.11 9.756574,-20.59 l 0.369864,-0.81 c -1.309532,0.94 -2.938962,1.23 -3.888627,2.36 2.529108,-4 5.42809,-7.37 7.907221,-11.45 l -6.177827,6.86 a 30.399316,30.41 0 0 1 10.736221,-13.81 l -7.147486,4.4 c 2.928974,-4.85 7.707292,-10.06 12.895464,-12.34 -2.079264,0.62 -4.49841,2.54 -6.577684,3.16 a 15.584523,15.59 0 0 1 10.196421,-5.220004 l -3.798671,-1.2 c 1.999295,0.62 5.168188,-0.59 8.696948,-0.91 A 76.473123,76.5 0 0 1 71.114988,91.41 6.7076425,6.71 0 0 1 69.715479,87.17 h -0.06 l 0.06,-0.06 a 4.3784612,4.38 0 0 1 0.07002,-0.46 25.740954,25.75 0 0 0 -4.208525,-1.74 C 59.73903,88.17 45.504031,99.909996 42.045253,105.59 a 26.330747,26.34 0 0 1 10.706229,-14.12 16.094343,16.1 0 0 0 -8.257091,5.31 70.545207,70.57 0 0 1 6.817602,-7.93 26.470696,26.48 0 0 0 -12.44563,12.83 76.233208,76.26 0 0 1 6.417744,-11.81 19.583118,19.59 0 0 0 -5.438087,5.07 l 4.338481,-6.43 A 28.629938,28.64 0 0 0 32.408612,99.939996 13.735173,13.74 0 0 1 35.637479,91.94 a 19.293219,19.3 0 0 0 -6.787619,8.85 18.813388,18.82 0 0 1 3.758681,-9.08 l -3.998599,4.44 a 35.53751,35.55 0 0 1 4.278496,-7.11 34.138002,34.15 0 0 0 -12.185717,13.4 39.386158,39.4 0 0 1 6.327778,-11.51 21.872313,21.88 0 0 0 -4.698348,4.82 l 2.349174,-4.62 -3.228868,2.41 3.848648,-6.3 a 29.069783,29.08 0 0 0 -13.305319,14.43 30.339338,30.35 0 0 1 5.098206,-11.83 l -6.267794,5.32 2.369169,-4.18 -3.458788,2.07 1.339524,-2.31 A 17.113985,17.12 0 0 0 3.2788443,98.389996 L 7.0775148,91.39 4.9382665,92.33 a 1.8393535,1.84 0 0 1 0.6197801,-1 Q 2.7590284,92.13 0,93.04 a 21.242535,21.25 0 0 1 7.1075072,-2.99 z m 45.6439488,-38 c 0.699759,0.44 1.409506,0.88 2.149245,1.29 l -1.789368,-1.5 z m -1.329527,-2.69 a 25.511034,25.52 0 0 1 2.529107,1.35 l 7.227467,-5.42 a 27.180447,27.19 0 0 0 -9.746577,4.08 z m 11.425983,-1.17 a 37.156942,37.17 0 0 0 -8.307078,2.92 25.740954,25.75 0 0 1 3.508765,2.76 l 0.509819,-0.39 -1.54945,-2.33 c 0.839703,0.47 1.689404,1 2.529107,1.6 l 3.388806,-2.56 -4.828305,1.26 z m -4.138543,6.31 c 0.589788,0.59 1.139596,1.21 1.66941,1.86 l 0.06992,-0.05 -1.31953,-2 z m 2.059269,-0.87 q 0.789727,0.61 1.559458,1.27 l 5.877934,-4.4 z m 10.366357,0.87 a 46.873527,46.89 0 0 0 -7.217459,1.9 22.99192,23 0 0 1 2.479131,3 l 0.159938,-0.09 a 16.84408,16.85 0 0 1 -1.629419,-3.06 12.665549,12.67 0 0 1 1.379514,1.33 l 4.868284,-2.9 z m -3.798661,4.3 3.598732,-2.1 -4.558394,0.9 a 13.095398,13.1 0 0 1 0.959662,1.21 z m -0.629777,1 c 0.219923,0.33 0.409854,0.67 0.609783,1 h 0.08996 c -0.159939,-0.33 -0.34987,-0.67 -0.549798,-1 z m 1.069624,-0.31 c 0.159939,0.26 0.319888,0.53 0.459842,0.8 q 2.259197,-1.23 4.618368,-2.27 z m 1.399509,3.23 a 12.715531,12.72 0 0 1 0.34988,1.57 l 0.189931,-0.1 0.459831,-1.71 z m 1.219565,-0.28 a 8.5869821,8.59 0 0 0 0.139954,1.33 l 3.828653,-2 a 37.796717,37.81 0 0 0 -3.938614,0.66 z m 5.418103,1.69 a 37.246909,37.26 0 0 0 -4.998251,0.79 c 0.259913,1.17 0.589798,2.47 0.759734,3.83 a 64.467343,64.49 0 0 1 4.478425,6.31 c 0.73975,-0.89 0.999653,-2.21 0.149952,-2.87 l 2.149246,0.1 a 37.98665,38 0 0 0 -2.539106,-8.16 z m 4.998241,0.44 a 14.484909,14.49 0 0 1 8.147139,-0.85 c 0,-0.78 0,-1.56 0.08996,-2.34 a 15.994379,16 0 0 0 -8.207114,3.14 z m 8.357065,-3.91 c 0,-0.32 0,-0.64 0.06992,-1 a 21.492446,21.5 0 0 0 -3.418798,1 20.432819,20.44 0 0 1 3.348827,0 z m 4.528402,4.27 a 18.173613,18.18 0 0 1 8.826907,1.49 q 0.86969,-1.16 1.79936,-2.28 a 20.572769,20.58 0 0 0 -10.666246,0.79 z m 11.316037,-1.61 0.86968,-1 a 27.6003,27.61 0 0 0 -4.64836,-0.11 26.550669,26.56 0 0 1 3.73869,1.1 z m 1.6794,-1.87 q 0.99964,-1 1.9993,-2 a 26.990514,27 0 0 0 -10.176429,-0.21 19.513142,19.52 0 0 1 8.137139,2.2 z m 0.91967,4 5.41811,6.46 a 13.845134,13.85 0 0 0 1.1296,-1.89 38.086615,38.1 0 0 0 -6.58768,-4.62 z m -5.42809,-13 a 29.239723,29.25 0 0 1 8.35707,3.36 l -9.71659,-1.07 a 32.988407,33 0 0 1 9.45668,3.21 q 1.86934,-1.69 3.86864,-3.21 A 50.422279,50.44 0 0 0 102.164,52.42 Z m 11.82584,8.66 2.84901,3.69 -4.15854,-2.73 4.45843,5.76 -6.72763,-5.3 a 60.8886,60.91 0 0 1 5.76797,6.91 13.115391,13.12 0 0 1 5.05823,-3.21 47.213407,47.23 0 0 0 -4.10856,-3.62 28.719906,28.73 0 0 0 -3.16889,-1.53 z m 0.14996,11.02 a 12.585577,12.59 0 0 1 0.89968,-1.35 l -0.66976,-0.6 z m 2.829,-2.08 a 19.523138,19.53 0 0 1 4.92827,-3.14 l -0.50982,-0.54 c -1.24956,1.27 -3.33883,2.39 -4.44844,3.68 z m 16.13434,-3 -0.10997,-0.16 -0.99965,0.31 z m -1.08962,-1.54 a 37.256906,37.27 0 0 0 -8.64696,-8.32 l 3.16888,4.8 -3.9986,-3 3.76868,6.3 a 31.988757,32 0 0 1 4.58839,-0.94 l -3.65872,2.5 0.15995,0.27 a 25.630992,25.64 0 0 1 4.58838,-1.6 z m -4.62838,1.63 -0.22992,-0.23 -2.10926,1.44 a 24.991217,25 0 0 1 2.30919,-1.22 z m -1.66941,-1.67 -8.16713,-8.16 5.48807,9.1 q 1.27955,-0.52 2.64907,-0.93 z m 0.8497,24.21 c -0.11996,-0.54 -0.24991,-1.07 -0.38987,-1.61 a 17.663792,17.67 0 0 1 -3.49877,1.65 c 0,0.07 0,0.14 0,0.21 1.25956,-0.13 2.5591,-0.22 3.85865,-0.24 z m -4.72834,0.34 z m 0.67977,-3.71 a 4.6783558,4.68 0 0 0 0.99964,-0.64 l -0.99964,0.87 c 0.06,0.56 0.09,1.11 0.10996,1.67 l 3.26884,-1 a 37.826706,37.84 0 0 0 -2.92897,-7.48 22.732011,22.74 0 0 1 1.12961,6.91 l -3.19888,-6.89 a 25.231132,25.24 0 0 1 1.59944,6.57 z m -0.99966,2.26 c -0.0799,-0.3 -0.16993,-0.6 -0.26991,-0.89 l -1.77937,1.52 z m -0.51981,-1.67 a 20.992622,21 0 0 0 -3.9986,-6.9 15.664494,15.67 0 0 1 1.84935,7.54 c 0.71975,-0.2 1.43949,-0.41 2.09926,-0.63 z m -2.49913,0.76 a 19.343202,19.35 0 0 0 -2.37916,-4.63 19.863019,19.87 0 0 1 0.99965,5 z m -1.72939,0.54 a 16.114336,16.12 0 0 0 -5.52806,-9.07 15.144677,15.15 0 0 1 2.66907,10.34 13.265338,13.27 0 0 1 2.81901,-1.26 z m -16.76411,2.21 a 2.7590304,2.76 0 0 0 0.42985,0.86 40.545751,40.56 0 0 1 12.21571,-0.63 4.1185526,4.12 0 0 1 1.20958,-1.13 15.424579,15.43 0 0 0 -4.59839,-10.86 29.10977,29.12 0 0 0 -8.29709,5.25 l 2.70906,0.43 -3.56876,2.91 1.4395,1.15 c -1.03963,-0.26 -1.859346,1.03 -1.579438,2.03 z M 97.825529,81.3 a 6.737632,6.74 0 0 1 1.299544,1.59 c 0.07994,0.15 0.159939,0.3 0.219924,0.45 a 63.817571,63.84 0 0 1 11.495953,-8.21 c 0.62978,-1.12 1.34952,-2.14 1.9993,-3.07 a 35.807416,35.82 0 0 0 -7.46738,-5.05 l -0.52981,0.54 a 21.622401,21.63 0 0 1 3.37881,2.41 15.324614,15.33 0 0 0 -3.61873,-2.16 38.356519,38.37 0 0 0 -7.707292,11.65 1.7393887,1.74 0 0 1 1.349532,0.79 z M 91.507748,75 c 0.299892,1.8 0.949665,3.71 2.629072,4.21 a 4.3884576,4.39 0 0 0 0.999652,0.15 60.298808,60.32 0 0 1 6.997538,-12.41 19.992973,20 0 0 0 -10.266385,-0.11 39.43614,39.45 0 0 0 -0.399867,8.17 z m 0.609783,-31.61 c -2.888985,1 -6.567687,2.13 -9.406695,3.16 l 6.217817,-0.28 a 23.911596,23.92 0 0 0 -5.757975,2.86 21.552426,21.56 0 0 1 7.6773,-0.69 c 0.319887,-1.66 0.749737,-3.31 1.229573,-5.04 z m -1.389512,5.63 a 27.040496,27.05 0 0 0 -7.597331,2.1 31.568905,31.58 0 0 1 7.207472,-0.1 c 0.08996,-0.66 0.209925,-1.33 0.349879,-1.99 z m -0.609783,3.19 a 35.917377,35.93 0 0 0 -5.997893,1 22.722014,22.73 0 0 1 5.767972,0.25 c 0.06992,-0.4 0.11996,-0.82 0.189931,-1.24 z m -0.259913,1.76 -6.147834,1.27 a 24.84127,24.85 0 0 1 5.997893,-0.12 c -0.01033,-0.38 0.06,-0.76 0.109962,-1.14 z m -6.787609,5.15 a 14.99473,15 0 0 1 6.227814,-0.36 c 0.04999,-0.59 0.119948,-1.17 0.179933,-1.76 a 20.792693,20.8 0 0 0 -6.447737,2.13 z m -1.739392,12.4 a 13.735173,13.74 0 0 1 0.999653,1.2 h 0.429849 A 16.364249,16.37 0 0 1 82.041069,66 a 28.779885,28.79 0 0 0 2.299197,6.93 10.35636,10.36 0 0 1 2.359172,0.82 22.412123,22.42 0 0 1 -0.419852,-5.13 38.396506,38.41 0 0 0 3.128903,5.82 82.371051,82.4 0 0 1 -0.429849,-10.48 15.664494,15.67 0 0 0 -8.99684,2.38 31.12906,31.14 0 0 0 1.309532,5.19 z m -0.679765,42 z m -0.139943,-1.9 a 12.815496,12.82 0 0 1 0.129956,-1.75 c -0.199938,0.44 -0.399867,0.87 -0.5798,1.32 z m -15.74447,-5.64 a 25.69097,25.7 0 0 0 9.526653,10.75 q 1.209578,-2.62 2.619075,-5.14 a 23.081887,23.09 0 0 1 -8.427037,-5.12 21.212544,21.22 0 0 0 4.868295,5.7 18.873367,18.88 0 0 1 -8.626976,-6.14 z m 2.299197,-9.080004 C 68.735751,101.68 73.204178,106.29 78.062475,107.7 A 18.303568,18.31 0 0 1 66.576507,99.309996 19.273227,19.28 0 0 0 76.912872,111.56 c 0.999652,-1.85 2.16924,-3.66 3.378818,-5.41 a 7.3874036,7.39 0 0 1 -1.309542,-0.83 L 78.602286,105 c -3.558752,-3.12 -3.228867,-6.890004 -1.189583,-9.69 a 9.8665324,9.87 0 0 1 -4.998241,-2.54 36.697103,36.71 0 0 0 -5.388111,4.179996 z M 64.067395,82.32 a 42.914918,42.93 0 0 1 6.487716,2.53 5.6180256,5.62 0 0 1 2.389164,-1.82 l -4.248514,-0.31 4.328484,-2.1 c -1.339535,0.15 -1.779382,-2 -0.899688,-3 a 8.1771262,8.18 0 0 1 2.589092,-1.67 31.558908,31.57 0 0 0 -2.998947,-3.47 15.424579,15.43 0 0 0 -8.347067,8.33 4.128549,4.13 0 0 1 0.679765,1.56 z m -0.759734,-1.59 a 15.144677,15.15 0 0 1 6.367757,-8.58 16.114336,16.12 0 0 0 -8.507006,6.36 13.265338,13.27 0 0 1 2.119254,2.27 z m -2.449139,-2.49 a 19.873016,19.88 0 0 1 2.858993,-4.28 19.343202,19.35 0 0 0 -3.938614,3.39 z m 3.158885,-7.42 a 20.992622,21 0 0 0 -6.267793,4.9 c 0.529813,0.45 1.119601,0.92 1.719397,1.39 a 15.674492,15.68 0 0 1 4.528401,-6.24 z m -5.717985,7.6 -1.079621,-2.08 C 57.019872,76.58 56.819933,76.82 56.64,77.07 Z M 55.800297,78.3 Z m 0.629777,-3.5 -0.61978,-1.19 a 4.6783558,4.68 0 0 0 0.729742,1 25.231132,25.24 0 0 1 3.938614,-5.49 l -5.558047,5.18 a 22.732011,22.74 0 0 1 3.648719,-6 37.856695,37.87 0 0 0 -5.528054,5.83 l 2.649067,2.16 c 0.209926,-0.46 0.489823,-0.96 0.709747,-1.45 z m -1.389512,3.1 0.07994,-0.2 a 17.663792,17.67 0 0 1 -2.619075,-2.85 c -0.329885,0.44 -0.649772,0.89 -0.999652,1.35 1.199581,0.54 2.369169,1.12 3.508765,1.74 z"
     id="path8"
     inkscape:connector-curvature="0"
     style="stroke-width:0.99982435" />
</svg>
