<svg id="BACKGROUND_2" data-name="BACKGROUND 2" xmlns="http://www.w3.org/2000/svg" viewBox="0 0 156.82 196.35"><defs><style>.cls-1{fill:#15262f;}</style></defs><title>COCONUT LEFT UP</title><path class="cls-1" d="M675.33,42.41a22.19,22.19,0,0,1,10.22,1.07l-12.31-4.81,4.5,0.25-15.48-2.51a14.76,14.76,0,0,1,9,.3,55.56,55.56,0,0,0-25.16-4.21l6.35-1-9.64-.28a55.93,55.93,0,0,1,13.84-1.48A61.45,61.45,0,0,0,632.82,29a75.72,75.72,0,0,1,22.09-4.24A72.62,72.62,0,0,0,619,27l13.62-4.86a74.82,74.82,0,0,0-28.07,6.12l18.68-9.62a65.9,65.9,0,0,0-21.43,6.56c-0.47-1-1-1.93-1.5-2.88a28.65,28.65,0,0,0,1.53-3.09l-2.15,2A51.58,51.58,0,0,0,590.5,10c5.49,2.89,10.86,6.5,14.16,11.76A35.2,35.2,0,0,0,593,8c3.6,1.23,6.44,2.13,9.63,4.22L595.8,4.7c4.38,2.57,9.8,6.2,14.18,8.77a38,38,0,0,0-9.52-9.59,33.21,33.21,0,0,1,10.68,4.58L601.78,0H571.93l0.91,0.19c-0.23.45-.45,0.9-0.65,1.36q-1.81-.81-3.65-1.55H543.68A31.68,31.68,0,0,1,548,1.51a24.42,24.42,0,0,0-10.17.19c-0.09-.57-0.2-1.13-0.3-1.7h-7V12c0.31,0.07.62,0.13,0.93,0.22-0.31,0-.62,0-0.93,0v2.41a27.71,27.71,0,0,1,4.17.48,64.34,64.34,0,0,1,1.57,13.22c-0.27,3-1.08,6.16-3.76,7.18a7.17,7.17,0,0,1-1.54.36c-0.14-.28-0.29-0.55-0.43-0.82v70.68c3.37-8.87,6.79-17.29,10.24-25.13A24.94,24.94,0,0,0,545.64,89a30.66,30.66,0,0,1-.29-10.08,3.62,3.62,0,0,0,1,1.83,12.37,12.37,0,0,0,3.47,1.91A19.49,19.49,0,0,1,557,88.25c-5.26,4.76-13,7.86-19.77,7.31,7.32,0.85,15.26-.93,21-5.53l0.08,0.12a30.16,30.16,0,0,1-21.81,11.72,36.09,36.09,0,0,0,15.42-2.8,33.16,33.16,0,0,1-10.28,5.63c5.2,0.15,11.65-1.39,16-4.28a40.68,40.68,0,0,1-25.1,11.2,48.46,48.46,0,0,0,26-4l-12.43,6.66a42.19,42.19,0,0,0,12.68-2.84,76.63,76.63,0,0,1-20.1,8.24,58.7,58.7,0,0,0,23.05-5c-5.47,4.45-11.65,8.45-18.62,9.55a40,40,0,0,0,19.59-6.06c-2.9,3.22-5.11,5.79-8.72,8.19l10.91-3.77c-4.65,3.43-10.86,7.48-15.51,10.91a43.22,43.22,0,0,0,14.29-5.67,37.77,37.77,0,0,1-9.57,9.12l13.64-6.29A46.23,46.23,0,0,1,551.13,145c6.24-2.22,12.43-4.14,18.67-6.36a43.48,43.48,0,0,1-12.31,10.89A46.74,46.74,0,0,0,568,145a15.13,15.13,0,0,1-7.82,7.59,47.06,47.06,0,0,0,9.89-4.87,38.11,38.11,0,0,1-12,13.64,43.74,43.74,0,0,0,13.31-6.44,47.54,47.54,0,0,1-8.82,7.6c3.18-1.84,6-3.23,9.22-5.07A57.44,57.44,0,0,1,556.48,169a54.11,54.11,0,0,0,18.29-6.8,27.14,27.14,0,0,1-7.3,7.93c2.8-1.4,4.74-2,7.55-3.35a26.93,26.93,0,0,1-17.88,11,47.87,47.87,0,0,0,17.06-5.33,33.22,33.22,0,0,1-12.6,9L573.31,177a42.09,42.09,0,0,1-14.19,9.56,28.09,28.09,0,0,0,17.24-9.6c-3.54,5-8.65,11.37-12.19,16.41,3.62-2.55,7.81-4.88,11.42-7.42-1.93,3-4.95,7.46-6.87,10.44,2.88-2.21,6.25-5,9.12-7.17a118.14,118.14,0,0,0,1.74-70.59A116.64,116.64,0,0,0,570,95.24,51.19,51.19,0,0,0,587.62,82l-8.78,11.8a44,44,0,0,0,10.72-8.3,80,80,0,0,1-15.34,16.69,61.25,61.25,0,0,0,19.54-15c-3.19,6.63-7.26,13.15-13.36,17.28A41.78,41.78,0,0,0,596.22,90c-1.31,4.33-2.26,7.73-4.6,11.6l8.63-8.4c-2.87,5.31-6.94,11.88-9.81,17.19a45.11,45.11,0,0,0,11-11.69,39.41,39.41,0,0,1-5,12.86l10.09-12a48.25,48.25,0,0,1-9.35,20.92c4.91-4.86,9.9-9.42,14.81-14.28a45.38,45.38,0,0,1-6.8,15.74,48.79,48.79,0,0,0,7.91-8.92,15.8,15.8,0,0,1-4,10.64,49.1,49.1,0,0,0,7.18-9A39.76,39.76,0,0,1,611,132.91a45.64,45.64,0,0,0,9.72-12,49.61,49.61,0,0,1-5,11.09c2.18-3.15,4.28-5.73,6.46-8.88a60,60,0,0,1-9.33,17.69,56.45,56.45,0,0,0,14.27-14.53A28.32,28.32,0,0,1,623.76,137c2-2.56,3.61-4,5.64-6.51a28.1,28.1,0,0,1-12,18.28,50,50,0,0,0,13.75-12.6,34.66,34.66,0,0,1-7.93,14.06l9.1-9.36a43.93,43.93,0,0,1-9.16,15.32,29.31,29.31,0,0,0,12-16.71c-1.1,6.33-3.13,14.57-4.23,20.9,2.29-4,5.21-8.07,7.5-12.08-0.5,3.66-1.36,9.24-1.86,12.91,1.27-2.45,2.65-5.29,4-8q0.57,3.61.84,7.26l1.14-7.22L645,163a57.06,57.06,0,0,0-2.77-22.81l5,10.51a236.46,236.46,0,0,0-11.14-28.89l9.87,15.3c-4-12.1-10.63-22.27-18.41-32.28l-0.71-1.27c2.24,1.37,4.93,1.63,6.61,3.36-4.6-6.2-9.75-11.31-14.28-17.64l10.91,10.39a49.6,49.6,0,0,0-19.31-21.2L623,84.72c-5.37-7.52-13.79-15.4-22.5-18.47,3.47,0.75,7.63,3.58,11.09,4.33a25.42,25.42,0,0,0-17.24-7.24l6-2.42c-3.13,1.26-8.48-.32-14.26-0.4a124.76,124.76,0,0,0-14.79-8,10.94,10.94,0,0,0,1.75-7.06l0.09,0L573,45.29a7.34,7.34,0,0,0-.17-0.74,42,42,0,0,1,6.63-3.34C589.42,45.79,614,63,620.37,71.93A43,43,0,0,0,601.2,50.28a26.26,26.26,0,0,1,14.1,7.61,115.11,115.11,0,0,0-12.07-12.05,43.19,43.19,0,0,1,21.84,19.33,124.38,124.38,0,0,0-11.9-18.42,32,32,0,0,1,9.48,7.57l-7.76-9.84a46.71,46.71,0,0,1,20.57,17.14A22.42,22.42,0,0,0,629.22,49a31.47,31.47,0,0,1,12.13,13.55,30.7,30.7,0,0,0-7.24-14.31l7,6.73a58,58,0,0,0-7.84-11,55.7,55.7,0,0,1,21.49,20.3,64.27,64.27,0,0,0-11.73-17.94,35.69,35.69,0,0,1,8.24,7.26l-4.43-7.18,5.55,3.52-7-9.77A47.44,47.44,0,0,1,668.8,62a49.5,49.5,0,0,0-9.75-18.61l10.85,7.88-4.35-6.56,5.88,2.94L669,44A27.93,27.93,0,0,1,682.6,55.49l-7-10.9,3.59,1.27A3,3,0,0,0,678,44.38c3.1,0.64,6.18,1.33,9.25,2.1A34.65,34.65,0,0,0,675.33,42.41ZM538,3.18a35.08,35.08,0,0,1,5.69,1.22,33.45,33.45,0,0,0-5.47.29C538.17,4.19,538.09,3.69,538,3.18Zm0.39,2.63A26.16,26.16,0,0,1,552.19,10a23.66,23.66,0,0,0-13.36-.41C538.7,8.34,538.57,7.07,538.4,5.81Zm13.93,15.65a22.41,22.41,0,0,0-1.53,2.09c-0.23,0-.47.06-0.7,0.09a26.69,26.69,0,0,0,.34-11c-0.49,2.9-1.16,7.89-2.88,11.56a16.91,16.91,0,0,0-3.74,1.63,36.61,36.61,0,0,0,0-8.39,62.7,62.7,0,0,1-4.38,9.85,134.38,134.38,0,0,0-.59-17.1,25.56,25.56,0,0,1,15,2.76A50.79,50.79,0,0,1,552.33,21.46Zm22-21,0.23,0c-0.31.57-.61,1.14-0.88,1.71l-0.11-.05C573.83,1.66,574.08,1.09,574.37.51ZM570.9,5.63a20.74,20.74,0,0,0-.38,2.6l-0.32-.14-1-2.73C569.78,5.45,570.34,5.53,570.9,5.63Zm-2-.31a14,14,0,0,1-.06,2.18l-6.48-2.82A61.62,61.62,0,0,1,568.89,5.32Zm-8.57,3.35a60.78,60.78,0,0,1,8.28.66c-0.28,1.94-.65,4.08-0.76,6.33a105.28,105.28,0,0,0-6.52,10.83c-1.31-1.35-1.95-3.48-.58-4.66l-3.49.43A62,62,0,0,1,560.32,8.67Zm-1.68,81.09v0l0.06,0Zm0-3.11a20.94,20.94,0,0,0-.44-2.93c0.39,0.71.77,1.43,1.13,2.16C559.1,86.14,558.87,86.4,558.63,86.65Zm24.92-11.13A42,42,0,0,1,569.4,94.21q-2.3-4.13-4.92-8.07a37.67,37.67,0,0,0,13.08-9.37,34.61,34.61,0,0,1-7.22,9.88C575.33,84.48,580.74,80.17,583.55,75.52ZM578.68,61c-2.13,8-8.82,16-16.56,18.93,7.48-2.51,14.35-7.9,17.65-15.07a31.45,31.45,0,0,1-15.31,21.21c-1.93-2.89-4-5.68-6.16-8.39a12.06,12.06,0,0,0,2-1.52l0.59-.57c5.41-5.52,4.4-11.61.74-15.91A16.1,16.1,0,0,0,569.44,55,60,60,0,0,1,578.68,61Zm3-24.09a70.08,70.08,0,0,0-10.24,4.92,9.17,9.17,0,0,0-4.11-2.66l6.88-1L567,35.31c2.19,0.08,2.64-3.44,1.1-5-1.19-1.2-2.86-1.71-4.42-2.39a51.56,51.56,0,0,1,4.43-6,25.2,25.2,0,0,1,14.63,12.5A6.75,6.75,0,0,0,581.73,37Zm1-2.69a24.72,24.72,0,0,0-11.43-13.16A26.3,26.3,0,0,1,586,30.39,21.73,21.73,0,0,0,582.77,34.27Zm3.7-4.37a32.48,32.48,0,0,0-5.2-6.57,31.62,31.62,0,0,1,6.85,5C587.56,28.85,587,29.37,586.47,29.9Zm-6.08-11.65a34.3,34.3,0,0,1,10.81,7.19c-0.81.8-1.7,1.63-2.62,2.48A25.57,25.57,0,0,0,580.39,18.25Zm10.24,11.65,1.49-3.52c0.35,0.37.7,0.73,1,1.11Zm2.6-6.13,0.85-2A7.63,7.63,0,0,1,593,23.44,41.16,41.16,0,0,0,585.93,15l9.68,7.74a37.09,37.09,0,0,0-6.68-9.27,61.74,61.74,0,0,1,9.72,8.79l-4,3.84C594.18,25.32,593.72,24.53,593.23,23.76Zm1.45,5.62,0,0h0Zm1.2-.75-0.13-.27a28.88,28.88,0,0,0,3.92-5q0.88,1,1.71,2C599.49,26.4,597.67,27.48,595.88,28.63Z" transform="translate(-530.47)"/></svg>