<?xml version="1.0" encoding="UTF-8" standalone="no"?>
<svg
   xmlns:dc="http://purl.org/dc/elements/1.1/"
   xmlns:cc="http://creativecommons.org/ns#"
   xmlns:rdf="http://www.w3.org/1999/02/22-rdf-syntax-ns#"
   xmlns:svg="http://www.w3.org/2000/svg"
   xmlns="http://www.w3.org/2000/svg"
   xmlns:sodipodi="http://sodipodi.sourceforge.net/DTD/sodipodi-0.dtd"
   xmlns:inkscape="http://www.inkscape.org/namespaces/inkscape"
   id="BACKGROUND_2"
   data-name="BACKGROUND 2"
   viewBox="0 0 750.01001 108.6552"
   version="1.1"
   sodipodi:docname="water0.svg"
   width="750.01001"
   height="108.6552"
   inkscape:version="0.92+devel unknown">
  <metadata
     id="metadata13">
    <rdf:RDF>
      <cc:Work
         rdf:about="">
        <dc:format>image/svg+xml</dc:format>
        <dc:type
           rdf:resource="http://purl.org/dc/dcmitype/StillImage" />
        <dc:title>WATER CURVE ORIGINAL</dc:title>
      </cc:Work>
    </rdf:RDF>
  </metadata>
  <sodipodi:namedview
     pagecolor="#ffffff"
     bordercolor="#666666"
     inkscape:document-rotation="0"
     borderopacity="1"
     objecttolerance="10"
     gridtolerance="10"
     guidetolerance="10"
     inkscape:pageopacity="0"
     inkscape:pageshadow="2"
     inkscape:window-width="1920"
     inkscape:window-height="1016"
     id="namedview11"
     showgrid="false"
     fit-margin-top="0"
     fit-margin-left="0"
     fit-margin-right="0"
     fit-margin-bottom="0"
     inkscape:zoom="1.624"
     inkscape:cx="375.02"
     inkscape:cy="54.34"
     inkscape:window-x="0"
     inkscape:window-y="0"
     inkscape:window-maximized="1"
     inkscape:current-layer="BACKGROUND_2" />
  <defs
     id="defs4">
    <style
       id="style2">.cls-1{fill:#dafffd;}</style>
  </defs>
  <title
     id="title6">WATER CURVE ORIGINAL</title>
  <path
     class="cls-1"
     d="m 750.01,18.505203 c -15.79,3.35 -31.25,8.24 -47.59,9.14 a 225.51,225.51 0 0 1 -47.57,-3 C 613.2,17.885203 584.25,-6.7247971 540.26,4.6452029 518.05,10.385203 497.4,19.775203 474.88,25.125203 c -22.52,5.35 -43.36,5.38 -66.27,3.92 -30.44,-1.94 -58.72,-8.87 -89.16,-5 -23.3,2.94 -45.82,8.15 -69.3,9.64 -18.8,1.19 -38.26,-1.37 -56.42,-4.11 -21.9,-3.3 -44.48,-5.73 -66.3,-11.5 -20,-5.3 -39.79,-12.8900001 -60.37,-16.1200001 -22.42,-3.52 -45,-2.00000004 -67.06,2.27 V 108.6552 H 750 V 18.505203 Z"
     id="path8"
     inkscape:connector-curvature="0" />
</svg>
