<?xml version="1.0" encoding="UTF-8" standalone="no"?>
<svg
   xmlns:dc="http://purl.org/dc/elements/1.1/"
   xmlns:cc="http://creativecommons.org/ns#"
   xmlns:rdf="http://www.w3.org/1999/02/22-rdf-syntax-ns#"
   xmlns:svg="http://www.w3.org/2000/svg"
   xmlns="http://www.w3.org/2000/svg"
   id="svg717"
   version="1.1"
   viewBox="0 0 39.7831 91.405518"
   height="91.405518mm"
   width="39.7831mm">
  <defs
     id="defs711" />
  <metadata
     id="metadata714">
    <rdf:RDF>
      <cc:Work
         rdf:about="">
        <dc:format>image/svg+xml</dc:format>
        <dc:type
           rdf:resource="http://purl.org/dc/dcmitype/StillImage" />
        <dc:title></dc:title>
      </cc:Work>
    </rdf:RDF>
  </metadata>
  <g
     transform="translate(101.53441,-103.13058)"
     id="layer1">
    <g
       transform="matrix(0.35277777,0,0,-0.35277777,-27.718444,253.3587)"
       id="g709">
      <g
         id="g592"
         transform="translate(-99.856607,416.84351)">
        <path
           d="m 0,0 h -106 c -4.514,0 -4.514,-7 0,-7 H 0 c 4.514,0 4.514,7 0,7"
           style="fill:#a16d0b;fill-opacity:1;fill-rule:nonzero;stroke:none"
           id="path594" />
      </g>
      <g
         id="g596"
         transform="translate(-179.85661,398.84351)">
        <path
           d="m 0,0 c 0,-3.866 -3.134,-7 -7,-7 -3.866,0 -7,3.134 -7,7 v 20 c 0,3.866 3.134,7 7,7 3.866,0 7,-3.134 7,-7 z"
           style="fill:#2d2824;fill-opacity:1;fill-rule:nonzero;stroke:none"
           id="path598" />
      </g>
      <g
         id="g600"
         transform="translate(-111.85661,398.84351)">
        <path
           d="m 0,0 c 0,-3.866 -3.134,-7 -7,-7 -3.866,0 -7,3.134 -7,7 v 20 c 0,3.866 3.134,7 7,7 3.866,0 7,-3.134 7,-7 z"
           style="fill:#2d2824;fill-opacity:1;fill-rule:nonzero;stroke:none"
           id="path602" />
      </g>
      <g
         id="g604"
         transform="matrix(1,0,0,1.5540047,-200.85661,399.84351)">
        <path
           d="m 0,0 h 95 v -142.452 l -17,38.679 -4,-29.246 -11,25.472 -13,-42.454 -12,46.228 -18,-33.019 -9,32.075 -7,-29.245 z"
           style="fill:#2d2824;fill-opacity:1;fill-rule:nonzero;stroke:none"
           id="path606" />
      </g>
      <g
         id="g620"
         transform="matrix(1.27696,0,0,1,-175.89804,282.56081)">
        <path
           d="m 0,0 c -5.276,-0.951 -4.498,-5.003 -2.189,-7.981 -1.497,-0.183 -3.026,-1.246 -3.662,-2.882 -1.222,-4.698 6.006,-8.477 8.427,-4.17 L 2.34,-14.19 32.738,-30.712 c -1.445,-4.017 -2.204,-12.222 5.093,-10.817 5.274,0.95 4.497,5.003 2.189,7.981 1.496,0.182 3.025,1.245 3.661,2.881 1.223,4.699 -6.006,8.478 -8.427,4.169 l 0.137,-0.486 -30.211,16.42 C 6.564,-6.468 7.146,1.376 0,0"
           style="fill:#fafafa;fill-opacity:1;fill-rule:nonzero;stroke:none"
           id="path622" />
      </g>
      <g
         id="g624"
         transform="matrix(1.27696,0,0,1,-116.85486,268.31471)">
        <path
           d="m 0,0 c 1.717,5.078 -2.206,6.355 -5.928,5.775 0.563,1.398 0.372,3.251 -0.753,4.599 -3.521,3.341 -10.324,-1.16 -7.724,-5.362 l 0.851,-0.2 -29.158,-18.622 c -2.817,3.206 -9.634,7.838 -11.932,0.772 -1.717,-5.078 2.206,-6.355 5.929,-5.775 -0.563,-1.398 -0.373,-3.25 0.753,-4.598 3.521,-3.341 10.324,1.16 7.723,5.361 l -0.493,0.116 28.98,18.507 C -8.835,-2.619 -2.25,-6.92 0,0"
           style="fill:#fafafa;fill-opacity:1;fill-rule:nonzero;stroke:none"
           id="path626" />
      </g>
    </g>
  </g>
</svg>
